<svg xmlns="http://www.w3.org/2000/svg" xmlns:xlink="http://www.w3.org/1999/xlink" width="750" height="258.654" x="0" y="0" version="1.1" viewBox="0 0 750 258.654"><g id="Layer_1"><path fill-opacity="0" stroke="#8B8787" stroke-width="1" d="M11.5,52 L511.5,50"/><g><path fill="#645E5E" d="M544.712,40.5 L569.288,40.5 C576.308,40.5 582,44.977 582,50.5 L582,50.5 C582,56.023 576.308,60.5 569.288,60.5 L544.712,60.5 C537.691,60.5 532,56.023 532,50.5 L532,50.5 C532,44.977 537.691,40.5 544.712,40.5 z" opacity=".75"/><text transform="matrix(1, 0, 0, 1, 553.365, 50.25)"><tspan x="-4.068" y="4" fill="#FFF" font-family="GillSans" font-size="14">P</tspan></text><text transform="matrix(1, 0, 0, 1, 563.569, 53.25)"><tspan x="-5.623" y="2" fill="#FFF" font-family="GillSans" font-size="8">old</tspan></text></g><path fill-opacity="0" stroke="#77C04E" stroke-width="1" d="M11.5,81 L511.5,81"/><g><path fill="#77C04E" d="M544.712,70.5 L569.288,70.5 C576.308,70.5 582,74.977 582,80.5 L582,80.5 C582,86.023 576.308,90.5 569.288,90.5 L544.712,90.5 C537.691,90.5 532,86.023 532,80.5 L532,80.5 C532,74.977 537.691,70.5 544.712,70.5 z"/><g><text transform="matrix(1, 0, 0, 1, 556.531, 80.256)"><tspan x="-3.248" y="3.5" fill="#FFF" font-family="GillSans" font-size="12">S</tspan></text><text transform="matrix(1, 0, 0, 1, 562.259, 83.244)"><tspan x="-2.5" y="2" fill="#FFF" font-family="GillSans" font-size="8">1</tspan></text></g></g><text transform="matrix(1, 0, 0, 1, 225, 40)"><tspan x="-95.5" y="-3.5" fill="#000" font-family="Inconsolata" font-size="14">{id: 5, item: &quot;A&quot;, qty:200}</tspan></text><path fill-opacity="0" stroke="#2A86C0" stroke-width="1" d="M11.5,191 L511.5,189"/><path fill-opacity="0" stroke="#77C04E" stroke-width="1" d="M11.5,219 L511.5,219"/><g><path fill="#2A86C0" d="M544.712,179 L569.288,179 C576.309,179 582,183.477 582,189 L582,189 C582,194.523 576.309,199 569.288,199 L544.712,199 C537.692,199 532,194.523 532,189 L532,189 C532,183.477 537.692,179 544.712,179 z"/><g><text transform="matrix(1, 0, 0, 1, 552.459, 188.75)"><tspan x="-4.068" y="4" fill="#FFF" font-family="GillSans" font-size="14">P</tspan></text><text transform="matrix(1, 0, 0, 1, 562.759, 191.75)"><tspan x="-7.232" y="2" fill="#FFF" font-family="GillSans" font-size="8">new</tspan></text></g></g><g><path fill="#77C04E" d="M544.712,238.154 L569.288,238.154 C576.309,238.154 582,242.631 582,248.154 L582,248.154 C582,253.677 576.309,258.154 569.288,258.154 L544.712,258.154 C537.691,258.154 532,253.677 532,248.154 L532,248.154 C532,242.631 537.691,238.154 544.712,238.154 z"/><text transform="matrix(1, 0, 0, 1, 556.833, 248.154)"><tspan x="-3.248" y="3.5" fill="#FFF" font-family="GillSans" font-size="12">S</tspan></text><text transform="matrix(1, 0, 0, 1, 562.693, 251.154)"><tspan x="-2.5" y="2" fill="#FFF" font-family="GillSans" font-size="8">3</tspan></text></g><g><path fill="#77C04E" d="M544.712,208.5 L569.288,208.5 C576.309,208.5 582,212.977 582,218.5 L582,218.5 C582,224.023 576.309,228.5 569.288,228.5 L544.712,228.5 C537.691,228.5 532,224.023 532,218.5 L532,218.5 C532,212.977 537.691,208.5 544.712,208.5 z"/><g><text transform="matrix(1, 0, 0, 1, 556.204, 218.5)"><tspan x="-3.248" y="3.5" fill="#FFF" font-family="GillSans" font-size="12">S</tspan></text><text transform="matrix(1, 0, 0, 1, 563.486, 221)"><tspan x="-2.5" y="2" fill="#FFF" font-family="GillSans" font-size="8">2</tspan></text></g></g><path fill-opacity="0" stroke="#77C04E" stroke-width="1" d="M11.5,248.654 L511.5,248.654"/><text transform="matrix(1, 0, 0, 1, 305.5, 134.827)"><tspan x="-97.5" y="-3.5" fill="#000" font-family="Inconsolata" font-size="14">{id: 5, item: &quot;A&quot;, qty:50}</tspan></text><path fill-opacity="0" stroke="#000" stroke-width="1" d="M206.5,138 L206.5,191"/><text transform="matrix(1, 0, 0, 1, 165.75, 151.5)"><tspan x="-10.794" y="4" fill="#000" font-family="GillSans" font-size="14">W1</tspan></text><text transform="matrix(1, 0, 0, 1, 95.5, 183.5)"><tspan x="-95.5" y="-3.5" fill="#000" font-family="Inconsolata" font-size="14">{id: 5, item: &quot;A&quot;, qty:200}</tspan></text><path fill-opacity="0" stroke="#000" stroke-width="1" d="M461.191,138 L461.191,189"/><path fill-opacity="0" stroke="#78C04E" stroke-width="1" d="M481.088,138 L481.088,219"/><path fill-opacity="0" stroke="#000" stroke-dasharray="3 2" stroke-width="1" d="M427.088,138 L499.294,247.654"/><path fill-opacity="0" stroke="#78C04E" stroke-width="1" d="M499.294,248 L499.294,138"/><text transform="matrix(1, 0, 0, 1, 413.794, 151.5)"><tspan x="-10.794" y="4" fill="#000" font-family="GillSans" font-size="14">W2</tspan></text><text transform="matrix(1, 0, 0, 1, 513.066, 151.5)"><tspan x="-7.728" y="4" fill="#000" font-family="GillSans" font-size="14">R2</tspan></text><path fill-opacity="0" stroke="#000" stroke-dasharray="3 2" stroke-width="1" d="M172.377,138 L244.583,247.654"/><path fill-opacity="0" stroke="#78C04E" stroke-width="1" d="M225.5,137.75 L225.5,218.75"/><path fill-opacity="0" stroke="#78C04E" stroke-width="1" d="M244.583,248.327 L244.583,138.327"/><text transform="matrix(1, 0, 0, 1, 604.5, 134.827)"><tspan x="-143.5" y="-3.5" fill="#000" font-family="Inconsolata" font-size="14">{id: 5, item: &quot;A&quot;, qty:50, restock: true}</tspan></text><text transform="matrix(1, 0, 0, 1, 236.355, 151.5)"><tspan x="-7.728" y="4" fill="#000" font-family="GillSans" font-size="14">R1</tspan></text></g></svg>