<svg xmlns="http://www.w3.org/2000/svg" xmlns:xlink="http://www.w3.org/1999/xlink" width="750" height="280.654" x="0" y="0" version="1.1" viewBox="0 0 750 280.654"><g id="Layer_1"><path fill-opacity="0" stroke="#8B8787" stroke-width="1" d="M11.5,74.5 L511.5,72.5"/><g><path fill="#645E5E" d="M544.712,63 L569.288,63 C576.308,63 582,67.477 582,73 L582,73 C582,78.523 576.308,83 569.288,83 L544.712,83 C537.691,83 532,78.523 532,73 L532,73 C532,67.477 537.691,63 544.712,63 z" opacity=".75"/><text transform="matrix(1, 0, 0, 1, 553.365, 72.75)"><tspan x="-4.068" y="4" fill="#FFF" font-family="GillSans" font-size="14">P</tspan></text><text transform="matrix(1, 0, 0, 1, 563.569, 75.75)"><tspan x="-5.623" y="2" fill="#FFF" font-family="GillSans" font-size="8">old</tspan></text></g><path fill-opacity="0" stroke="#77C04E" stroke-width="1" d="M11.5,103.5 L511.5,103.5"/><g><path fill="#77C04E" d="M544.712,93 L569.288,93 C576.308,93 582,97.477 582,103 L582,103 C582,108.523 576.308,113 569.288,113 L544.712,113 C537.691,113 532,108.523 532,103 L532,103 C532,97.477 537.691,93 544.712,93 z"/><g><text transform="matrix(1, 0, 0, 1, 556.531, 102.756)"><tspan x="-3.248" y="3.5" fill="#FFF" font-family="GillSans" font-size="12">S</tspan></text><text transform="matrix(1, 0, 0, 1, 562.259, 105.744)"><tspan x="-2.5" y="2" fill="#FFF" font-family="GillSans" font-size="8">1</tspan></text></g></g><text transform="matrix(1, 0, 0, 1, 225, 62.5)"><tspan x="-95.5" y="-3.5" fill="#000" font-family="Inconsolata" font-size="14">{id: 5, item: &quot;A&quot;, qty:200}</tspan></text><path fill-opacity="0" stroke="#2A86C0" stroke-width="1" d="M11.5,213.5 L511.5,211.5"/><path fill-opacity="0" stroke="#77C04E" stroke-width="1" d="M11.5,241.5 L511.5,241.5"/><g><path fill="#2A86C0" d="M544.712,201.5 L569.288,201.5 C576.309,201.5 582,205.977 582,211.5 L582,211.5 C582,217.023 576.309,221.5 569.288,221.5 L544.712,221.5 C537.692,221.5 532,217.023 532,211.5 L532,211.5 C532,205.977 537.692,201.5 544.712,201.5 z"/><g><text transform="matrix(1, 0, 0, 1, 552.459, 211.25)"><tspan x="-4.068" y="4" fill="#FFF" font-family="GillSans" font-size="14">P</tspan></text><text transform="matrix(1, 0, 0, 1, 562.759, 214.25)"><tspan x="-7.232" y="2" fill="#FFF" font-family="GillSans" font-size="8">new</tspan></text></g></g><g><path fill="#77C04E" d="M544.712,260.654 L569.288,260.654 C576.309,260.654 582,265.131 582,270.654 L582,270.654 C582,276.177 576.309,280.654 569.288,280.654 L544.712,280.654 C537.691,280.654 532,276.177 532,270.654 L532,270.654 C532,265.131 537.691,260.654 544.712,260.654 z"/><text transform="matrix(1, 0, 0, 1, 556.833, 270.654)"><tspan x="-3.248" y="3.5" fill="#FFF" font-family="GillSans" font-size="12">S</tspan></text><text transform="matrix(1, 0, 0, 1, 562.693, 273.654)"><tspan x="-2.5" y="2" fill="#FFF" font-family="GillSans" font-size="8">3</tspan></text></g><g><path fill="#77C04E" d="M544.712,231 L569.288,231 C576.309,231 582,235.477 582,241 L582,241 C582,246.523 576.309,251 569.288,251 L544.712,251 C537.691,251 532,246.523 532,241 L532,241 C532,235.477 537.691,231 544.712,231 z"/><g><text transform="matrix(1, 0, 0, 1, 556.204, 241)"><tspan x="-3.248" y="3.5" fill="#FFF" font-family="GillSans" font-size="12">S</tspan></text><text transform="matrix(1, 0, 0, 1, 563.486, 243.5)"><tspan x="-2.5" y="2" fill="#FFF" font-family="GillSans" font-size="8">2</tspan></text></g></g><path fill-opacity="0" stroke="#77C04E" stroke-width="1" d="M11.5,271.154 L511.5,271.154"/><text transform="matrix(1, 0, 0, 1, 305.5, 157.327)"><tspan x="-97.5" y="-3.5" fill="#000" font-family="Inconsolata" font-size="14">{id: 5, item: &quot;A&quot;, qty:50}</tspan></text><path fill-opacity="0" stroke="#000" stroke-width="1" d="M206.5,160.5 L206.5,213.5"/><path fill-opacity="0" stroke="#78C04E" stroke-width="1" d="M329.838,23.5 L329.838,102.5"/><text transform="matrix(1, 0, 0, 1, 165.75, 172)"><tspan x="-10.794" y="4" fill="#000" font-family="GillSans" font-size="14">W1</tspan></text><text transform="matrix(1, 0, 0, 1, 351.816, 32)"><tspan x="-7.728" y="4" fill="#000" font-family="GillSans" font-size="14">R1</tspan></text><text transform="matrix(1, 0, 0, 1, 95.5, 206)"><tspan x="-95.5" y="-3.5" fill="#000" font-family="Inconsolata" font-size="14">{id: 5, item: &quot;A&quot;, qty:200}</tspan></text><path fill-opacity="0" stroke="#000" stroke-width="1" d="M461.191,160.5 L461.191,211.5"/><path fill-opacity="0" stroke="#78C04E" stroke-width="1" d="M481.088,160.5 L481.088,241.5"/><path fill-opacity="0" stroke="#000" stroke-dasharray="3 2" stroke-width="1" d="M427.088,160.5 L499.294,270.154"/><path fill-opacity="0" stroke="#78C04E" stroke-width="1" d="M499.294,270.5 L499.294,160.5"/><text transform="matrix(1, 0, 0, 1, 413.794, 174)"><tspan x="-10.794" y="4" fill="#000" font-family="GillSans" font-size="14">W2</tspan></text><text transform="matrix(1, 0, 0, 1, 513.066, 174)"><tspan x="-7.728" y="4" fill="#000" font-family="GillSans" font-size="14">R2</tspan></text><path fill-opacity="0" stroke="#000" stroke-dasharray="3 2" stroke-width="1" d="M172.377,160.5 L244.583,270.154"/><path fill-opacity="0" stroke="#78C04E" stroke-width="1" d="M225.5,160.25 L225.5,241.25"/><path fill-opacity="0" stroke="#78C04E" stroke-width="1" d="M244.583,270.827 L244.583,160.827"/><text transform="matrix(1, 0, 0, 1, 604.5, 157.327)"><tspan x="-143.5" y="-3.5" fill="#000" font-family="Inconsolata" font-size="14">{id: 5, item: &quot;A&quot;, qty:50, restock: true}</tspan></text></g></svg>