<svg xmlns="http://www.w3.org/2000/svg" xmlns:xlink="http://www.w3.org/1999/xlink" width="520" height="540" x="0" y="0" version="1.1" viewBox="0 0 520 540"><g id="Layer_1"><path fill="#5A5955" d="M22.061,61.915 C22.061,63.018 23.371,63.911 24.988,63.911 L194.135,63.911 C195.752,63.911 197.061,63.018 197.061,61.915 L197.061,20.908 C197.061,19.805 195.752,18.911 194.135,18.911 L24.988,18.911 C23.371,18.911 22.061,19.805 22.061,20.908 L22.061,61.915"/><g><text transform="matrix(1, 0, 0, 1, 91.154, 40.591)"><tspan x="-16.883" y="7.5" fill="#FFFFFE" font-family="GillSans" font-size="24">Dri</tspan></text><text transform="matrix(1, 0, 0, 1, 112.792, 40.591)"><tspan x="-5.756" y="7.5" fill="#FFFFFE" font-family="GillSans" font-size="24">v</tspan></text><text transform="matrix(1, 0, 0, 1, 123.316, 40.591)"><tspan x="-6.248" y="7.5" fill="#FFFFFE" font-family="GillSans" font-size="24">e</tspan></text><text transform="matrix(1, 0, 0, 1, 133.816, 40.591)"><tspan x="-5.252" y="7.5" fill="#FFFFFE" font-family="GillSans" font-size="24">r</tspan></text></g><text transform="matrix(1, 0, 0, 1, 111.909, 238.41)"><tspan x="-38.738" y="7.5" fill="#FFFFFE" font-family="GillSans" font-size="24">Primary</tspan></text><text transform="matrix(0, 1, -1, -0, 237.61, 138.84)"><tspan x="-30.131" y="7.5" fill="#3299CC" font-family="GillSans" font-size="24">Write</tspan></text><g><path fill-opacity="0" stroke="#3299CC" stroke-width="4" d="M224.11,47.28 L225.286,230.797"/><g><path fill="#3299CC" d="M220.487,230.828 L225.368,243.597 L230.086,230.766 z"/><path fill-opacity="0" stroke="#3299CC" stroke-width="4" d="M220.487,230.828 L225.368,243.597 L230.086,230.766 z"/></g></g><g><path fill="#2A86C0" d="M197.061,229.784 C197.061,228.977 194.519,228.323 191.377,228.323 L27.746,228.323 C24.607,228.323 22.061,228.977 22.061,229.784 L22.061,271.861 C22.061,272.668 24.607,273.323 27.746,273.323 L191.377,273.323 C194.519,273.323 197.061,272.668 197.061,271.861 L197.061,229.784"/><text transform="matrix(1, 0, 0, 1, 113.567, 250.701)"><tspan x="-38.738" y="7.5" fill="#FFF" font-family="GillSans" font-size="24">Primary</tspan></text></g><g><path fill="#5CA831" d="M197.061,363.709 C197.061,362.903 194.519,362.249 191.377,362.249 L27.746,362.249 C24.607,362.249 22.061,362.903 22.061,363.709 L22.061,405.787 C22.061,406.594 24.607,407.249 27.746,407.249 L191.377,407.249 C194.519,407.249 197.061,406.594 197.061,405.787 L197.061,363.709"/><text transform="matrix(1, 0, 0, 1, 110.061, 384.769)"><tspan x="-51.225" y="7.5" fill="#FFFFFE" font-family="GillSans" font-size="24">Secondary</tspan></text></g><g><g><path fill-opacity="0" stroke="#3299CC" stroke-width="4" d="M223.942,259.267 C223.834,301.502 278.362,307.743 291.612,275.299"/><g><path fill="#3299CC" d="M296.336,276.146 L293.87,262.7 L286.887,274.452 z"/><path fill-opacity="0" stroke="#3299CC" stroke-width="4" d="M296.336,276.146 L293.87,262.7 L286.887,274.452 z"/></g></g><text transform="matrix(1, 0, 0, 1, 258.516, 304.22)"><tspan x="-28.273" y="7.5" fill="#3299CC" font-family="GillSans" font-size="24">Apply</tspan></text></g><text transform="matrix(0, 1, -1, -0, 329.454, 312.745)"><tspan x="-44.879" y="7.5" fill="#3299CC" font-family="GillSans" font-size="24">Replicate</tspan></text><g><path fill-opacity="0" stroke="#3299CC" stroke-width="4" d="M310.458,259.267 L310.458,361.837"/><g><path fill="#3299CC" d="M305.658,361.837 L310.458,374.637 L315.258,361.837 z"/><path fill-opacity="0" stroke="#3299CC" stroke-width="4" d="M305.658,361.837 L310.458,374.637 L315.258,361.837 z"/></g></g><path fill-opacity="0" stroke="#5A5955" stroke-width="4" d="M197.561,42.077 L497.561,42.077"/><path fill-opacity="0" stroke="#3299CC" stroke-width="4" d="M198.439,253.267 L498.439,253.267"/><path fill-opacity="0" stroke="#5BA831" stroke-width="4" d="M198.439,384.6 L498.439,384.6"/><g><path fill-opacity="0" stroke="#2A86C0" stroke-dasharray="8 8" stroke-width="4" d="M381.427,378.237 L381.935,275.667"/><g><path fill="#2A86C0" d="M386.735,275.691 L381.999,262.867 L377.135,275.643 z"/><path fill-opacity="0" stroke="#2A86C0" stroke-width="4" d="M386.735,275.691 L381.999,262.867 L377.135,275.643 z"/></g></g><g><path fill="#5CA831" d="M197.061,473.549 C197.061,472.743 194.519,472.089 191.377,472.089 L27.746,472.089 C24.607,472.089 22.061,472.743 22.061,473.549 L22.061,515.627 C22.061,516.434 24.607,517.089 27.746,517.089 L191.377,517.089 C194.519,517.089 197.061,516.434 197.061,515.627 L197.061,473.549"/><text transform="matrix(1, 0, 0, 1, 110.061, 494.609)"><tspan x="-51.225" y="7.5" fill="#FFFFFE" font-family="GillSans" font-size="24">Secondary</tspan></text></g><path fill-opacity="0" stroke="#5BA831" stroke-width="4" d="M198.439,495.089 L498.439,495.089"/><text transform="matrix(0, 1, -1, -0, 424.458, 312.745)"><tspan x="-44.879" y="7.5" fill="#3299CC" font-family="GillSans" font-size="24">Replicate</tspan></text><g><path fill-opacity="0" stroke="#3299CC" stroke-width="4" d="M403.462,259.267 L402.119,474.201"/><g><path fill="#3299CC" d="M397.319,474.171 L402.039,487 L406.919,474.231 z"/><path fill-opacity="0" stroke="#3299CC" stroke-width="4" d="M397.319,474.171 L402.039,487 L406.919,474.231 z"/></g></g><g><text transform="matrix(0, 1, -1, -0, 212.332, 142.25)"><tspan x="-59" y="5.5" fill="#3299CC" font-family="Inconsolata" font-size="18">writeConcern:</tspan></text><text transform="matrix(0, 1, -1, -0, 172.332, 146.117)"><tspan x="-82.206" y="-14.5" fill="#3299CC" font-family="Inconsolata" font-size="18">{ w: &quot;majority&quot; }</tspan></text></g><g><path fill-opacity="0" stroke="#3299CC" stroke-width="4" d="M381.637,248.555 L381.637,65.038"/><g><path fill="#3299CC" d="M386.437,65.038 L381.637,52.238 L376.837,65.038 z"/><path fill-opacity="0" stroke="#3299CC" stroke-width="4" d="M386.437,65.038 L381.637,52.238 L376.837,65.038 z"/></g></g><text transform="matrix(0, 1, -1, -0, 394.821, 145.034)"><tspan x="-47.1" y="7.5" fill="#3299CC" font-family="GillSans" font-size="24">Response</tspan></text><g><g><path fill-opacity="0" stroke="#3299CC" stroke-width="4" d="M312.289,386.406 C312.181,428.641 366.709,434.883 379.959,402.438"/><g><path fill="#3299CC" d="M384.683,403.285 L382.217,389.839 L375.234,401.592 z"/><path fill-opacity="0" stroke="#3299CC" stroke-width="4" d="M384.683,403.285 L382.217,389.839 L375.234,401.592 z"/></g></g><text transform="matrix(1, 0, 0, 1, 346.863, 431.359)"><tspan x="-28.273" y="7.5" fill="#3299CC" font-family="GillSans" font-size="24">Apply</tspan></text></g></g></svg>