<svg xmlns="http://www.w3.org/2000/svg" xmlns:xlink="http://www.w3.org/1999/xlink" width="640" height="100" x="0" y="0" version="1.1" viewBox="0 0 640 100"><g id="Layer_1"><g><text transform="matrix(1, 0, 0, 1, 41.5, 17.5)"><tspan x="-36.5" y="7.5" fill="#004571" font-family="Inconsolata" font-size="24">UPDATE</tspan></text><text transform="matrix(1, 0, 0, 1, 116.5, 17.5)"><tspan x="-30.5" y="7.5" fill="#3299CC" font-family="Inconsolata" font-size="24">users</tspan></text><text transform="matrix(1, 0, 0, 1, 23.5, 47.5)"><tspan x="-18.5" y="7.5" fill="#004571" font-family="Inconsolata" font-size="24">SET</tspan></text><text transform="matrix(1, 0, 0, 1, 200.5, 47.5)"><tspan x="-114.5" y="7.5" fill="#3299CC" font-family="Inconsolata" font-size="24">status = &apos;reject&apos;</tspan></text><text transform="matrix(1, 0, 0, 1, 35.5, 77.5)"><tspan x="-30.5" y="7.5" fill="#004069" font-family="Inconsolata" font-size="24">WHERE</tspan></text><text transform="matrix(1, 0, 0, 1, 134.5, 77.5)"><tspan x="-48.5" y="7.5" fill="#3299CC" font-family="Inconsolata" font-size="24">age &lt; 18</tspan></text></g><g id="table"><g><path fill-opacity="0" stroke="#6CB340" stroke-width="2" d="M470,19.6 L330,19.4"/><path fill="#6CB340" d="M330,12 L329.965,27 L320,19.408 L330,12 z"/></g><text transform="matrix(1, 0, 0, 1, 503.996, 17.5)"><tspan x="-23.996" y="7.5" fill="#3299CC" font-family="GillSans" font-size="24">table</tspan></text></g><g id="action"><text transform="matrix(1, 0, 0, 1, 546.441, 49.5)"><tspan x="-66.441" y="7.5" fill="#3299CC" font-family="GillSans" font-size="24">update action</tspan></text><g><path fill-opacity="0" stroke="#6CB340" stroke-width="2" d="M470,49.9 L330,49.7"/><path fill="#6CB340" d="M330,42 L329.965,57 L320,49.408 L330,42 z"/></g></g><g id="filter"><text transform="matrix(1, 0, 0, 1, 539.943, 79.5)"><tspan x="-59.943" y="7.5" fill="#3299CC" font-family="GillSans" font-size="24">update filter</tspan></text><g><path fill-opacity="0" stroke="#6CB340" stroke-width="2" d="M470,79.6 L330,79.4"/><path fill="#6CB340" d="M330,72 L329.965,87 L320,79.408 L330,72 z"/></g></g></g></svg>