<svg xmlns="http://www.w3.org/2000/svg" xmlns:xlink="http://www.w3.org/1999/xlink" width="640" height="130" x="0" y="0" version="1.1" viewBox="0 0 640 130"><g id="Layer_1"><g id="CMD"><text transform="matrix(1, 0, 0, 1, 185.167, 20)"><tspan x="-179.833" y="5" fill="#004571" font-family="Inconsolata" font-size="24">db.users.updateMany(</tspan></text><text transform="matrix(1, 0, 0, 1, 71.833, 20)"><tspan x="-30.5" y="5" fill="#3299CC" font-family="Inconsolata" font-size="24">users</tspan></text><text transform="matrix(1, 0, 0, 1, 161.833, 50)"><tspan x="-126.5" y="5" fill="#3299CC" font-family="Inconsolata" font-size="24">{ age: { $lt: 18 } },</tspan></text><text transform="matrix(1, 0, 0, 1, 215, 80)"><tspan x="-180" y="5" fill="#3299CC" font-family="Inconsolata" font-size="24">{ $set: { status: &quot;reject&quot; } }</tspan></text><text transform="matrix(1, 0, 0, 1, 20, 110)"><tspan x="-15" y="5" fill="#004069" font-family="Inconsolata" font-size="24">)</tspan></text></g><g id="Coll"><g><path fill-opacity="0" stroke="#6CB340" stroke-width="2" d="M480,19.456 L415,19.25"/><g><path fill="#6CB340" d="M415,12 L405,19.406 L414.965,27 z"/><path fill-opacity="0" stroke="#6CB340" stroke-width="2" d="M415,12 L405,19.406 L414.965,27 z"/></g></g><text transform="matrix(1, 0, 0, 1, 537.891, 18)"><tspan x="-47.891" y="7" fill="#3299CC" font-family="GillSans" font-size="24">collection</tspan></text></g><g id="criteria"><g><path fill-opacity="0" stroke="#6CB340" stroke-width="2" d="M480,49.75 L415,49.75"/><g><path fill="#6CB340" d="M415,42.5 L405,49.906 L414.965,57.5 z"/><path fill-opacity="0" stroke="#6CB340" stroke-width="2" d="M415,42.5 L405,49.906 L414.965,57.5 z"/></g></g><text transform="matrix(1, 0, 0, 1, 561.703, 48)"><tspan x="-71.703" y="7" fill="#3299CC" font-family="GillSans" font-size="24">update filter</tspan></text></g><g id="action"><g><path fill-opacity="0" stroke="#6CB340" stroke-width="2" d="M480.843,79.547 L415.843,79.348"/><g><path fill="#6CB340" d="M415,72 L405,79.406 L414.965,87 z"/><path fill-opacity="0" stroke="#6CB340" stroke-width="2" d="M415,72 L405,79.406 L414.965,87 z"/></g></g><text transform="matrix(1, 0, 0, 1, 558.195, 77.633)"><tspan x="-66.441" y="7.5" fill="#3299CC" font-family="GillSans" font-size="24">update action</tspan></text></g></g></svg>