<svg xmlns="http://www.w3.org/2000/svg" xmlns:xlink="http://www.w3.org/1999/xlink" width="720" height="120" x="0" y="0" version="1.1" viewBox="0 0 720 120"><g id="Layer_1"><g><text transform="matrix(1, 0, 0, 1, 21.191, 18.156)"><tspan x="-18.5" y="7.5" fill="#06345E" font-family="Inconsolata" font-size="24">db.</tspan></text><text transform="matrix(1, 0, 0, 1, 69.191, 18.156)"><tspan x="-30.5" y="7.5" fill="#2A86C0" font-family="Inconsolata" font-size="24">users</tspan></text><text transform="matrix(1, 0, 0, 1, 135.191, 18.156)"><tspan x="-36.5" y="7.5" fill="#06345E" font-family="Inconsolata" font-size="24">.find(</tspan></text><text transform="matrix(1, 0, 0, 1, 165.191, 44.156)"><tspan x="-126.5" y="7.5" fill="#2A86C0" font-family="Inconsolata" font-size="24">{ age: { $gt: 18 } },</tspan></text><text transform="matrix(1, 0, 0, 1, 45.191, 70.156)"><tspan x="-6.5" y="7.5" fill="#3B91C6" font-family="Inconsolata" font-size="24">{</tspan></text><text transform="matrix(1, 0, 0, 1, 189.191, 70.156)"><tspan x="-126.5" y="7.5" fill="#2A86C0" font-family="Inconsolata" font-size="24">name: 1, address: 1 }</tspan></text><text transform="matrix(1, 0, 0, 1, 51.191, 96.156)"><tspan x="-48.5" y="7.5" fill="#053056" font-family="Inconsolata" font-size="24">).limit(</tspan></text><text transform="matrix(1, 0, 0, 1, 105.191, 96.156)"><tspan x="-6.5" y="7.5" fill="#2A86C0" font-family="Inconsolata" font-size="24">5</tspan></text><text transform="matrix(1, 0, 0, 1, 117.191, 96.156)"><tspan x="-6.5" y="7.5" fill="#053056" font-family="Inconsolata" font-size="24">)</tspan></text></g><g><g><path fill-opacity="0" stroke="#5CA831" stroke-width="2" d="M482.459,20.547 L439.532,20.348"/><g><path fill="#5CA831" d="M439.549,16.748 L429.932,20.303 L439.516,23.948 z"/><path fill-opacity="0" stroke="#5CA831" stroke-width="2" d="M439.549,16.748 L429.932,20.303 L439.516,23.948 z"/></g></g><text transform="matrix(1, 0, 0, 1, 544.334, 18.156)"><tspan x="-47.891" y="7.5" fill="#2A86C0" font-family="GillSans" font-size="24">collection</tspan></text></g><g><g><path fill-opacity="0" stroke="#5CA831" stroke-width="2" d="M482.459,45.547 L439.532,45.348"/><g><path fill="#5CA831" d="M439.549,41.748 L429.932,45.303 L439.516,48.948 z"/><path fill-opacity="0" stroke="#5CA831" stroke-width="2" d="M439.549,41.748 L429.932,45.303 L439.516,48.948 z"/></g></g><text transform="matrix(1, 0, 0, 1, 563.278, 44.92)"><tspan x="-66.834" y="7.5" fill="#2A86C0" font-family="GillSans" font-size="24">query criteria</tspan></text></g><g><path fill-opacity="0" stroke="#5CA831" stroke-width="2" d="M482.459,72.547 L439.532,72.348"/><g><path fill="#5CA831" d="M439.549,68.748 L429.932,72.303 L439.516,75.948 z"/><path fill-opacity="0" stroke="#5CA831" stroke-width="2" d="M439.549,68.748 L429.932,72.303 L439.516,75.948 z"/></g></g><text transform="matrix(1, 0, 0, 1, 546.901, 70.633)"><tspan x="-50.457" y="7.5" fill="#2A86C0" font-family="GillSans" font-size="24">projection</tspan></text><g><path fill-opacity="0" stroke="#5CA831" stroke-width="2" d="M482.459,97.547 L439.532,97.348"/><g><path fill="#5CA831" d="M439.549,93.748 L429.932,97.303 L439.516,100.948 z"/><path fill-opacity="0" stroke="#5CA831" stroke-width="2" d="M439.549,93.748 L429.932,97.303 L439.516,100.948 z"/></g></g><text transform="matrix(1, 0, 0, 1, 573.397, 95.92)"><tspan x="-76.953" y="7.5" fill="#053056" font-family="GillSans" font-size="24">cursor modifier</tspan></text></g></svg>