<svg xmlns="http://www.w3.org/2000/svg" xmlns:xlink="http://www.w3.org/1999/xlink" width="600" height="320" x="0" y="0" version="1.1" viewBox="0 0 600 320"><g id="Layer 1"><path fill="#5A5955" d="M22.061,61.915 C22.061,63.018 23.371,63.911 24.988,63.911 L194.135,63.911 C195.752,63.911 197.061,63.018 197.061,61.915 L197.061,20.908 C197.061,19.805 195.752,18.911 194.135,18.911 L24.988,18.911 C23.371,18.911 22.061,19.805 22.061,20.908 L22.061,61.915"/><text transform="matrix(1, 0, 0, 1, 109.561, 41.411)"><tspan x="-35.29" y="6.68" fill="#FFFFFE" font-family="GillSans" font-size="24">Dri</tspan> <tspan x="-2.525" y="6.68" fill="#FFFFFE" font-family="GillSans" font-size="24">v</tspan> <tspan x="7.507" y="6.68" fill="#FFFFFE" font-family="GillSans" font-size="24">e</tspan> <tspan x="19.003" y="6.68" fill="#FFFFFE" font-family="GillSans" font-size="24">r</tspan></text><text transform="matrix(1, 0, 0, 1, 112.86, 238.41)"><tspan x="-39.689" y="7.5" fill="#FFFFFE" font-family="GillSans" font-size="24">Primary</tspan></text><text transform="matrix(-0, 1, -1, -0, 257.276, 145.25)"><tspan x="-31.619" y="5.166" fill="#3299CC" font-family="GillSans" font-size="24">Write</tspan></text><g><path fill-opacity="0" stroke="#3299CC" stroke-width="4" d="M246.11,45.792 L247.286,229.308"/><path fill="#3299CC" fill-opacity="1" stroke="#3299CC" stroke-opacity="1" stroke-width="4" d="M242.487,229.339 L247.368,242.108 L252.086,229.277 z"/></g><g><path fill="#2A86C0" d="M197.061,229.784 C197.061,228.977 194.519,228.323 191.377,228.323 L27.746,228.323 C24.607,228.323 22.061,228.977 22.061,229.784 L22.061,271.861 C22.061,272.668 24.607,273.323 27.746,273.323 L191.377,273.323 C194.519,273.323 197.061,272.668 197.061,271.861 L197.061,229.784"/><text transform="matrix(1, 0, 0, 1, 118.661, 252.034)"><tspan x="-43.832" y="6.168" fill="#FFF" font-family="GillSans" font-size="24">mongod</tspan></text></g><g><g><path fill-opacity="0" stroke="#3299CC" stroke-width="4" d="M262.665,253.41 C262.557,295.645 317.085,301.886 330.334,269.442"/><path fill="#3299CC" fill-opacity="1" stroke="#3299CC" stroke-opacity="1" stroke-width="4" d="M335.059,270.289 L332.593,256.843 L325.61,268.595 z"/></g><text transform="matrix(1, 0, 0, 1, 297.541, 298.363)"><tspan x="-28.576" y="7.5" fill="#3299CC" font-family="GillSans" font-size="24">Apply</tspan></text></g><path fill-opacity="0" stroke="#5A5955" stroke-width="4" d="M198.439,42.22 L578.439,42.22"/><path fill-opacity="0" stroke="#3299CC" stroke-width="4" d="M199.316,253.41 L579.316,253.41"/><g><g><path fill-opacity="0" stroke="#3299CC" stroke-width="4" d="M389.882,257.207 C389.722,299.589 470.538,305.727 489.681,272.899"/><path fill="#3299CC" fill-opacity="1" stroke="#3299CC" stroke-opacity="1" stroke-width="4" d="M494.33,274.092 L492.864,260.501 L485.032,271.705 z"/></g><text transform="matrix(1, 0, 0, 1, 441.45, 302.229)"><tspan x="-84.248" y="7.432" fill="#3299CC" font-family="GillSans" font-size="24">Write to journal</tspan></text></g><text transform="matrix(-0, 1, -1, -0, 214.006, 148.651)"><tspan x="-78.672" y="-14.5" fill="#3299CC" font-family="Inconsolata" font-size="18">writeConcern: </tspan> <tspan x="-78.672" y="5.5" fill="#3299CC" font-family="Inconsolata" font-size="18">{ w: 1, j: true }</tspan></text><g><path fill-opacity="0" stroke="#3299CC" stroke-width="4" d="M495.896,248.121 L495.896,64.605"/><path fill="#3299CC" fill-opacity="1" stroke="#3299CC" stroke-opacity="1" stroke-width="4" d="M500.697,64.605 L495.896,51.805 L491.096,64.605 z"/></g><text transform="matrix(-0, 1, -1, -0, 509.488, 145.805)"><tspan x="-48.305" y="7.908" fill="#3299CC" font-family="GillSans" font-size="24">Response</tspan></text></g></svg>