<svg xmlns="http://www.w3.org/2000/svg" xmlns:xlink="http://www.w3.org/1999/xlink" width="900" height="450" x="0" y="0" version="1.1" viewBox="0 0 900 450"><g id="Layer 1"><g><g><path fill="#FFF" d="M28.799,110.449 L175.597,110.449 L175.597,419.352 L28.799,419.352 z"/><path fill-opacity="0" stroke="#173182" stroke-width="1" d="M28.799,110.449 L175.597,110.449 L175.597,419.352 L28.799,419.352 z"/></g><path fill-opacity="0" stroke="#173182" stroke-width="1" d="M28.799,154.578 L175.597,154.578"/><path fill-opacity="0" stroke="#173182" stroke-width="1" d="M28.799,242.836 L175.597,242.836"/><path fill-opacity="0" stroke="#173182" stroke-width="1" d="M28.799,198.707 L175.597,198.707"/><path fill-opacity="0" stroke="#173182" stroke-width="1" d="M28.799,286.965 L175.597,286.965"/><path fill-opacity="0" stroke="#173182" stroke-width="1" d="M28.799,331.094 L175.597,331.094"/><path fill-opacity="0" stroke="#173182" stroke-width="1" d="M28.799,375.223 L175.597,375.223"/></g><text transform="matrix(1, 0, 0, 1, 103.171, 131.351)"><tspan x="-69.873" y="2.614" fill="#173182" font-family="Inconsolata" font-size="18">{ age: 18, ...}</tspan></text><text transform="matrix(1, 0, 0, 1, 103.171, 176.394)"><tspan x="-69.873" y="4.677" fill="#26408C" font-family="Inconsolata" font-size="18">{ age: 28, ...}</tspan></text><text transform="matrix(1, 0, 0, 1, 103.103, 265.964)"><tspan x="-69.941" y="3.826" fill="#173182" font-family="Inconsolata" font-size="18">{ age: 38, ...}</tspan></text><text transform="matrix(1, 0, 0, 1, 103.171, 220.496)"><tspan x="-69.873" y="4.129" fill="#1A3485" font-family="Inconsolata" font-size="18">{ age: 21, ...}</tspan></text><text transform="matrix(1, 0, 0, 1, 103.171, 396.679)"><tspan x="-69.873" y="4.534" fill="#173182" font-family="Inconsolata" font-size="18">{ age: 31, ...}</tspan></text><text transform="matrix(1, 0, 0, 1, 103.171, 309.584)"><tspan x="-69.873" y="3.909" fill="#173182" font-family="Inconsolata" font-size="18">{ age: 18, ...}</tspan></text><text transform="matrix(1, 0, 0, 1, 103.171, 351.535)"><tspan x="-69.873" y="4.793" fill="#173182" font-family="Inconsolata" font-size="18">{ age: 38, ...}</tspan></text><text transform="matrix(1, 0, 0, 1, 95.915, 439.531)"><tspan x="-27.39" y="3.703" fill="#173182" font-family="Inconsolata" font-size="21">users</tspan></text><g><path fill-opacity="0" stroke="#2A86C0" stroke-width="6" d="M190.448,264.842 L319.448,264.943"/><path fill="#2A86C0" fill-opacity="1" stroke="#2A86C0" stroke-opacity="1" stroke-width="6" d="M319.443,270.943 L335.448,264.955 L319.453,258.943 z"/></g><text transform="matrix(1, 0, 0, 1, 264.948, 293.702)"><tspan x="-75" y="5.436" fill="#2A86C0" font-family="GillSans" font-size="21">Query Criteria</tspan></text><g><g><path fill="#FFF" d="M352.818,154.461 L497.43,154.461 L497.43,375.105 L352.818,375.105 z"/><path fill-opacity="0" stroke="#173182" stroke-width="1" d="M352.818,154.461 L497.43,154.461 L497.43,375.105 L352.818,375.105 z"/></g><path fill-opacity="0" stroke="#173182" stroke-width="1" d="M352.818,244.4 L497.43,244.464"/><path fill-opacity="0" stroke="#173182" stroke-width="1" d="M352.818,288.529 L497.43,288.464"/><text transform="matrix(1, 0, 0, 1, 426.154, 176.394)"><tspan x="-68.974" y="4.677" fill="#173182" font-family="Inconsolata" font-size="18">{ age: 28, ...}</tspan></text><text transform="matrix(1, 0, 0, 1, 426.085, 265.964)"><tspan x="-69.043" y="3.826" fill="#173182" font-family="Inconsolata" font-size="18">{ age: 38, ...}</tspan></text><text transform="matrix(1, 0, 0, 1, 426.154, 220.496)"><tspan x="-68.974" y="4.129" fill="#173182" font-family="Inconsolata" font-size="18">{ age: 21, ...}</tspan></text><text transform="matrix(1, 0, 0, 1, 426.154, 354.079)"><tspan x="-68.974" y="3.134" fill="#173182" font-family="Inconsolata" font-size="18">{ age: 31, ...}</tspan></text><text transform="matrix(1, 0, 0, 1, 426.154, 309.502)"><tspan x="-68.974" y="3.826" fill="#173182" font-family="Inconsolata" font-size="18">{ age: 38, ...}</tspan></text><path fill-opacity="0" stroke="#173182" stroke-width="1" d="M352.818,200.912 L497.43,200.976"/><path fill-opacity="0" stroke="#173182" stroke-width="1" d="M352.818,331.382 L497.43,331.445"/></g><text transform="matrix(1, 0, 0, 1, 578.299, 293.702)"><tspan x="-38.996" y="5.436" fill="#2A86C0" font-family="GillSans" font-size="21">Modifier</tspan></text><g><path fill-opacity="0" stroke="#2A86C0" stroke-width="6" d="M508.085,264.725 L637.085,264.825"/><path fill="#2A86C0" fill-opacity="1" stroke="#2A86C0" stroke-opacity="1" stroke-width="6" d="M637.08,270.825 L653.085,264.838 L637.09,258.825 z"/></g><g><g><path fill="#FFF" d="M671.835,154.461 L816.447,154.461 L816.447,375.105 L671.835,375.105 z"/><path fill-opacity="0" stroke="#173182" stroke-width="1" d="M671.835,154.461 L816.447,154.461 L816.447,375.105 L671.835,375.105 z"/></g><path fill-opacity="0" stroke="#173182" stroke-width="1" d="M671.835,244.4 L816.447,244.464"/><path fill-opacity="0" stroke="#173182" stroke-width="1" d="M671.835,288.529 L816.447,288.464"/><text transform="matrix(1, 0, 0, 1, 745.171, 178.233)"><tspan x="-68.974" y="2.837" fill="#173182" font-family="Inconsolata" font-size="18">{ age: 21, ...}</tspan></text><text transform="matrix(1, 0, 0, 1, 745.102, 265.906)"><tspan x="-69.043" y="3.885" fill="#173182" font-family="Inconsolata" font-size="18">{ age: 31, ...}</tspan></text><text transform="matrix(1, 0, 0, 1, 745.171, 230.125)"><tspan x="-68.974" y="-5.5" fill="#173182" font-family="Inconsolata" font-size="18">{ age: 28, ...}</tspan></text><text transform="matrix(1, 0, 0, 1, 745.171, 353.135)"><tspan x="-68.974" y="4.077" fill="#173182" font-family="Inconsolata" font-size="18">{ age: 38, ...}</tspan></text><text transform="matrix(1, 0, 0, 1, 745.171, 309.502)"><tspan x="-68.974" y="3.826" fill="#173182" font-family="Inconsolata" font-size="18">{ age: 38, ...}</tspan></text><path fill-opacity="0" stroke="#173182" stroke-width="1" d="M671.835,200.912 L816.447,200.976"/><path fill-opacity="0" stroke="#173182" stroke-width="1" d="M671.835,331.382 L816.447,331.445"/></g><text transform="matrix(1, 0, 0, 1, 743.641, 399.01)"><tspan x="-32.656" y="5.436" fill="#2A86C0" font-family="GillSans" font-size="21">Results</tspan></text><text transform="matrix(1, 0, 0, 1, 450, 49.033)"><tspan x="-442.81" y="10" fill="#173182" font-family="Inconsolata" font-size="32">db.users.find( { age: { $gt: 18 } } ).sort( {age: 1 } )</tspan></text><text transform="matrix(1, 0, 0, 1, 95.915, 19.533)"><tspan x="-44.302" y="6.5" fill="#2A86C0" font-family="GillSans" font-size="21">Collection</tspan></text><text transform="matrix(1, 0, 0, 1, 446.238, 18.469)"><tspan x="-71.843" y="5.436" fill="#2A86C0" font-family="GillSans" font-size="21">Query Criteria</tspan></text><text transform="matrix(1, 0, 0, 1, 740.453, 19.533)"><tspan x="-38.996" y="5.436" fill="#2A86C0" font-family="GillSans" font-size="21">Modifier</tspan></text><path fill="#000" d="M-57.093,-36.508 L-57.565,-36.758 L-57.565,-36.758 C-58.322,-37.159 -59.802,-36.473 -60.871,-35.226 C-61.94,-33.979 -62.192,-32.643 -61.435,-32.242 L-60.962,-31.992 C-60.962,-31.992 -60.962,-31.992 -60.962,-31.992 C-60.204,-31.591 -58.724,-32.278 -57.656,-33.525 C-56.587,-34.773 -56.335,-36.108 -57.093,-36.508 L-57.093,-36.508"/></g></svg>