<svg xmlns="http://www.w3.org/2000/svg" xmlns:xlink="http://www.w3.org/1999/xlink" width="500" height="100" x="0" y="0" version="1.1" viewBox="0 0 500 100"><g id="Layer 1"><text transform="matrix(1, 0, 0, 1, 127.82, 51)"><tspan x="-117.973" y="-21.371" fill="#004571" font-family="Inconsolata" font-size="24">UPDATE</tspan> <tspan x="-45.973" y="-21.371" fill="#DD4F01" font-family="Inconsolata" font-size="24"> </tspan> <tspan x="-33.973" y="-21.371" fill="#3299CC" font-family="Inconsolata" font-size="24">users </tspan> <tspan x="-117.973" y="4.629" fill="#004571" font-family="Inconsolata" font-size="24">SET</tspan> <tspan x="-81.973" y="4.629" fill="#DD4F01" font-family="Inconsolata" font-size="24"> </tspan> <tspan x="-33.973" y="4.629" fill="#3299CC" font-family="Inconsolata" font-size="24">status = &apos;A&apos; </tspan> <tspan x="-117.973" y="30.629" fill="#004069" font-family="Inconsolata" font-size="24">WHERE</tspan> <tspan x="-57.973" y="30.629" fill="#DD4F01" font-family="Inconsolata" font-size="24"> </tspan> <tspan x="-33.973" y="30.629" fill="#3299CC" font-family="Inconsolata" font-size="24">age &gt; 18</tspan></text><g><g><path fill-opacity="0" stroke="#6CB340" stroke-width="2" d="M311.02,24.52 L268.093,24.32"/><path fill="#6CB340" fill-opacity="1" stroke="#6CB340" stroke-opacity="1" stroke-width="2" d="M268.11,20.72 L258.493,24.276 L268.076,27.92 z"/></g><text transform="matrix(1, 0, 0, 1, 374.961, 22.129)"><tspan x="-49.957" y="7.5" fill="#3299CC" font-family="GillSans" font-size="24">table</tspan></text></g><g><path fill-opacity="0" stroke="#6CB340" stroke-width="2" d="M311.02,48.52 L268.093,48.32"/><path fill="#6CB340" fill-opacity="1" stroke="#6CB340" stroke-opacity="1" stroke-width="2" d="M268.11,44.72 L258.493,48.276 L268.076,51.92 z"/></g><text transform="matrix(1, 0, 0, 1, 401.002, 49.682)"><tspan x="-75.998" y="5.711" fill="#3299CC" font-family="GillSans" font-size="24">update action</tspan></text><g><path fill-opacity="0" stroke="#6CB340" stroke-width="2" d="M311.02,74.121 L268.093,73.922"/><path fill="#6CB340" fill-opacity="1" stroke="#6CB340" stroke-opacity="1" stroke-width="2" d="M268.11,70.322 L258.493,73.877 L268.076,77.522 z"/></g><text transform="matrix(1, 0, 0, 1, 406.258, 73.207)"><tspan x="-81.254" y="7.5" fill="#3299CC" font-family="GillSans" font-size="24">update criteria</tspan></text></g></svg>