<svg xmlns="http://www.w3.org/2000/svg" xmlns:xlink="http://www.w3.org/1999/xlink" width="640" height="100" x="0" y="0" version="1.1" viewBox="0 0 640 100"><g id="Layer_1"><g id="CMD"><text transform="matrix(1, 0, 0, 1, 137.833, 20)"><tspan x="-132.833" y="5" fill="#06345E" font-family="Inconsolata" font-size="24">db.users.deleteOne(</tspan></text><text transform="matrix(1, 0, 0, 1, 71.5, 20)"><tspan x="-30.5" y="5" fill="#2A86C0" font-family="Inconsolata" font-size="24">users</tspan></text><text transform="matrix(1, 0, 0, 1, 170.333, 50)"><tspan x="-135.333" y="5" fill="#2A86C0" font-family="Inconsolata" font-size="24">{ status: &quot;Rejected&quot; }</tspan></text><text transform="matrix(1, 0, 0, 1, 11.5, 77.5)"><tspan x="-6.5" y="7.5" fill="#053056" font-family="Inconsolata" font-size="24">)</tspan></text></g><g id="criteria"><g><path fill-opacity="0" stroke="#5CA831" stroke-width="2" d="M450,49.599 L320,49.4"/><g><path fill="#5CA831" d="M319,42 L309,49.406 L318.965,57 z"/><path fill-opacity="0" stroke="#5CA831" stroke-width="2" d="M319,42 L309,49.406 L318.965,57 z"/></g></g><text transform="matrix(1, 0, 0, 1, 535.5, 47.5)"><tspan x="-75.5" y="7.5" fill="#2A86C0" font-family="GillSans" font-size="24">delete filter</tspan></text></g><g id="coll"><g><path fill-opacity="0" stroke="#5CA831" stroke-width="2" d="M450,19.599 L320,19.4"/><g><path fill="#5CA831" d="M319,12.333 L309,19.74 L318.965,27.333 z"/><path fill-opacity="0" stroke="#5CA831" stroke-width="2" d="M319,12.333 L309,19.74 L318.965,27.333 z"/></g></g><text transform="matrix(1, 0, 0, 1, 507.891, 17.5)"><tspan x="-47.891" y="7.5" fill="#2A86C0" font-family="GillSans" font-size="24">collection</tspan></text></g></g></svg>