<svg xmlns="http://www.w3.org/2000/svg" xmlns:svg="http://www.w3.org/2000/svg" id="svg2" width="640" height="100" x="0" y="0" version="1.1" viewBox="0 0 640 100"><metadata id="metadata56"/><g id="Layer_1"><g id="CMD"><text id="text6" transform="matrix(1, 0, 0, 1, 145.5, 17.5)"><tspan id="tspan8" x="-140.5" y="7.5" fill="#06345E" font-family="Inconsolata" font-size="24">db.users.deleteMany(</tspan></text><text id="text10" transform="matrix(1, 0, 0, 1, 71.5, 17.5)"><tspan id="tspan12" x="-30.5" y="7.5" fill="#2A86C0" font-family="Inconsolata" font-size="24">users</tspan></text><text id="text14" transform="translate(167.5,47.5)"><tspan id="tspan16" x="-132.5" y="7.5" font-size="24" style="font-size:24px;font-family:Inconsolata;fill:#2a86c0">{ status: &quot;reject&quot; }</tspan></text><text id="text18" transform="matrix(1, 0, 0, 1, 11.5, 77.5)"><tspan id="tspan20" x="-6.5" y="7.5" fill="#053056" font-family="Inconsolata" font-size="24">)</tspan></text></g><g id="criteria"><g id="g23"><path id="path25" fill-opacity="0" stroke="#5CA831" stroke-width="2" d="M450,49.599 L320,49.4"/><g id="g27"><path id="path29" fill="#5CA831" d="M319,42 L309,49.406 L318.965,57 z"/><path id="path31" fill-opacity="0" stroke="#5CA831" stroke-width="2" d="M319,42 L309,49.406 L318.965,57 z"/></g></g><text id="text33" transform="matrix(1, 0, 0, 1, 516.949, 47.5)" style="-inkscape-font-specification:'Gill Sans';font-family:'Gill Sans';font-weight:400;font-style:normal;font-stretch:normal;font-variant:normal"><tspan id="tspan35" x="-56.949" y="7.5" fill="#2A86C0" font-family="GillSans" font-size="24" style="-inkscape-font-specification:'Gill Sans';font-family:'Gill Sans';font-weight:400;font-style:normal;font-stretch:normal;font-variant:normal">delete filter</tspan></text></g><g id="coll"><g id="g38"><path id="path40" fill-opacity="0" stroke="#5CA831" stroke-width="2" d="M450,19.599 L320,19.4"/><g id="g42"><path id="path44" fill="#5CA831" d="M319,12.333 L309,19.74 L318.965,27.333 z"/><path id="path46" fill-opacity="0" stroke="#5CA831" stroke-width="2" d="M319,12.333 L309,19.74 L318.965,27.333 z"/></g></g><text id="text48" transform="matrix(1, 0, 0, 1, 507.891, 17.5)" style="-inkscape-font-specification:'Gill Sans';font-family:'Gill Sans';font-weight:400;font-style:normal;font-stretch:normal;font-variant:normal"><tspan id="tspan50" x="-47.891" y="7.5" fill="#2A86C0" font-family="GillSans" font-size="24" style="-inkscape-font-specification:'Gill Sans';font-family:'Gill Sans';font-weight:400;font-style:normal;font-stretch:normal;font-variant:normal">collection</tspan></text></g></g></svg>