<svg xmlns="http://www.w3.org/2000/svg" xmlns:xlink="http://www.w3.org/1999/xlink" width="550" height="120" x="0" y="0" version="1.1" viewBox="0 0 550 120"><g id="Layer 1"><text transform="matrix(1, 0, 0, 1, 159.229, 60.618)"><tspan x="-151.424" y="-32.643" fill="#06345E" font-family="Inconsolata" font-size="24">SELECT</tspan> <tspan x="-79.424" y="-32.643" fill="#D33907" font-family="Inconsolata" font-size="24"> </tspan> <tspan x="-67.424" y="-32.643" fill="#2A86C0" font-family="Inconsolata" font-size="24">_id, </tspan> <tspan x="-7.424" y="-32.643" fill="#2A86C0" font-family="Inconsolata" font-size="24">name, address</tspan> <tspan x="148.576" y="-32.643" fill="#D33907" font-family="Inconsolata" font-size="24"> </tspan> <tspan x="-151.424" y="-6.643" fill="#053056" font-family="Inconsolata" font-size="24">FROM</tspan> <tspan x="-103.424" y="-6.643" fill="#D33907" font-family="Inconsolata" font-size="24"> </tspan> <tspan x="-67.424" y="-6.643" fill="#2A86C0" font-family="Inconsolata" font-size="24">users</tspan> <tspan x="-151.424" y="19.357" fill="#053056" font-family="Inconsolata" font-size="24">WHERE</tspan> <tspan x="-91.424" y="19.357" fill="#D33907" font-family="Inconsolata" font-size="24"> </tspan> <tspan x="-67.424" y="19.357" fill="#2A86C0" font-family="Inconsolata" font-size="24">age &gt; 18</tspan> <tspan x="-151.424" y="45.357" fill="#053056" font-family="Inconsolata" font-size="24">LIMIT</tspan> <tspan x="-91.424" y="45.357" fill="#D33907" font-family="Inconsolata" font-size="24"> </tspan> <tspan x="-67.424" y="45.357" fill="#2A86C0" font-family="Inconsolata" font-size="24">5</tspan></text><g><g><path fill-opacity="0" stroke="#5CA831" stroke-width="2" d="M373.75,23.63 L330.823,23.431"/><path fill="#5CA831" fill-opacity="1" stroke="#5CA831" stroke-opacity="1" stroke-width="2" d="M330.84,19.831 L321.223,23.386 L330.807,27.031 z"/></g><text transform="matrix(1, 0, 0, 1, 437.691, 21.239)"><tspan x="-49.957" y="7.5" fill="#2A86C0" font-family="GillSans" font-size="24">projection</tspan></text></g><g><g><path fill-opacity="0" stroke="#5CA831" stroke-width="2" d="M373.75,47.47 L330.823,47.271"/><path fill="#5CA831" fill-opacity="1" stroke="#5CA831" stroke-opacity="1" stroke-width="2" d="M330.84,43.671 L321.223,47.226 L330.807,50.871 z"/></g><text transform="matrix(1, 0, 0, 1, 437.691, 46.843)"><tspan x="-49.957" y="7.5" fill="#2A86C0" font-family="GillSans" font-size="24">table</tspan></text></g><g><g><path fill-opacity="0" stroke="#5CA831" stroke-width="2" d="M373.75,72.696 L330.823,72.497"/><path fill="#5CA831" fill-opacity="1" stroke="#5CA831" stroke-opacity="1" stroke-width="2" d="M330.84,68.897 L321.223,72.453 L330.807,76.097 z"/></g><text transform="matrix(1, 0, 0, 1, 467.465, 71.782)"><tspan x="-79.73" y="7.5" fill="#2A86C0" font-family="GillSans" font-size="24">select criteria</tspan></text></g><g><g><path fill-opacity="0" stroke="#5CA831" stroke-width="2" d="M373.75,99.388 L330.823,99.189"/><path fill="#5CA831" fill-opacity="1" stroke="#5CA831" stroke-opacity="1" stroke-width="2" d="M330.84,95.589 L321.223,99.144 L330.807,102.788 z"/></g><text transform="matrix(1, 0, 0, 1, 467.465, 98.761)"><tspan x="-79.73" y="7.5" fill="#0A3359" font-family="GillSans" font-size="24">cursor modifier</tspan></text></g></g></svg>