<svg xmlns="http://www.w3.org/2000/svg" xmlns:xlink="http://www.w3.org/1999/xlink" width="640" height="190" x="0" y="0" version="1.1" viewBox="0 0 640 190"><g id="Layer_1"><g><text transform="matrix(1, 0, 0, 1, 41.5, 17.5)"><tspan x="-36.5" y="7.5" fill="#004571" font-family="Inconsolata" font-size="24">UPDATE</tspan></text><text transform="matrix(1, 0, 0, 1, 116.5, 17.5)"><tspan x="-30.5" y="7.5" fill="#3299CC" font-family="Inconsolata" font-size="24">users</tspan></text><text transform="matrix(1, 0, 0, 1, 23.5, 47.5)"><tspan x="-18.5" y="7.5" fill="#004571" font-family="Inconsolata" font-size="24">SET</tspan></text><text transform="matrix(1, 0, 0, 1, 201.5, 47.5)"><tspan x="-114.5" y="7.5" fill="#3299CC" font-family="Inconsolata" font-size="24">name = &apos;amy&apos;</tspan></text><text transform="matrix(1, 0, 0, 1, 35.5, 137.5)"><tspan x="-30.5" y="7.5" fill="#004069" font-family="Inconsolata" font-size="24">WHERE</tspan></text><text transform="matrix(1, 0, 0, 1, 189.167, 137.5)"><tspan x="-103.167" y="7.5" fill="#3299CC" font-family="Inconsolata" font-size="24">name = &apos;sue&apos;</tspan></text><text id="age_=_'26'" transform="matrix(1, 0, 0, 1, 201.5, 77.5)"><tspan x="-114.5" y="7.5" fill="#3299CC" font-family="Inconsolata" font-size="24">age = &apos;25&apos;</tspan></text><text id="status_=_'enrolled'" transform="matrix(1, 0, 0, 1, 201.5, 107.167)"><tspan x="-114.5" y="7.5" fill="#3299CC" font-family="Inconsolata" font-size="24">status = &apos;enrolled&apos;</tspan></text><text transform="matrix(1, 0, 0, 1, 98, 167.5)"><tspan x="-12" y="7.5" fill="#3299CC" font-family="Inconsolata" font-size="24">1</tspan></text><text transform="matrix(1, 0, 0, 1, 35.5, 167.5)"><tspan x="-30.5" y="7.5" fill="#004069" font-family="Inconsolata" font-size="24">LIMIT</tspan></text></g><g><g><path fill-opacity="0" stroke="#6CB340" stroke-width="2" d="M471,19.6 L331,19.4"/><path fill="#6CB340" d="M331,12 L330.965,27 L321,19.408 L331,12 z"/></g><text transform="matrix(1, 0, 0, 1, 504.996, 17.5)"><tspan x="-23.996" y="7.5" fill="#3299CC" font-family="GillSans" font-size="24">table</tspan></text></g><g><text transform="matrix(1, 0, 0, 1, 547.441, 49.5)"><tspan x="-66.441" y="7.5" fill="#3299CC" font-family="GillSans" font-size="24">update action</tspan></text><g><path fill-opacity="0" stroke="#6CB340" stroke-width="2" d="M471,49.7 L331,49.5"/><path fill="#6CB340" d="M331,42 L330.965,57 L321,49.408 L331,42 z"/></g><text transform="matrix(1, 0, 0, 1, 547.559, 79.5)"><tspan x="-66.441" y="7.5" fill="#3299CC" font-family="GillSans" font-size="24">update action</tspan></text><g><path fill-opacity="0" stroke="#6CB340" stroke-width="2" d="M471.117,79.9 L331.117,79.7"/><path fill="#6CB340" d="M331.117,72 L331.082,87 L321.117,79.408 L331.117,72 z"/></g><text transform="matrix(1, 0, 0, 1, 547.559, 109.5)"><tspan x="-66.441" y="7.5" fill="#3299CC" font-family="GillSans" font-size="24">update action</tspan></text><g><path fill-opacity="0" stroke="#6CB340" stroke-width="2" d="M471.117,109.2 L331.117,109"/><path fill="#6CB340" d="M331,101.5 L330.965,116.5 L321,108.908 L331,101.5 z"/></g></g><g><text transform="matrix(1, 0, 0, 1, 540.943, 139.5)"><tspan x="-59.943" y="7.5" fill="#3299CC" font-family="GillSans" font-size="24">update filter</tspan></text><g><path fill-opacity="0" stroke="#6CB340" stroke-width="2" d="M471,139.6 L331,139.4"/><path fill="#6CB340" d="M331,132 L330.965,147 L321,139.408 L331,132 z"/></g></g><g><text transform="matrix(1, 0, 0, 1, 538.957, 167.5)"><tspan x="-57.957" y="7.5" fill="#3299CC" font-family="GillSans" font-size="24">update limit</tspan></text><g><path fill-opacity="0" stroke="#6CB340" stroke-width="2" d="M471,169.8 L331,169.6"/><path fill="#6CB340" d="M331,162 L330.965,177 L321,169.408 L331,162 z"/></g></g></g></svg>