<svg xmlns="http://www.w3.org/2000/svg" xmlns:xlink="http://www.w3.org/1999/xlink" width="850" height="650" x="0" y="0" version="1.1" viewBox="0 0 850 650"><g id="Layer 1"><g><path fill="#FFF" d="M550.438,262.016 L828.714,262.016 L828.714,615.676 L550.438,615.676 z"/><path fill-opacity="0" stroke="#173182" stroke-width="1" d="M550.438,262.016 L828.714,262.016 L828.714,615.676 L550.438,615.676 z"/></g><path fill-opacity="0" stroke="#173182" stroke-width="1" d="M550.438,306.145 L828.714,306.145"/><path fill-opacity="0" stroke="#173182" stroke-width="1" d="M550.438,394.402 L828.714,394.402"/><path fill-opacity="0" stroke="#173182" stroke-width="1" d="M550.438,350.273 L828.714,350.273"/><path fill-opacity="0" stroke="#173182" stroke-width="1" d="M550.438,438.531 L829.141,438.676"/><path fill-opacity="0" stroke="#173182" stroke-width="1" d="M550.438,482.66 L828.714,482.66"/><path fill-opacity="0" stroke="#173182" stroke-width="1" d="M550.438,526.789 L828.714,526.789"/><text transform="matrix(1, 0, 0, 1, 690.463, 286.916)"><tspan x="-135.525" y="-1.385" fill="#173182" font-family="Inconsolata" font-size="18">{ name: &quot;al&quot;, age: 18, ... }</tspan></text><text transform="matrix(1, 0, 0, 1, 689.209, 330.307)"><tspan x="-134.271" y="2.33" fill="#26408C" font-family="Inconsolata" font-size="18">{ name: &quot;lee&quot;, age: 28, ... }</tspan></text><text transform="matrix(1, 0, 0, 1, 691.187, 417.81)"><tspan x="-136.504" y="3.516" fill="#173182" font-family="Inconsolata" font-size="18">{ name: &quot;kai&quot;, age: 38, ... }</tspan></text><text transform="matrix(1, 0, 0, 1, 689.766, 373.818)"><tspan x="-134.828" y="2.373" fill="#1A3485" font-family="Inconsolata" font-size="18">{ name: &quot;jan&quot;, age: 21, ... }</tspan></text><text transform="matrix(1, 0, 0, 1, 692.623, 550.51)"><tspan x="-137.685" y="2.27" fill="#173182" font-family="Inconsolata" font-size="18">{ name: &quot;ryan&quot;, </tspan> <tspan x="6.315" y="2.27" fill="#142372" font-family="Inconsolata" font-size="18">age: 31, ... }</tspan></text><text transform="matrix(1, 0, 0, 1, 690.035, 470.559)"><tspan x="-135.097" y="-5.5" fill="#173182" font-family="Inconsolata" font-size="18">{ name: &quot;sam&quot;, age: 18, ... }</tspan></text><text transform="matrix(1, 0, 0, 1, 687.875, 505.018)"><tspan x="-132.937" y="2.877" fill="#173182" font-family="Inconsolata" font-size="18">{ name: &quot;mel&quot;, age: 38, ... }</tspan></text><text transform="matrix(1, 0, 0, 1, 689.076, 633.492)"><tspan x="-27.39" y="3.703" fill="#173182" font-family="Inconsolata" font-size="21">users</tspan></text><text transform="matrix(1, 0, 0, 1, 109.016, 64.982)"><tspan x="-98.248" y="5.422" fill="#173182" font-family="Inconsolata" font-size="24">db.users.insert(</tspan></text><text transform="matrix(1, 0, 0, 1, 79.279, 15.912)"><tspan x="-44.302" y="6.5" fill="#2A86C0" font-family="GillSans" font-size="21">Collection</tspan></text><text transform="matrix(1, 0, 0, 1, 334.289, 16.648)"><tspan x="-71.843" y="5.436" fill="#2A86C0" font-family="GillSans" font-size="21">Document</tspan></text><text transform="matrix(1, 0, 0, 1, 397.367, 179.144)"><tspan x="-172.504" y="6.09" fill="#12206F" font-family="Inconsolata" font-size="24">groups: [ &quot;news&quot;, &quot;sports&quot; ]</tspan></text><text transform="matrix(1, 0, 0, 1, 327.288, 128.788)"><tspan x="-66.5" y="6.263" fill="#163182" font-family="Inconsolata" font-size="24">age:</tspan> <tspan x="-18.5" y="6.263" fill="#12206F" font-family="Inconsolata" font-size="24"> </tspan> <tspan x="-6.5" y="6.263" fill="#111F6F" font-family="Inconsolata" font-size="24">26</tspan> <tspan x="17.5" y="6.263" fill="#12206F" font-family="Inconsolata" font-size="24">,</tspan></text><text transform="matrix(1, 0, 0, 1, 337, 153.615)"><tspan x="-112" y="7.5" fill="#153182" font-family="Inconsolata" font-size="24">status:</tspan> <tspan x="-28" y="7.5" fill="#12206F" font-family="Inconsolata" font-size="24"> </tspan> <tspan x="-16" y="7.5" fill="#143182" font-family="Inconsolata" font-size="24">&quot;A&quot;</tspan> <tspan x="20" y="7.5" fill="#12206F" font-family="Inconsolata" font-size="24">,</tspan></text><text transform="matrix(1, 0, 0, 1, 207.395, 199.143)"><tspan x=".387" y="10" fill="#111F6F" font-family="Inconsolata" font-size="24">}</tspan></text><text transform="matrix(1, 0, 0, 1, 212.124, 443.654)"><tspan x="-184.255" y="-59.5" fill="#5CA831" font-family="Inconsolata" font-size="24">{</tspan> <tspan x="-172.255" y="-59.5" fill="#2A86C0" font-family="Inconsolata" font-size="24"> </tspan> <tspan x="-184.255" y="-33.5" fill="#D33907" font-family="Inconsolata" font-size="24"> </tspan> <tspan x="-160.255" y="-33.5" fill="#173182" font-family="Inconsolata" font-size="24">name</tspan> <tspan x="-112.255" y="-33.5" fill="#163182" font-family="Inconsolata" font-size="24">:</tspan> <tspan x="-100.255" y="-33.5" fill="#D33908" font-family="Inconsolata" font-size="24"> </tspan> <tspan x="-88.255" y="-33.5" fill="#2A86C0" font-family="Inconsolata" font-size="24">&quot;sue&quot;</tspan> <tspan x="-28.255" y="-33.5" fill="#163082" font-family="Inconsolata" font-size="24">,</tspan> <tspan x="-184.255" y="-7.5" fill="#D33907" font-family="Inconsolata" font-size="24"> </tspan> <tspan x="-160.255" y="-7.5" fill="#173182" font-family="Inconsolata" font-size="24">age</tspan> <tspan x="-124.255" y="-7.5" fill="#163182" font-family="Inconsolata" font-size="24">:</tspan> <tspan x="-112.255" y="-7.5" fill="#D33908" font-family="Inconsolata" font-size="24"> </tspan> <tspan x="-100.255" y="-7.5" fill="#2A86C0" font-family="Inconsolata" font-size="24">26</tspan> <tspan x="-76.255" y="-7.5" fill="#163180" font-family="Inconsolata" font-size="24">,</tspan> <tspan x="-184.255" y="18.5" fill="#D33907" font-family="Inconsolata" font-size="24"> </tspan> <tspan x="-160.255" y="18.5" fill="#173182" font-family="Inconsolata" font-size="24">status</tspan> <tspan x="-88.255" y="18.5" fill="#163182" font-family="Inconsolata" font-size="24">:</tspan> <tspan x="-76.255" y="18.5" fill="#D33908" font-family="Inconsolata" font-size="24"> </tspan> <tspan x="-64.255" y="18.5" fill="#2A86C0" font-family="Inconsolata" font-size="24">&quot;A&quot;</tspan> <tspan x="-28.255" y="18.5" fill="#163182" font-family="Inconsolata" font-size="24">,</tspan> <tspan x="-184.255" y="44.5" fill="#D33907" font-family="Inconsolata" font-size="24"> </tspan> <tspan x="-160.255" y="44.5" fill="#173182" font-family="Inconsolata" font-size="24">groups</tspan> <tspan x="-88.255" y="44.5" fill="#163182" font-family="Inconsolata" font-size="24">:</tspan> <tspan x="-76.255" y="44.5" fill="#D33908" font-family="Inconsolata" font-size="24"> </tspan> <tspan x="-64.255" y="44.5" fill="#2A86C0" font-family="Inconsolata" font-size="24">[ &quot;news&quot;, &quot;sports&quot; ]</tspan> <tspan x="-184.255" y="70.5" fill="#5CA831" font-family="Inconsolata" font-size="24">}</tspan></text><text transform="matrix(1, 0, 0, 1, 102.255, 336.123)"><tspan x="-71.843" y="5.436" fill="#2A86C0" font-family="GillSans" font-size="21">Document</tspan></text><text transform="matrix(1, 0, 0, 1, 689.076, 241.645)"><tspan x="-44.302" y="6.5" fill="#2A86C0" font-family="GillSans" font-size="21">Collection</tspan></text><path fill-opacity="0" stroke="#5BA831" stroke-width="2" d="M19.844,346.779 L402.422,346.779 L402.422,530.85 L19.844,530.85 z"/><g><path fill-opacity="0" stroke="#2A86C0" stroke-width="6" d="M419.461,438.814 L509.273,438.814"/><path fill="#2A86C0" fill-opacity="1" stroke="#2A86C0" stroke-opacity="1" stroke-width="6" d="M509.273,444.814 L525.273,438.814 L509.273,432.814 z"/></g><text transform="matrix(1, 0, 0, 1, 469.934, 426.314)"><tspan x="-27.988" y="5.436" fill="#2A86C0" font-family="GillSans" font-size="21">insert</tspan></text><path fill-opacity="0" stroke="#173182" stroke-width="1" d="M549.477,572.659 L828.714,572.659"/><g opacity=".69"><path fill="#B9D7EA" d="M550.606,572.659 L828.714,572.659 L828.714,615.676 L550.606,615.676 z"/><path fill-opacity="0" stroke="#173182" stroke-width="1" d="M550.606,572.659 L828.714,572.659 L828.714,615.676 L550.606,615.676 z"/></g><text transform="matrix(1, 0, 0, 1, 688.493, 593.508)"><tspan x="-134.807" y="6.5" fill="#173182" font-family="Inconsolata" font-size="18">{ name: &quot;sue&quot;, age: 26, ... }</tspan></text><text transform="matrix(1, 0, 0, 1, 220.877, 90.598)"><tspan x="-12.764" y="3" fill="#153082" font-family="Inconsolata" font-size="24">{</tspan></text><text transform="matrix(1, 0, 0, 1, 328.764, 102.899)"><tspan x="-80" y="9.07" fill="#173082" font-family="Inconsolata" font-size="24">name: </tspan> <tspan x="-8" y="9.07" fill="#152F82" font-family="Inconsolata" font-size="24">&quot;sue&quot;,</tspan></text><text transform="matrix(1, 0, 0, 1, 197.883, 224.144)"><tspan x="-6" y="7.5" fill="#173282" font-family="Inconsolata" font-size="24">)</tspan></text><g><path fill-opacity="0" stroke="#2A86C0" stroke-width="1" d="M73.422,30.43 L73.422,41.5"/><path fill="#2A86C0" fill-opacity="1" stroke="#2A86C0" stroke-opacity="1" stroke-width="1" d="M70.422,41.5 L73.422,49.5 L76.422,41.5 z"/></g><g><path fill-opacity="0" stroke="#2A86C0" stroke-width="1" d="M297.508,31.152 L297.502,57.5"/><path fill="#2A86C0" fill-opacity="1" stroke="#2A86C0" stroke-opacity="1" stroke-width="1" d="M294.502,57.499 L297.5,65.5 L300.502,57.501 z"/></g></g></svg>