<svg xmlns="http://www.w3.org/2000/svg" xmlns:xlink="http://www.w3.org/1999/xlink" width="600" height="300" x="0" y="0" version="1.1" viewBox="0 0 600 300"><g id="Layer 1"><g><g><path fill="#FFF" d="M11.5,9.5 L443.901,9.5 L443.901,193.655 L11.5,193.655 z"/><path fill-opacity="0" stroke="#5CA831" stroke-width="2" d="M11.5,9.5 L443.901,9.5 L443.901,193.655 L11.5,193.655 z"/></g><text transform="matrix(1, 0, 0, 1, 233.768, 105.107)"><tspan x="-198.9" y="-62.824" fill="#5CA831" font-family="Inconsolata" font-size="24">{</tspan> <tspan x="-186.9" y="-62.824" fill="#2A86C0" font-family="Inconsolata" font-size="24"> </tspan> <tspan x="-198.9" y="-36.824" fill="#D33907" font-family="Inconsolata" font-size="24"> </tspan> <tspan x="-174.9" y="-36.824" fill="#173182" font-family="Inconsolata" font-size="24">name</tspan> <tspan x="-126.899" y="-36.824" fill="#2A86C0" font-family="Inconsolata" font-size="24">: &quot;sue&quot;, </tspan> <tspan x="-198.9" y="-10.824" fill="#D33907" font-family="Inconsolata" font-size="24"> </tspan> <tspan x="-174.9" y="-10.824" fill="#173182" font-family="Inconsolata" font-size="24">age</tspan> <tspan x="-138.9" y="-10.824" fill="#2A86C0" font-family="Inconsolata" font-size="24">: 26,</tspan> <tspan x="-198.9" y="15.176" fill="#D33907" font-family="Inconsolata" font-size="24"> </tspan> <tspan x="-174.9" y="15.176" fill="#173182" font-family="Inconsolata" font-size="24">status</tspan> <tspan x="-102.899" y="15.176" fill="#2A86C0" font-family="Inconsolata" font-size="24">: &quot;A&quot;,</tspan> <tspan x="-198.9" y="41.176" fill="#D33907" font-family="Inconsolata" font-size="24"> </tspan> <tspan x="-174.9" y="41.176" fill="#173182" font-family="Inconsolata" font-size="24">groups</tspan> <tspan x="-102.899" y="41.176" fill="#2A86C0" font-family="Inconsolata" font-size="24">: [ &quot;news&quot;, &quot;sports&quot; ]</tspan> <tspan x="-198.9" y="67.176" fill="#5CA831" font-family="Inconsolata" font-size="24">}</tspan></text></g><path fill-opacity="0" stroke="#5CA831" stroke-width="2" d="M602.883,354.44 L602.833,354.833"/><g><g><path fill="#FFF" d="M82.5,40.5 L514.901,40.5 L514.901,224.655 L82.5,224.655 z"/><path fill-opacity="0" stroke="#5CA831" stroke-width="2" d="M82.5,40.5 L514.901,40.5 L514.901,224.655 L82.5,224.655 z"/></g><text transform="matrix(1, 0, 0, 1, 304.768, 136.107)"><tspan x="-198.9" y="-62.824" fill="#5CA831" font-family="Inconsolata" font-size="24">{</tspan> <tspan x="-186.9" y="-62.824" fill="#2A86C0" font-family="Inconsolata" font-size="24"> </tspan> <tspan x="-198.9" y="-36.824" fill="#D33907" font-family="Inconsolata" font-size="24"> </tspan> <tspan x="-174.9" y="-36.824" fill="#173182" font-family="Inconsolata" font-size="24">name</tspan> <tspan x="-126.899" y="-36.824" fill="#2A86C0" font-family="Inconsolata" font-size="24">: &quot;lee&quot;, </tspan> <tspan x="-198.9" y="-10.824" fill="#D33907" font-family="Inconsolata" font-size="24"> </tspan> <tspan x="-174.9" y="-10.824" fill="#173182" font-family="Inconsolata" font-size="24">age</tspan> <tspan x="-138.9" y="-10.824" fill="#2A86C0" font-family="Inconsolata" font-size="24">: 28,</tspan> <tspan x="-198.9" y="15.176" fill="#D33907" font-family="Inconsolata" font-size="24"> </tspan> <tspan x="-174.9" y="15.176" fill="#173182" font-family="Inconsolata" font-size="24">status</tspan> <tspan x="-102.899" y="15.176" fill="#2A86C0" font-family="Inconsolata" font-size="24">: &quot;P&quot;,</tspan> <tspan x="-198.9" y="41.176" fill="#D33907" font-family="Inconsolata" font-size="24"> </tspan> <tspan x="-174.9" y="41.176" fill="#173182" font-family="Inconsolata" font-size="24">groups</tspan> <tspan x="-102.899" y="41.176" fill="#2A86C0" font-family="Inconsolata" font-size="24">: [ &quot;food&quot;, &quot;news&quot; ]</tspan> <tspan x="-198.9" y="67.176" fill="#5CA831" font-family="Inconsolata" font-size="24">}</tspan></text></g><text transform="matrix(1, 0, 0, 1, 300, 276.857)"><tspan x="-60.488" y="9.342" fill="#173182" font-family="GillSans" font-size="28">Collection</tspan></text><g><g><path fill="#FFF" d="M154.5,71.5 L586.901,71.5 L586.901,255.655 L154.5,255.655 z"/><path fill-opacity="0" stroke="#5CA831" stroke-width="2" d="M154.5,71.5 L586.901,71.5 L586.901,255.655 L154.5,255.655 z"/></g><text transform="matrix(1, 0, 0, 1, 376.768, 167.107)"><tspan x="-198.9" y="-62.824" fill="#5CA831" font-family="Inconsolata" font-size="24">{</tspan> <tspan x="-186.9" y="-62.824" fill="#2A86C0" font-family="Inconsolata" font-size="24"> </tspan> <tspan x="-198.9" y="-36.824" fill="#D33907" font-family="Inconsolata" font-size="24"> </tspan> <tspan x="-174.9" y="-36.824" fill="#173182" font-family="Inconsolata" font-size="24">name</tspan> <tspan x="-126.899" y="-36.824" fill="#2A86C0" font-family="Inconsolata" font-size="24">: &quot;al&quot;, </tspan> <tspan x="-198.9" y="-10.824" fill="#D33907" font-family="Inconsolata" font-size="24"> </tspan> <tspan x="-174.9" y="-10.824" fill="#173182" font-family="Inconsolata" font-size="24">age</tspan> <tspan x="-138.9" y="-10.824" fill="#2A86C0" font-family="Inconsolata" font-size="24">: 18,</tspan> <tspan x="-198.9" y="15.176" fill="#D33907" font-family="Inconsolata" font-size="24"> </tspan> <tspan x="-174.9" y="15.176" fill="#173182" font-family="Inconsolata" font-size="24">status</tspan> <tspan x="-102.899" y="15.176" fill="#2A86C0" font-family="Inconsolata" font-size="24">: &quot;D&quot;,</tspan> <tspan x="-198.9" y="41.176" fill="#D33907" font-family="Inconsolata" font-size="24"> </tspan> <tspan x="-174.9" y="41.176" fill="#173182" font-family="Inconsolata" font-size="24">groups</tspan> <tspan x="-102.899" y="41.176" fill="#2A86C0" font-family="Inconsolata" font-size="24">: [ &quot;politics&quot;, &quot;news&quot; ]</tspan> <tspan x="-198.9" y="67.176" fill="#5CA831" font-family="Inconsolata" font-size="24">}</tspan></text></g></g></svg>