<svg xmlns="http://www.w3.org/2000/svg" xmlns:xlink="http://www.w3.org/1999/xlink" width="640" height="70" x="0" y="0" version="1.1" viewBox="0 0 640 70"><g id="Layer_1"><g><text transform="matrix(1, 0, 0, 1, 71.5, 17.5)"><tspan x="-66.5" y="7.5" fill="#06345E" font-family="Inconsolata" font-size="24">DELETE FROM</tspan></text><text transform="matrix(1, 0, 0, 1, 176.5, 17.5)"><tspan x="-30.5" y="7.5" fill="#2A86C0" font-family="Inconsolata" font-size="24">users</tspan></text><text transform="matrix(1, 0, 0, 1, 35.5, 47.5)"><tspan x="-30.5" y="7.5" fill="#053056" font-family="Inconsolata" font-size="24">WHERE</tspan></text><text transform="matrix(1, 0, 0, 1, 248.5, 47.5)"><tspan x="-102.5" y="7.5" fill="#2A86C0" font-family="Inconsolata" font-size="24">status = &apos;reject&apos;</tspan></text></g><g><g><path fill-opacity="0" stroke="#5CA831" stroke-width="2" d="M475,20 L358,19.8"/><g><path fill="#5CA831" d="M367,12.5 L357,19.908 L366.965,27.5 z"/><path fill-opacity="0" stroke="#5CA831" stroke-width="2" d="M367,12.5 L357,19.908 L366.965,27.5 z"/></g></g><text transform="matrix(1, 0, 0, 1, 509, 17.129)"><tspan x="-23.996" y="7.5" fill="#2A86C0" font-family="GillSans" font-size="24">table</tspan></text></g><g><text transform="matrix(1, 0, 0, 1, 541.953, 47.893)"><tspan x="-56.949" y="7.5" fill="#2A86C0" font-family="GillSans" font-size="24">delete filter</tspan></text><g><path fill-opacity="0" stroke="#5CA831" stroke-width="2" d="M473.5,49.75 L356.5,49.55"/><g><path fill="#5CA831" d="M367.5,42.25 L357.5,49.658 L367.465,57.25 z"/><path fill-opacity="0" stroke="#5CA831" stroke-width="2" d="M367.5,42.25 L357.5,49.658 L367.465,57.25 z"/></g></g></g></g></svg>