<svg xmlns="http://www.w3.org/2000/svg" xmlns:xlink="http://www.w3.org/1999/xlink" width="600" height="150" x="0" y="0" version="1.1" viewBox="0 0 600 150"><g id="Layer 1"><text transform="matrix(1, 0, 0, 1, 187.146, 76.328)"><tspan x="-179.396" y="-47.672" fill="#004571" font-family="Inconsolata" font-size="24">db.</tspan> <tspan x="-143.396" y="-47.672" fill="#3299CC" font-family="Inconsolata" font-size="24">users</tspan> <tspan x="-83.396" y="-47.672" fill="#004571" font-family="Inconsolata" font-size="24">.update(</tspan> <tspan x="-179.396" y="-21.672" fill="#DD4F01" font-family="Inconsolata" font-size="24"> </tspan> <tspan x="-143.396" y="-21.672" fill="#3299CC" font-family="Inconsolata" font-size="24">{ age: { $gt: 18 } }, </tspan> <tspan x="-179.396" y="4.328" fill="#DD4F01" font-family="Inconsolata" font-size="24"> </tspan> <tspan x="-143.396" y="4.328" fill="#48A3D1" font-family="Inconsolata" font-size="24">{</tspan> <tspan x="-131.396" y="4.328" fill="#DD4F01" font-family="Inconsolata" font-size="24"> </tspan> <tspan x="-119.396" y="4.328" fill="#3299CC" font-family="Inconsolata" font-size="24">$set: { status: &quot;A&quot; } }, </tspan> <tspan x="-179.396" y="30.328" fill="#DE4F01" font-family="Inconsolata" font-size="24"> </tspan> <tspan x="-143.396" y="30.328" fill="#48A3D1" font-family="Inconsolata" font-size="24">{</tspan> <tspan x="-131.396" y="30.328" fill="#DE4F01" font-family="Inconsolata" font-size="24"> </tspan> <tspan x="-119.396" y="30.328" fill="#3299CC" font-family="Inconsolata" font-size="24">multi: true }</tspan> <tspan x="-179.396" y="56.328" fill="#004069" font-family="Inconsolata" font-size="24">)</tspan></text><g><g><path fill-opacity="0" stroke="#6CB340" stroke-width="2" d="M421.77,24.547 L378.843,24.348"/><path fill="#6CB340" fill-opacity="1" stroke="#6CB340" stroke-opacity="1" stroke-width="2" d="M378.86,20.748 L369.243,24.303 L378.826,27.948 z"/></g><text transform="matrix(1, 0, 0, 1, 485.711, 22.156)"><tspan x="-49.957" y="7.5" fill="#3299CC" font-family="GillSans" font-size="24">collection</tspan></text></g><g><g><path fill-opacity="0" stroke="#6CB340" stroke-width="2" d="M421.77,48.547 L378.843,48.348"/><path fill="#6CB340" fill-opacity="1" stroke="#6CB340" stroke-opacity="1" stroke-width="2" d="M378.86,44.748 L369.243,48.303 L378.826,51.948 z"/></g><text transform="matrix(1, 0, 0, 1, 515.484, 49.006)"><tspan x="-79.73" y="6.414" fill="#3299CC" font-family="GillSans" font-size="24">update criteria</tspan></text></g><g><g><path fill-opacity="0" stroke="#6CB340" stroke-width="2" d="M421.77,75.547 L378.843,75.348"/><path fill="#6CB340" fill-opacity="1" stroke="#6CB340" stroke-opacity="1" stroke-width="2" d="M378.86,71.748 L369.243,75.303 L378.826,78.948 z"/></g><text transform="matrix(1, 0, 0, 1, 515.484, 74.633)"><tspan x="-79.73" y="7.5" fill="#3299CC" font-family="GillSans" font-size="24">update action</tspan></text></g><g><g><path fill-opacity="0" stroke="#6CB340" stroke-width="2" d="M421.77,100.547 L378.843,100.348"/><path fill="#6CB340" fill-opacity="1" stroke="#6CB340" stroke-opacity="1" stroke-width="2" d="M378.86,96.748 L369.243,100.303 L378.826,103.948 z"/></g><text transform="matrix(1, 0, 0, 1, 515.484, 99.92)"><tspan x="-79.73" y="7.5" fill="#3299CC" font-family="GillSans" font-size="24">update option</tspan></text></g></g></svg>