<svg xmlns="http://www.w3.org/2000/svg" xmlns:xlink="http://www.w3.org/1999/xlink" width="740" height="450" x="0" y="0" version="1.1" viewBox="0 0 740 450"><g id="Layer 1"><g><text transform="matrix(1, 0, 0, 1, 159.352, 225.777)"><tspan x="-141.576" y="-33.695" fill="#1C4394" font-family="Inconsolata" font-size="24">{</tspan> <tspan x="-129.576" y="-33.695" fill="#3299CC" font-family="Inconsolata" font-size="24"> </tspan> <tspan x="-141.576" y="-7.695" fill="#DE4F01" font-family="Inconsolata" font-size="24"> </tspan> <tspan x="-117.576" y="-7.695" fill="#1D4494" font-family="Inconsolata" font-size="24">_id: &lt;ObjectId1&gt;,</tspan> <tspan x="-141.576" y="18.305" fill="#3299CC" font-family="Inconsolata" font-size="24"> </tspan> <tspan x="-117.576" y="18.305" fill="#1D4494" font-family="Inconsolata" font-size="24">username</tspan> <tspan x="-21.576" y="18.305" fill="#1A4394" font-family="Inconsolata" font-size="24">: &quot;123xyz&quot;</tspan> <tspan x="-141.576" y="44.305" fill="#1A4394" font-family="Inconsolata" font-size="24">}</tspan></text><path fill-opacity="0" stroke="#1B4394" stroke-width="1" d="M9.213,165.73 L303.906,165.73 L303.906,286.234 L9.213,286.234 z"/></g><text transform="matrix(1, 0, 0, 1, 560.359, 123.395)"><tspan x="-159.402" y="-57.5" fill="#1C4394" font-family="Inconsolata" font-size="24">{</tspan> <tspan x="-147.402" y="-57.5" fill="#3299CC" font-family="Inconsolata" font-size="24"> </tspan> <tspan x="-159.402" y="-31.5" fill="#DE4F01" font-family="Inconsolata" font-size="24"> </tspan> <tspan x="-159.402" y="72.5" fill="#1A4394" font-family="Inconsolata" font-size="24">}</tspan></text><path fill-opacity="0" stroke="#1B4394" stroke-width="1" d="M391.283,41.547 L730.266,41.547 L730.266,208.707 L391.283,208.707 z"/><text transform="matrix(1, 0, 0, 1, 118.826, 148.219)"><tspan x="-102.256" y="6.488" fill="#1C4494" font-family="Inconsolata" font-size="21">user </tspan> <tspan x="-49.756" y="6.488" fill="#1C4494" font-family="GillSans" font-size="21">document</tspan></text><text transform="matrix(1, 0, 0, 1, 491.906, 25.703)"><tspan x="-91.895" y="6.5" fill="#1C4494" font-family="Inconsolata" font-size="21">contact</tspan> <tspan x="-18.395" y="6.5" fill="#1C4494" font-family="Inconsolata" font-size="21"> </tspan> <tspan x="-7.895" y="6.5" fill="#1C4494" font-family="GillSans" font-size="21">document</tspan></text><text transform="matrix(1, 0, 0, 1, 550.582, 339.822)"><tspan x="-148.199" y="-62.373" fill="#1C4394" font-family="Inconsolata" font-size="24">{</tspan> <tspan x="-136.199" y="-62.373" fill="#3299CC" font-family="Inconsolata" font-size="24"> </tspan> <tspan x="-148.199" y="67.627" fill="#1A4394" font-family="Inconsolata" font-size="24">}</tspan></text><path fill-opacity="0" stroke="#1B4394" stroke-width="1" d="M392.709,257.102 L730.648,257.102 L730.648,424.262 L392.709,424.262 z"/><text transform="matrix(1, 0, 0, 1, 493.332, 241.258)"><tspan x="-91.895" y="6.5" fill="#1C4494" font-family="Inconsolata" font-size="21">access</tspan> <tspan x="-28.895" y="6.5" fill="#1C4494" font-family="Inconsolata" font-size="21"> </tspan> <tspan x="-18.395" y="6.5" fill="#1C4494" font-family="GillSans" font-size="21">document</tspan></text><g><path fill-opacity="0" stroke="#6CB33F" stroke-width="2" d="M260.909,199.276 L412.091,118.558"/><path fill="#6CB33F" fill-opacity="1" stroke="#6CB33F" stroke-opacity="1" stroke-width="2" d="M259.214,196.1 L252.441,203.797 L262.605,202.451 z"/><path fill="#6CB33F" fill-opacity="1" stroke="#6CB33F" stroke-opacity="1" stroke-width="2" d="M413.786,121.733 L420.559,114.036 L410.395,115.382 z"/></g><g><path fill-opacity="0" stroke="#6CB33F" stroke-width="2" d="M260.617,223.907 L411.383,314.426"/><path fill="#6CB33F" fill-opacity="1" stroke="#6CB33F" stroke-opacity="1" stroke-width="2" d="M262.47,220.821 L252.386,218.966 L258.764,226.994 z"/><path fill="#6CB33F" fill-opacity="1" stroke="#6CB33F" stroke-opacity="1" stroke-width="2" d="M409.53,317.512 L419.614,319.368 L413.236,311.34 z"/></g><text transform="matrix(1, 0, 0, 1, 570.898, 120.59)"><tspan x="-146.344" y="-31.5" fill="#1D4494" font-family="Inconsolata" font-size="24">_id: &lt;ObjectId2&gt;,</tspan> <tspan x="-146.344" y="-5.5" fill="#1C4294" font-family="Inconsolata" font-size="24">user</tspan> <tspan x="-98.344" y="-5.5" fill="#1D4494" font-family="Inconsolata" font-size="24">_id: &lt;ObjectId1&gt;,</tspan> <tspan x="-146.344" y="20.5" fill="#1C4394" font-family="Inconsolata" font-size="24">phone: &quot;123-456-7890&quot;,</tspan> <tspan x="-146.344" y="46.5" fill="#1C4394" font-family="Inconsolata" font-size="24">email: &quot;xyz@example.com&quot;</tspan></text><text transform="matrix(1, 0, 0, 1, 558.207, 333.227)"><tspan x="-132.332" y="-31.5" fill="#1D4494" font-family="Inconsolata" font-size="24">_id: &lt;ObjectId3&gt;,</tspan> <tspan x="-132.332" y="-5.5" fill="#1C4294" font-family="Inconsolata" font-size="24">user</tspan> <tspan x="-84.332" y="-5.5" fill="#1D4494" font-family="Inconsolata" font-size="24">_id: &lt;ObjectId1&gt;,</tspan> <tspan x="-132.332" y="20.5" fill="#1C4394" font-family="Inconsolata" font-size="24">level: 5,</tspan> <tspan x="-132.332" y="46.5" fill="#1C4394" font-family="Inconsolata" font-size="24">group: &quot;dev&quot;</tspan></text><path fill="#6BB33E" d="M423.805,96.738 L678,96.738 L678,123 L423.805,123 z" opacity=".38"/><path fill="#6BB33E" d="M426.855,307.129 L681.051,307.129 L681.051,333.391 L426.855,333.391 z" opacity=".38"/></g></svg>