<svg xmlns="http://www.w3.org/2000/svg" xmlns:xlink="http://www.w3.org/1999/xlink" width="440" height="540" x="0" y="0" version="1.1" viewBox="0 0 440 540"><g id="Layer 1"><g><text transform="matrix(1, 0, 0, 1, 204.793, 48.539)"><tspan x="-185.621" y="2.461" fill="#13206F" font-family="Inconsolata" font-size="18">db.orders.distinct( &quot;cust_id&quot; )</tspan></text><text transform="matrix(1, 0, 0, 1, 81.801, 16.277)"><tspan x="-35" y="4.5" fill="#2A86C0" font-family="Inconsolata" font-size="14">Collection</tspan></text><text transform="matrix(1, 0, 0, 1, 91.801, 523.695)"><tspan x="-27" y="5.5" fill="#13206F" font-family="Inconsolata" font-size="18">orders</tspan></text><g><path fill-opacity="0" stroke="#358EC4" stroke-width="4" d="M197.754,296.445 L279.862,296.445"/><path fill="#358EC4" fill-opacity="1" stroke="#358EC4" stroke-opacity="1" stroke-width="4" d="M279.862,301.245 L292.662,296.445 L279.862,291.645 z"/></g><text transform="matrix(1, 0, 0, 1, 239.025, 306.297)"><tspan x="-38.537" y="5.5" fill="#2A86C0" font-family="Inconsolata" font-size="18">distinct</tspan></text><path fill-opacity="0" stroke="#13206F" stroke-width="1" d="M11.676,82.945 L183.916,82.945 L183.916,509.945 L11.676,509.945 z"/><text transform="matrix(1, 0, 0, 1, 93.801, 133.945)"><tspan x="-66.5" y="-28.5" fill="#25337C" font-family="Inconsolata" font-size="14">{ </tspan> <tspan x="-66.5" y="-12.5" fill="#13206F" font-family="GillSansMT" font-size="14"> </tspan> <tspan x="-50.941" y="-12.5" fill="#13206F" font-family="Inconsolata" font-size="14">cust_id: &quot;A123&quot;,</tspan> <tspan x="-66.5" y="4.5" fill="#13206F" font-family="GillSansMT" font-size="14"> </tspan> <tspan x="-50.941" y="4.5" fill="#13206F" font-family="Inconsolata" font-size="14">amount: 500,</tspan> <tspan x="-66.5" y="21.5" fill="#13206F" font-family="GillSansMT" font-size="14"> </tspan> <tspan x="-50.941" y="21.5" fill="#13206F" font-family="Inconsolata" font-size="14">status: &quot;A&quot;</tspan> <tspan x="-66.5" y="37.5" fill="#25337C" font-family="Inconsolata" font-size="14">}</tspan></text><path fill-opacity="0" stroke="#25337C" stroke-width="1" d="M11.676,189.77 L184.176,189.793"/><text transform="matrix(1, 0, 0, 1, 93.801, 241.081)"><tspan x="-66.5" y="-28.5" fill="#25337C" font-family="Inconsolata" font-size="14">{ </tspan> <tspan x="-66.5" y="-12.5" fill="#13206F" font-family="GillSansMT" font-size="14"> </tspan> <tspan x="-50.941" y="-12.5" fill="#13206F" font-family="Inconsolata" font-size="14">cust_id: &quot;A123&quot;,</tspan> <tspan x="-66.5" y="4.5" fill="#13206F" font-family="GillSansMT" font-size="14"> </tspan> <tspan x="-50.941" y="4.5" fill="#13206F" font-family="Inconsolata" font-size="14">amount: 250,</tspan> <tspan x="-66.5" y="21.5" fill="#13206F" font-family="GillSansMT" font-size="14"> </tspan> <tspan x="-50.941" y="21.5" fill="#13206F" font-family="Inconsolata" font-size="14">status: &quot;A&quot;</tspan> <tspan x="-66.5" y="37.5" fill="#25337C" font-family="Inconsolata" font-size="14">}</tspan></text><path fill-opacity="0" stroke="#25337C" stroke-width="1" d="M11.676,295.68 L184.176,295.703"/><text transform="matrix(1, 0, 0, 1, 93.801, 346.945)"><tspan x="-66.5" y="-28.5" fill="#25337C" font-family="Inconsolata" font-size="14">{ </tspan> <tspan x="-66.5" y="-12.5" fill="#13206F" font-family="GillSansMT" font-size="14"> </tspan> <tspan x="-50.941" y="-12.5" fill="#13206F" font-family="Inconsolata" font-size="14">cust_id: &quot;B212&quot;,</tspan> <tspan x="-66.5" y="4.5" fill="#13206F" font-family="GillSansMT" font-size="14"> </tspan> <tspan x="-50.941" y="4.5" fill="#13206F" font-family="Inconsolata" font-size="14">amount: 200,</tspan> <tspan x="-66.5" y="21.5" fill="#13206F" font-family="GillSansMT" font-size="14"> </tspan> <tspan x="-50.941" y="21.5" fill="#13206F" font-family="Inconsolata" font-size="14">status: &quot;A&quot;</tspan> <tspan x="-66.5" y="37.5" fill="#25337C" font-family="Inconsolata" font-size="14">}</tspan></text><path fill-opacity="0" stroke="#25337C" stroke-width="1" d="M11.504,402.312 L184.004,402.336"/><text transform="matrix(1, 0, 0, 1, 93.801, 454.75)"><tspan x="-66.5" y="-28.5" fill="#25337C" font-family="Inconsolata" font-size="14">{ </tspan> <tspan x="-66.5" y="-12.5" fill="#13206F" font-family="GillSansMT" font-size="14"> </tspan> <tspan x="-50.941" y="-12.5" fill="#13206F" font-family="Inconsolata" font-size="14">cust_id: &quot;A123&quot;,</tspan> <tspan x="-66.5" y="4.5" fill="#13206F" font-family="GillSansMT" font-size="14"> </tspan> <tspan x="-50.941" y="4.5" fill="#13206F" font-family="Inconsolata" font-size="14">amount: 300,</tspan> <tspan x="-66.5" y="21.5" fill="#13206F" font-family="GillSansMT" font-size="14"> </tspan> <tspan x="-50.941" y="21.5" fill="#13206F" font-family="Inconsolata" font-size="14">status: &quot;D&quot;</tspan> <tspan x="-66.5" y="37.5" fill="#25337C" font-family="Inconsolata" font-size="14">}</tspan></text><text transform="matrix(1, 0, 0, 1, 373.701, 299.225)"><tspan x="-66.5" y="1.945" fill="#25337C" font-family="Inconsolata" font-size="14">[ </tspan> <tspan x="-52.5" y="1.945" fill="#13206F" font-family="Inconsolata" font-size="14">&quot;A123&quot;, &quot;B212&quot; ]</tspan></text><g><path fill-opacity="0" stroke="#358EC4" stroke-width="1" d="M78.879,22.277 L78.879,28.277"/><path fill="#358EC4" fill-opacity="1" stroke="#358EC4" stroke-opacity="1" stroke-width="1" d="M75.879,28.277 L78.879,36.277 L81.879,28.277 z"/></g></g></g></svg>