<svg xmlns="http://www.w3.org/2000/svg" xmlns:xlink="http://www.w3.org/1999/xlink" width="910" height="260" x="0" y="0" version="1.1" viewBox="0 0 910 260"><g id="Layer 1"><path fill="#1F66AF" d="M32.405,183.596 L692.405,183.596 L692.405,203.254 L32.405,203.254 z"/><path fill-opacity="0" stroke="#B0C8DB" stroke-dasharray="2 2" stroke-width="1" d="M32.905,179.845 L32.905,217.004"/><path fill-opacity="0" stroke="#B0C8DB" stroke-dasharray="2 2" stroke-width="1" d="M162.04,179.845 L162.04,217.004"/><path fill-opacity="0" stroke="#B0C8DB" stroke-dasharray="2 2" stroke-width="1" d="M277.237,179.845 L277.237,217.004"/><path fill-opacity="0" stroke="#B0C8DB" stroke-dasharray="2 2" stroke-width="1" d="M442.413,179.845 L442.413,217.004"/><path fill-opacity="0" stroke="#B0C8DB" stroke-dasharray="2 2" stroke-width="1" d="M630.841,179.845 L630.841,217.004"/><path fill-opacity="0" stroke="#B0C8DB" stroke-dasharray="2 2" stroke-width="1" d="M692.905,179.845 L692.905,217.004"/><text transform="matrix(1, 0, 0, 1, 35.405, 232.824)"><tspan x="-15.75" y="2.734" fill="#CD5A2B" font-family="Inconsolata" font-size="21">min</tspan></text><text transform="matrix(1, -0.018, 0.018, 1, 160.524, 230.077)"><tspan x="-10.5" y="5.5" fill="#CD5A2B" font-family="Inconsolata" font-size="21">18</tspan></text><text transform="matrix(1, 0, 0, 1, 276.604, 230.058)"><tspan x="-10.5" y="5.5" fill="#CD5A2B" font-family="Inconsolata" font-size="21">30</tspan></text><text transform="matrix(1, 0, 0, 1, 441.06, 230.058)"><tspan x="-10.5" y="5.5" fill="#CD5A2B" font-family="Inconsolata" font-size="21">45</tspan></text><text transform="matrix(1, 0, 0, 1, 630.112, 230.058)"><tspan x="-10.5" y="5.5" fill="#CD5A2B" font-family="Inconsolata" font-size="21">75</tspan></text><text transform="matrix(1, 0, 0, 1, 689.238, 229.696)"><tspan x="-15.75" y="4.808" fill="#CD5A2B" font-family="Inconsolata" font-size="21">max</tspan></text><path fill="#2476C0" d="M32.788,176.022 L276.734,176.022 L276.734,210.827 L32.788,210.827 z" opacity=".48"/><text transform="matrix(1, 0, 0, 1, 391.684, 75.941)"><tspan x="-385.348" y="7.5" fill="#133A80" font-family="Inconsolata" font-size="24">db.users.find( { score: { &quot;$lt&quot;: </tspan> <tspan x="10.652" y="7.5" fill="#CD5A2B" font-family="Inconsolata" font-size="24">30 </tspan> <tspan x="46.652" y="7.5" fill="#133A80" font-family="Inconsolata" font-size="24">} }, { score: 1, _id: 0 } )</tspan></text><text transform="matrix(1, 0, 0, 1, 97.755, 24.293)"><tspan x="-50.631" y="7.5" fill="#468BBE" font-family="GillSans" font-size="24">Collection</tspan></text><g><path fill-opacity="0" stroke="#468BBE" stroke-width="1" d="M91.265,39.293 L91.265,54.941"/><path fill="#468BBE" fill-opacity="1" stroke="#468BBE" stroke-opacity="1" stroke-width="1" d="M88.265,54.941 L91.265,62.941 L94.265,54.941 z"/></g><text transform="matrix(1, 0, 0, 1, 338.21, 24.293)"><tspan x="-73.453" y="7.5" fill="#468BBE" font-family="GillSans" font-size="24">Query Criteria</tspan></text><path fill="#2476C0" d="M208.62,60.598 L494.62,60.598 L494.62,100.043 L208.62,100.043 z" opacity=".3"/><g><path fill-opacity="0" stroke="#468BBE" stroke-width="1" d="M345.312,38.77 L345.312,54.418"/><path fill="#468BBE" fill-opacity="1" stroke="#468BBE" stroke-opacity="1" stroke-width="1" d="M342.312,54.418 L345.312,62.418 L348.312,54.418 z"/></g><path fill-opacity="0" stroke="#96BEE1" stroke-width="1" d="M33.288,176.938 L209.12,100.543"/><path fill-opacity="0" stroke="#96BEE1" stroke-width="1" d="M277.234,176.938 L490.121,100.543"/><text transform="matrix(1, 0, 0, 1, 808.202, 193.845)"><tspan x="-93.798" y="4.5" fill="#123A80" font-family="Inconsolata" font-size="21">{ </tspan> <tspan x="-72.798" y="4.5" fill="#CD5A2B" font-family="Inconsolata" font-size="21">score</tspan> <tspan x="-20.298" y="4.5" fill="#123A80" font-family="Inconsolata" font-size="21">: 1 } </tspan> <tspan x="42.702" y="4.5" fill="#123A80" font-family="GillSans" font-size="21">Index</tspan></text><text transform="matrix(1, 0, 0, 1, 620.952, 24.816)"><tspan x="-50.074" y="7.5" fill="#468BBE" font-family="GillSans" font-size="24">Projection</tspan></text><g><path fill-opacity="0" stroke="#468BBE" stroke-width="1" d="M621.452,39.293 L621.452,54.941"/><path fill="#468BBE" fill-opacity="1" stroke="#468BBE" stroke-opacity="1" stroke-width="1" d="M618.452,54.941 L621.452,62.941 L624.452,54.941 z"/></g></g></svg>