<svg xmlns="http://www.w3.org/2000/svg" xmlns:xlink="http://www.w3.org/1999/xlink" width="720" height="220" x="0" y="0" version="1.1" viewBox="0 0 720 220"><g id="Layer 1"><g><path fill="#FFF" d="M35.218,26.411 L98.272,26.411 L98.272,106.187 L35.218,106.187 z"/><path fill-opacity="0" stroke="#0176C0" stroke-width=".929" d="M35.218,26.411 L98.272,26.411 L98.272,106.187 L35.218,106.187 z"/></g><g><path fill="#FFF" d="M25.533,34.084 L90.344,34.084 L90.344,111.988 L25.533,111.988 z"/><path fill-opacity="0" stroke="#0176C0" stroke-width=".929" d="M25.533,34.084 L90.344,34.084 L90.344,111.988 L25.533,111.988 z"/></g><path fill="#0C60B2" d="M28.091,146.982 L688.38,146.982 L688.38,166.177 L28.091,166.177 z"/><path fill-opacity="0" stroke="#AFD1E8" stroke-dasharray="3 1.5" stroke-width="1.5" d="M160.155,143.14 L160.155,182.874"/><path fill-opacity="0" stroke="#AFD1E8" stroke-dasharray="3 1.5" stroke-width="1.5" d="M274.649,143.14 L274.649,182.874"/><path fill-opacity="0" stroke="#AFD1E8" stroke-dasharray="3 1.5" stroke-width="1.5" d="M438.274,143.14 L438.274,182.874"/><text transform="matrix(1, 0, 0, 1, 159.511, 191.688)"><tspan x="-7" y="3.991" fill="#0C60B2" font-family="GillSans" font-size="14">18</tspan></text><text transform="matrix(1, 0, 0, 1, 273.989, 191.028)"><tspan x="-7" y="4.55" fill="#0C60B2" font-family="GillSans" font-size="14">25</tspan></text><text transform="matrix(1, 0, 0, 1, 27.088, 194.318)"><tspan x="-10.432" y="1.598" fill="#0C60B2" font-family="GillSans" font-size="14">min</tspan></text><text transform="matrix(1, 0, 0, 1, 437.274, 191.072)"><tspan x="-7" y="4.5" fill="#0C60B2" font-family="GillSans" font-size="14">45</tspan></text><text transform="matrix(1, 0, 0, 1, 686.675, 190.924)"><tspan x="-11.884" y="4.174" fill="#0C60B2" font-family="GillSans" font-size="14">max</tspan></text><path fill-opacity="0" stroke="#AFD1E8" stroke-dasharray="3 1.5" stroke-width="1.5" d="M29.454,143.007 L29.454,182.874"/><path fill-opacity="0" stroke="#AFD1E8" stroke-dasharray="3 1.5" stroke-width="1.5" d="M689.223,144.51 L689.223,182.874"/><path fill-opacity="0" stroke="#AFD1E8" stroke-dasharray="3 1.5" stroke-width="1.5" d="M633.814,143.14 L633.814,182.874"/><text transform="matrix(1, 0, 0, 1, 632.815, 191.25)"><tspan x="-7" y="4.5" fill="#0C60B2" font-family="GillSans" font-size="14">75</tspan></text><text transform="matrix(1, 0, 0, 1, 360, 122.787)"><tspan x="-76.928" y="5.74" fill="#013494" font-family="GillSans" font-size="24">Index on </tspan> <tspan x="15.381" y="5.74" fill="#DE4E01" font-family="GillSans" font-size="24">score</tspan></text><text transform="matrix(1, 0, 0, 1, 54.058, 16.336)"><tspan x="-36.665" y="6" fill="#0176C0" font-family="GillSans" font-size="18">collection</tspan></text><g><path fill="#FFF" d="M16.653,42.728 L81.464,42.728 L81.464,120.632 L16.653,120.632 z"/><path fill-opacity="0" stroke="#0176C0" stroke-width=".929" d="M16.653,42.728 L81.464,42.728 L81.464,120.632 L16.653,120.632 z"/></g><text transform="matrix(1, 0, 0, 1, 48.38, 80.63)"><tspan x="-27.631" y="-17.5" fill="#0176C0" font-family="GillSans" font-size="12">{ </tspan> <tspan x="-27.631" y="-3.5" fill="#0176C0" font-family="GillSans" font-size="12"> </tspan> <tspan x="-20.963" y="-3.5" fill="#DE4F01" font-family="GillSans" font-size="12">score</tspan> <tspan x="5.791" y="-3.5" fill="#0176C0" font-family="GillSans" font-size="12">: 30, </tspan> <tspan x="-27.631" y="10.5" fill="#0176C0" font-family="GillSans" font-size="12"> ...</tspan> <tspan x="-27.631" y="24.5" fill="#0176C0" font-family="GillSans" font-size="12">}</tspan></text></g></svg>