<svg xmlns="http://www.w3.org/2000/svg" xmlns:xlink="http://www.w3.org/1999/xlink" width="720" height="250" x="0" y="0" version="1.1" viewBox="0 0 720 250"><g id="Layer_1"><g><g><path fill-opacity="0" stroke="#0176C0" stroke-width=".929" d="M636.636,24.355 L699.69,24.355 L699.69,104.132 L636.636,104.132 z"/></g><g><path fill-opacity="0" stroke="#0176C0" stroke-width=".929" d="M626.951,32.028 L691.762,32.028 L691.762,109.932 L626.951,109.932 z"/></g><text transform="matrix(1, 0, 0, 1, 654.854, 14.28)"><tspan x="-36.043" y="6" fill="#0176C0" font-family="GillSans" font-size="18">collection</tspan></text><g><path fill-opacity="0" stroke="#0176C0" stroke-width=".929" d="M618.071,40.672 L682.882,40.672 L682.882,118.576 L618.071,118.576 z"/></g><g><text transform="matrix(1, 0, 0, 1, 624.797, 57.936)"><tspan x="-2.498" y="3.5" fill="#0176C0" font-family="GillSans" font-size="12">{</tspan></text><text transform="matrix(1, 0, 0, 1, 642.844, 71.936)"><tspan x="-13.877" y="3.5" fill="#DE4F01" font-family="GillSans" font-size="12">score</tspan></text><text transform="matrix(1, 0, 0, 1, 656.936, 71.936)"><tspan x="-1.215" y="3.5" fill="#0176C0" font-family="GillSans" font-size="12">:</tspan></text><text transform="matrix(1, 0, 0, 1, 666.985, 71.936)"><tspan x="-6.5" y="3.5" fill="#DE4D01" font-family="GillSans" font-size="12">30</tspan></text><text transform="matrix(1, 0, 0, 1, 673.7, 71.936)"><tspan x="-1.215" y="3.5" fill="#0176C0" font-family="GillSans" font-size="12">,</tspan></text><text transform="matrix(1, 0, 0, 1, 633.413, 85.936)"><tspan x="-4.446" y="3.5" fill="#0176C0" font-family="GillSans" font-size="12">...</tspan></text><text transform="matrix(1, 0, 0, 1, 624.797, 99.936)"><tspan x="-2.498" y="3.5" fill="#0176C0" font-family="GillSans" font-size="12">}</tspan></text></g></g><path fill="#0C60B2" d="M27.974,140.9 L688.263,140.9 L688.263,160.095 L27.974,160.095 z"/><path fill-opacity="0" stroke="#AFD1E8" stroke-dasharray="3 1.5" stroke-width="1.5" d="M160.037,137.058 L160.037,176.792"/><path fill-opacity="0" stroke="#AFD1E8" stroke-dasharray="3 1.5" stroke-width="1.5" d="M274.531,137.058 L274.531,176.792"/><path fill-opacity="0" stroke="#AFD1E8" stroke-dasharray="3 1.5" stroke-width="1.5" d="M438.156,137.058 L438.156,176.792"/><text transform="matrix(1, 0, 0, 1, 159.894, 183.49)"><tspan x="-7.5" y="4.5" fill="#DE4D01" font-family="Inconsolata" font-size="14">18</tspan></text><text transform="matrix(1, 0, 0, 1, 274.372, 183.389)"><tspan x="-7.5" y="4.5" fill="#DE4D01" font-family="Inconsolata" font-size="14">30</tspan></text><text transform="matrix(1, 0, 0, 1, 26.47, 183.728)"><tspan x="-11" y="4.5" fill="#DE4D01" font-family="Inconsolata" font-size="14">min</tspan></text><text transform="matrix(1, 0, 0, 1, 437.657, 183.383)"><tspan x="-7.5" y="4.5" fill="#DE4D01" font-family="Inconsolata" font-size="14">45</tspan></text><text transform="matrix(1, 0, 0, 1, 687.058, 183.516)"><tspan x="-11" y="4.5" fill="#DE4D01" font-family="Inconsolata" font-size="14">max</tspan></text><path fill-opacity="0" stroke="#AFD1E8" stroke-dasharray="3 1.5" stroke-width="1.5" d="M28.337,136.925 L28.337,176.792"/><path fill-opacity="0" stroke="#AFD1E8" stroke-dasharray="3 1.5" stroke-width="1.5" d="M689.105,138.428 L689.105,176.792"/><path fill-opacity="0" stroke="#AFD1E8" stroke-dasharray="3 1.5" stroke-width="1.5" d="M633.697,137.058 L633.697,176.792"/><text transform="matrix(1, 0, 0, 1, 633.198, 184.168)"><tspan x="-7.5" y="4.5" fill="#DE4D01" font-family="Inconsolata" font-size="14">75</tspan></text><g><text transform="matrix(1, 0, 0, 1, 273.993, 228.67)"><tspan x="-5.75" y="6.5" fill="#1D4595" font-family="Inconsolata" font-size="21">{</tspan></text><text transform="matrix(1, 0, 0, 1, 315.993, 228.67)"><tspan x="-26.75" y="6.5" fill="#DE4F4F" font-family="Inconsolata" font-size="21">score</tspan></text><text transform="matrix(1, 0, 0, 1, 368.493, 228.67)"><tspan x="-26.75" y="6.5" fill="#1D4595" font-family="Inconsolata" font-size="21">: 1 }</tspan></text><text transform="matrix(1, 0, 0, 1, 428.75, 228.67)"><tspan x="-24.007" y="6.5" fill="#1D4595" font-family="GillSans" font-size="21">Index</tspan></text></g></g></svg>