<svg xmlns="http://www.w3.org/2000/svg" xmlns:xlink="http://www.w3.org/1999/xlink" width="720" height="260" x="0" y="0" version="1.1" viewBox="0 0 720 260"><g id="Layer 1"><g><path fill="#FFF" d="M630.872,24.908 L693.925,24.908 L693.925,104.685 L630.872,104.685 z"/><path fill-opacity="0" stroke="#0176C0" stroke-width=".929" d="M630.872,24.908 L693.925,24.908 L693.925,104.685 L630.872,104.685 z"/></g><g><path fill="#FFF" d="M621.187,32.581 L685.997,32.581 L685.997,110.486 L621.187,110.486 z"/><path fill-opacity="0" stroke="#0176C0" stroke-width=".929" d="M621.187,32.581 L685.997,32.581 L685.997,110.486 L621.187,110.486 z"/></g><text transform="matrix(1, 0, 0, 1, 649.711, 14.833)"><tspan x="-36.665" y="6" fill="#0176C0" font-family="GillSans" font-size="18">collection</tspan></text><g><path fill="#FFF" d="M612.307,41.225 L677.117,41.225 L677.117,119.13 L612.307,119.13 z"/><path fill-opacity="0" stroke="#0176C0" stroke-width=".929" d="M612.307,41.225 L677.117,41.225 L677.117,119.13 L612.307,119.13 z"/></g><text transform="matrix(1, 0, 0, 1, 644.165, 80.119)"><tspan x="-27.631" y="-26.085" fill="#0176C0" font-family="GillSans" font-size="12">{ </tspan> <tspan x="-27.631" y="-12.085" fill="#0176C0" font-family="GillSans" font-size="12"> </tspan> <tspan x="-20.963" y="-12.085" fill="#DE4F01" font-family="GillSans" font-size="12">score</tspan> <tspan x="5.791" y="-12.085" fill="#0176C0" font-family="GillSans" font-size="12">: </tspan> <tspan x="10.555" y="-12.085" fill="#E04D01" font-family="GillSans" font-size="12">30</tspan> <tspan x="22.555" y="-12.085" fill="#0176C0" font-family="GillSans" font-size="12">, </tspan> <tspan x="-27.631" y="1.915" fill="#0176C0" font-family="GillSans" font-size="12"> </tspan> <tspan x="-20.963" y="1.915" fill="#0176C0" font-family="GillSans" font-size="12">userid: ...,</tspan> <tspan x="-27.631" y="15.915" fill="#0176C0" font-family="GillSans" font-size="12"> </tspan> <tspan x="-20.963" y="15.915" fill="#0176C0" font-family="GillSans" font-size="12">...</tspan> <tspan x="-27.631" y="29.915" fill="#0176C0" font-family="GillSans" font-size="12">}</tspan></text><path fill="#0C60B2" d="M28.514,140.891 L688.803,140.891 L688.803,160.086 L28.514,160.086 z"/><path fill-opacity="0" stroke="#AFD1E8" stroke-dasharray="3 1.5" stroke-width="1.5" d="M95.578,137.049 L95.578,176.783"/><path fill-opacity="0" stroke="#AFD1E8" stroke-dasharray="3 1.5" stroke-width="1.5" d="M240.072,137.049 L240.072,176.783"/><path fill-opacity="0" stroke="#AFD1E8" stroke-dasharray="3 1.5" stroke-width="1.5" d="M438.697,137.049 L438.697,176.783"/><text transform="matrix(1, 0, 0, 1, 93.216, 191.495)"><tspan x="-21" y="-4.5" fill="#0C60B2" font-family="Inconsolata" font-size="14">&quot;aa1&quot;, </tspan> <tspan x="-7" y="11.5" fill="#DE4C01" font-family="Inconsolata" font-size="14">45</tspan></text><text transform="matrix(1, 0, 0, 1, 239.469, 192.508)"><tspan x="-21" y="-4.5" fill="#0C60B2" font-family="Inconsolata" font-size="14">&quot;ca2&quot;, </tspan> <tspan x="-7" y="10.5" fill="#DE4D01" font-family="Inconsolata" font-size="14">75</tspan></text><text transform="matrix(1, 0, 0, 1, 28.063, 184.508)"><tspan x="-10.5" y="3.5" fill="#0C60B2" font-family="Inconsolata" font-size="14">min</tspan></text><text transform="matrix(1, 0, 0, 1, 435.379, 192.508)"><tspan x="-21" y="-4.5" fill="#0C60B2" font-family="Inconsolata" font-size="14">&quot;nb1&quot;, </tspan> <tspan x="-7" y="10.5" fill="#E04D01" font-family="Inconsolata" font-size="14">30</tspan></text><text transform="matrix(1, 0, 0, 1, 687.098, 184.834)"><tspan x="-10.5" y="3.174" fill="#0C60B2" font-family="Inconsolata" font-size="14">max</tspan></text><path fill-opacity="0" stroke="#AFD1E8" stroke-dasharray="3 1.5" stroke-width="1.5" d="M29.877,136.916 L29.877,176.783"/><path fill-opacity="0" stroke="#AFD1E8" stroke-dasharray="3 1.5" stroke-width="1.5" d="M689.646,138.419 L689.646,176.783"/><path fill-opacity="0" stroke="#AFD1E8" stroke-dasharray="3 1.5" stroke-width="1.5" d="M588.237,137.049 L588.237,176.783"/><text transform="matrix(1, 0, 0, 1, 587.934, 192.508)"><tspan x="-21" y="-4.5" fill="#0C60B2" font-family="Inconsolata" font-size="14">&quot;xyz&quot;, </tspan> <tspan x="-7" y="10.5" fill="#E04D01" font-family="Inconsolata" font-size="14">90</tspan></text><text transform="matrix(1, 0, 0, 1, 360, 242.443)"><tspan x="-149.507" y="6.368" fill="#1D4595" font-family="Inconsolata" font-size="21">{ </tspan> <tspan x="-128.507" y="6.368" fill="#0076C0" font-family="Inconsolata" font-size="21">userid</tspan> <tspan x="-65.507" y="6.368" fill="#1D4595" font-family="Inconsolata" font-size="21">: 1, </tspan> <tspan x="-13.007" y="6.368" fill="#DE4F4F" font-family="Inconsolata" font-size="21">score</tspan> <tspan x="39.493" y="6.368" fill="#1D4595" font-family="Inconsolata" font-size="21">: -1 } </tspan> <tspan x="112.993" y="6.368" fill="#1D4595" font-family="GillSans" font-size="21">Index</tspan></text><path fill-opacity="0" stroke="#AFD1E8" stroke-dasharray="3 1.5" stroke-width="1.5" d="M295.37,137.637 L295.37,177.371"/><text transform="matrix(1, 0, 0, 1, 294.767, 192.508)"><tspan x="-21" y="-4.5" fill="#0C60B2" font-family="Inconsolata" font-size="14">&quot;ca2&quot;, </tspan> <tspan x="-7" y="10.5" fill="#E04C01" font-family="Inconsolata" font-size="14">55</tspan></text><path fill-opacity="0" stroke="#AFD1E8" stroke-dasharray="3 1.5" stroke-width="1.5" d="M353.908,137.637 L353.908,177.371"/><text transform="matrix(1, 0, 0, 1, 350.59, 192.508)"><tspan x="-21" y="-4.5" fill="#0C60B2" font-family="Inconsolata" font-size="14">&quot;ca2&quot;, </tspan> <tspan x="-7" y="10.5" fill="#E04D01" font-family="Inconsolata" font-size="14">30</tspan></text></g></svg>