<svg xmlns="http://www.w3.org/2000/svg" xmlns:xlink="http://www.w3.org/1999/xlink" width="720" height="400" x="0" y="0" version="1.1" viewBox="0 0 720 400"><g id="Layer 1"><g><path fill="#FFF" d="M552.89,25.905 L688.518,25.905 L688.518,189.315 L552.89,189.315 z"/><path fill-opacity="0" stroke="#0176C0" stroke-width=".929" d="M552.89,25.905 L688.518,25.905 L688.518,189.315 L552.89,189.315 z"/></g><text transform="matrix(1, 0, 0, 1, 617.805, 11.93)"><tspan x="-36.665" y="6" fill="#0176C0" font-family="GillSans" font-size="18">collection</tspan></text><g><path fill="#FFF" d="M539.51,37.564 L675.138,37.564 L675.138,200.974 L539.51,200.974 z"/><path fill-opacity="0" stroke="#0176C0" stroke-width=".929" d="M539.51,37.564 L675.138,37.564 L675.138,200.974 L539.51,200.974 z"/></g><text transform="matrix(1, 0, 0, 1, 611.427, 76.317)"><tspan x="-65.799" y="-11.488" fill="#0176C0" font-family="GillSans" font-size="12">{ </tspan> <tspan x="-65.799" y="2.512" fill="#0176C0" font-family="GillSans" font-size="12"> </tspan> <tspan x="-59.131" y="2.512" fill="#0176C0" font-family="GillSans" font-size="12">userid: &quot;xyz&quot;,</tspan> <tspan x="-65.799" y="16.512" fill="#0176C0" font-family="GillSans" font-size="12"> </tspan> <tspan x="-59.131" y="16.512" fill="#DE4C01" font-family="GillSans" font-size="12">addr</tspan> <tspan x="-36.66" y="16.512" fill="#0176C0" font-family="GillSans" font-size="12">:</tspan></text><path fill="#0C60B2" d="M31.527,280.279 L691.816,280.279 L691.816,299.474 L31.527,299.474 z"/><path fill-opacity="0" stroke="#AFD1E8" stroke-dasharray="3 1.5" stroke-width="1.5" d="M163.591,276.437 L163.591,316.171"/><path fill-opacity="0" stroke="#AFD1E8" stroke-dasharray="3 1.5" stroke-width="1.5" d="M487.71,276.437 L487.71,316.171"/><text transform="matrix(1, 0, 0, 1, 162.73, 330.053)"><tspan x="-24.5" y="2.493" fill="#DE4D01" font-family="Inconsolata" font-size="14">&quot;10036&quot;</tspan></text><text transform="matrix(1, 0, 0, 1, 28.532, 332.345)"><tspan x="-10.5" y=".598" fill="#DE4D01" font-family="Inconsolata" font-size="14">min</tspan></text><text transform="matrix(1, 0, 0, 1, 488.795, 329.008)"><tspan x="-24.5" y="3.5" fill="#DE4D01" font-family="Inconsolata" font-size="14">&quot;78610&quot;</tspan></text><text transform="matrix(1, 0, 0, 1, 689.119, 329.557)"><tspan x="-10.5" y="3.174" fill="#DE4D01" font-family="Inconsolata" font-size="14">max</tspan></text><path fill-opacity="0" stroke="#AFD1E8" stroke-dasharray="3 1.5" stroke-width="1.5" d="M31.89,276.304 L31.89,316.171"/><path fill-opacity="0" stroke="#AFD1E8" stroke-dasharray="3 1.5" stroke-width="1.5" d="M692.659,277.807 L692.659,316.171"/><path fill-opacity="0" stroke="#AFD1E8" stroke-dasharray="3 1.5" stroke-width="1.5" d="M637.25,276.437 L637.25,316.171"/><text transform="matrix(1, 0, 0, 1, 637.305, 329.61)"><tspan x="-24.5" y="3.49" fill="#DE4D01" font-family="Inconsolata" font-size="14">&quot;94301&quot;</tspan></text><text transform="matrix(1, 0, 0, 1, 362.561, 375.685)"><tspan x="-118.007" y="4.201" fill="#1D4595" font-family="Inconsolata" font-size="21">{ </tspan> <tspan x="-97.007" y="4.201" fill="#DE4F4F" font-family="Inconsolata" font-size="21">&quot;addr.zip&quot;</tspan> <tspan x="7.993" y="4.201" fill="#1D4595" font-family="Inconsolata" font-size="21">: 1 }</tspan> <tspan x="60.493" y="4.201" fill="#1D4595" font-family="Inconsolata" font-size="21"> </tspan> <tspan x="70.993" y="4.201" fill="#1D4595" font-family="GillSans" font-size="21">Index</tspan></text><text transform="matrix(1, 0, 0, 1, 626.294, 122.674)"><tspan x="-50.26" y="-17.5" fill="#DE4B01" font-family="GillSans" font-size="12">[</tspan> <tspan x="-50.26" y="-3.5" fill="#0176C0" font-family="GillSans" font-size="12"> </tspan> <tspan x="-43.592" y="-3.5" fill="#DE4B01" font-family="GillSans" font-size="12">{ zip: &quot;10036&quot;, ... },</tspan> <tspan x="-50.26" y="10.5" fill="#DE4B01" font-family="GillSans" font-size="12"> </tspan> <tspan x="-43.592" y="10.5" fill="#DE4B01" font-family="GillSans" font-size="12">{ zip: &quot;94301&quot;, ... }</tspan> <tspan x="-50.26" y="24.5" fill="#DE4B01" font-family="GillSans" font-size="12">]</tspan> <tspan x="-46.264" y="24.5" fill="#0176C0" font-family="GillSans" font-size="12">,</tspan></text><text transform="matrix(1, 0, 0, 1, 554.697, 164.28)"><tspan x="-8.947" y="-3.5" fill="#0176C0" font-family="GillSans" font-size="12">...</tspan> <tspan x="-8.947" y="10.5" fill="#0176C0" font-family="GillSans" font-size="12">}</tspan></text></g></svg>