<svg xmlns="http://www.w3.org/2000/svg" xmlns:xlink="http://www.w3.org/1999/xlink" width="910" height="460" x="0" y="0" version="1.1" viewBox="0 0 910 460"><g id="Layer_1"><path fill="#1F66AF" d="M32.405,183.596 L692.405,183.596 L692.405,203.254 L32.405,203.254 z"/><path fill-opacity="0" stroke="#B0C8DB" stroke-dasharray="2 2" stroke-width="1" d="M32.905,179.845 L32.905,217.004"/><path fill-opacity="0" stroke="#B0C8DB" stroke-dasharray="2 2" stroke-width="1" d="M162.04,179.845 L162.04,217.004"/><path fill-opacity="0" stroke="#B0C8DB" stroke-dasharray="2 2" stroke-width="1" d="M277.237,179.845 L277.237,217.004"/><path fill-opacity="0" stroke="#B0C8DB" stroke-dasharray="2 2" stroke-width="1" d="M442.413,179.845 L442.413,217.004"/><path fill-opacity="0" stroke="#B0C8DB" stroke-dasharray="2 2" stroke-width="1" d="M630.841,179.845 L630.841,217.004"/><path fill-opacity="0" stroke="#B0C8DB" stroke-dasharray="2 2" stroke-width="1" d="M692.905,179.845 L692.905,217.004"/><text transform="matrix(1, 0, 0, 1, 35.905, 229.058)"><tspan x="-16.25" y="6.5" fill="#CD5A2B" font-family="Inconsolata" font-size="21">min</tspan></text><text transform="matrix(1, -0.018, 0.018, 1, 161.006, 229.068)"><tspan x="-11" y="6.5" fill="#CD5A2B" font-family="Inconsolata" font-size="21">18</tspan></text><text transform="matrix(1, 0, 0, 1, 277.104, 229.058)"><tspan x="-11" y="6.5" fill="#CD5A2B" font-family="Inconsolata" font-size="21">30</tspan></text><text transform="matrix(1, 0, 0, 1, 441.56, 229.058)"><tspan x="-11" y="6.5" fill="#CD5A2B" font-family="Inconsolata" font-size="21">45</tspan></text><text transform="matrix(1, 0, 0, 1, 630.612, 229.058)"><tspan x="-11" y="6.5" fill="#CD5A2B" font-family="Inconsolata" font-size="21">75</tspan></text><text transform="matrix(1, 0, 0, 1, 689.738, 228.004)"><tspan x="-16.25" y="6.5" fill="#CD5A2B" font-family="Inconsolata" font-size="21">max</tspan></text><path fill="#2476C0" d="M32.788,176.022 L276.734,176.022 L276.734,210.827 L32.788,210.827 z" opacity=".48"/><g><text transform="matrix(1, 0, 0, 1, 408.448, 81.941)"><tspan x="-381.112" y="7.5" fill="#133A80" font-family="Inconsolata" font-size="24">db.users.find( { score: { &quot;$lt&quot;: </tspan> <tspan x="14.888" y="7.5" fill="#C04521" font-family="Inconsolata" font-size="24">30 </tspan> <tspan x="50.888" y="7.5" fill="#10296D" font-family="Inconsolata" font-size="24">} } ).sort( { score: -1 } )</tspan></text></g><text transform="matrix(1, 0, 0, 1, 121.317, 29.293)"><tspan x="-53.193" y="7.5" fill="#468BBE" font-family="GillSans" font-size="24">Collection</tspan></text><g><path fill-opacity="0" stroke="#468BBE" stroke-width="1" d="M112.265,45.293 L112.265,60.941"/><g><path fill="#468BBE" d="M109.265,60.941 L112.265,68.941 L115.265,60.941 z"/><path fill-opacity="0" stroke="#468BBE" stroke-width="1" d="M109.265,60.941 L112.265,68.941 L115.265,60.941 z"/></g></g><text transform="matrix(1, 0, 0, 1, 365.941, 29.793)"><tspan x="-75.184" y="7" fill="#468BBE" font-family="GillSans" font-size="24">Query Criteria</tspan></text><path fill="#2476C0" d="M207.62,60.598 L493.62,60.598 L493.62,100.043 L207.62,100.043 z" opacity=".3"/><g><path fill-opacity="0" stroke="#468BBE" stroke-width="1" d="M366.312,44.77 L366.312,60.418"/><g><path fill="#468BBE" d="M363.312,60.418 L366.312,68.418 L369.312,60.418 z"/><path fill-opacity="0" stroke="#468BBE" stroke-width="1" d="M363.312,60.418 L366.312,68.418 L369.312,60.418 z"/></g></g><path fill-opacity="0" stroke="#96BEE1" stroke-width="1" d="M33.288,176.938 L209.12,100.543"/><path fill-opacity="0" stroke="#96BEE1" stroke-width="1" d="M277.234,176.938 L490.121,100.543"/><g><text transform="matrix(1, 0, 0, 1, 720.154, 191.845)"><tspan x="-5.75" y="6.5" fill="#123A80" font-family="Inconsolata" font-size="21">{</tspan></text><text transform="matrix(1, 0, 0, 1, 762.154, 191.845)"><tspan x="-26.75" y="6.5" fill="#CD5A2B" font-family="Inconsolata" font-size="21">score</tspan></text><text transform="matrix(1, 0, 0, 1, 814.654, 191.845)"><tspan x="-26.75" y="6.5" fill="#123A80" font-family="Inconsolata" font-size="21">: 1 }</tspan></text><text transform="matrix(1, 0, 0, 1, 877.09, 191.345)"><tspan x="-26.186" y="7" fill="#123A80" font-family="Helvetica" font-size="21">Index</tspan></text></g><g><g><g><path fill="#FFF" d="M31.308,310.939 L108.638,310.939 L108.638,403.451 L31.308,403.451 z"/><path fill-opacity="0" stroke="#0C60B2" stroke-width=".929" d="M31.308,310.939 L108.638,310.939 L108.638,403.451 L31.308,403.451 z"/></g><g><text transform="matrix(1, 0, 0, 1, 38.556, 335.695)"><tspan x="-6.5" y="3.5" fill="#0C60B2" font-family="Inconsolata" font-size="12">{</tspan></text><text transform="matrix(1, 0, 0, 1, 56.89, 351.695)"><tspan x="-15.5" y="3.5" fill="#C45127" font-family="Inconsolata" font-size="12">score</tspan></text><text transform="matrix(1, 0, 0, 1, 74.89, 351.695)"><tspan x="-3.5" y="3.5" fill="#0C60B2" font-family="Inconsolata" font-size="12">:</tspan></text><text transform="matrix(1, 0, 0, 1, 89.89, 351.695)"><tspan x="-6.5" y="3.5" fill="#C55127" font-family="Inconsolata" font-size="12">25</tspan></text><text transform="matrix(1, 0, 0, 1, 98.89, 351.695)"><tspan x="-3.5" y="3.5" fill="#0C60B2" font-family="Inconsolata" font-size="12">,</tspan></text><text transform="matrix(1, 0, 0, 1, 44.556, 366.695)"><tspan x="-12.5" y="3.5" fill="#0C60B2" font-family="Inconsolata" font-size="12">...</tspan></text><text transform="matrix(1, 0, 0, 1, 38.556, 380.695)"><tspan x="-6.5" y="3.5" fill="#0C60B2" font-family="Inconsolata" font-size="12">}</tspan></text></g></g><g><path fill-opacity="0" stroke="#96BEE1" stroke-width="1" d="M69.973,285 L69.973,301.939"/><g><path fill="#96BEE1" d="M66.973,301.939 L69.973,309.939 L72.973,301.939 z"/><path fill-opacity="0" stroke="#96BEE1" stroke-width="1" d="M66.973,301.939 L69.973,309.939 L72.973,301.939 z"/></g></g></g><g><g><path fill="#FFF" d="M184.927,310.939 L262.257,310.939 L262.257,403.451 L184.927,403.451 z"/><path fill-opacity="0" stroke="#0C60B2" stroke-width=".929" d="M184.927,310.939 L262.257,310.939 L262.257,403.451 L184.927,403.451 z"/></g><g><text transform="matrix(1, 0, 0, 1, 192.174, 335.695)"><tspan x="-6.5" y="3.5" fill="#0C60B2" font-family="Inconsolata" font-size="12">{</tspan></text><text transform="matrix(1, 0, 0, 1, 213.174, 351.695)"><tspan x="-15.5" y="3.5" fill="#C45127" font-family="Inconsolata" font-size="12">score</tspan></text><text transform="matrix(1, 0, 0, 1, 231.174, 351.695)"><tspan x="-3.5" y="3.5" fill="#0C60B2" font-family="Inconsolata" font-size="12">:</tspan></text><text transform="matrix(1, 0, 0, 1, 246.174, 351.695)"><tspan x="-6.5" y="3.5" fill="#CD5A2B" font-family="Inconsolata" font-size="12">45</tspan></text><text transform="matrix(1, 0, 0, 1, 255.174, 351.695)"><tspan x="-3.5" y="3.5" fill="#0C60B2" font-family="Inconsolata" font-size="12">,</tspan></text><text transform="matrix(1, 0, 0, 1, 198.174, 367.695)"><tspan x="-12.5" y="3.5" fill="#0C60B2" font-family="Inconsolata" font-size="12">...</tspan></text><text transform="matrix(1, 0, 0, 1, 192.174, 381.695)"><tspan x="-6.5" y="3.5" fill="#0C60B2" font-family="Inconsolata" font-size="12">}</tspan></text></g></g><g><g><path fill="#FFF" d="M108.638,310.939 L184.927,310.939 L184.927,403.451 L108.638,403.451 z"/><path fill-opacity="0" stroke="#0C60B2" stroke-width=".929" d="M108.638,310.939 L184.927,310.939 L184.927,403.451 L108.638,403.451 z"/></g><g><text transform="matrix(1, 0, 0, 1, 115.869, 335.695)"><tspan x="-6.5" y="3.5" fill="#0C60B2" font-family="Inconsolata" font-size="12">{</tspan></text><text transform="matrix(1, 0, 0, 1, 136.869, 351.695)"><tspan x="-15.5" y="3.5" fill="#C45127" font-family="Inconsolata" font-size="12">score</tspan></text><text transform="matrix(1, 0, 0, 1, 154.869, 351.695)"><tspan x="-3.5" y="3.5" fill="#0C60B2" font-family="Inconsolata" font-size="12">:</tspan></text><text transform="matrix(1, 0, 0, 1, 169.869, 351.695)"><tspan x="-6.5" y="3.5" fill="#CD5A2B" font-family="Inconsolata" font-size="12">56</tspan></text><text transform="matrix(1, 0, 0, 1, 178.869, 351.695)"><tspan x="-3.5" y="3.5" fill="#0C60B2" font-family="Inconsolata" font-size="12">,</tspan></text><text transform="matrix(1, 0, 0, 1, 121.869, 367.695)"><tspan x="-12.5" y="3.5" fill="#0C60B2" font-family="Inconsolata" font-size="12">...</tspan></text><text transform="matrix(1, 0, 0, 1, 115.869, 381.695)"><tspan x="-6.5" y="3.5" fill="#0C60B2" font-family="Inconsolata" font-size="12">}</tspan></text></g></g><g><g><path fill="#FFF" d="M262.257,310.939 L339.587,310.939 L339.587,403.451 L262.257,403.451 z"/><path fill-opacity="0" stroke="#0C60B2" stroke-width=".929" d="M262.257,310.939 L339.587,310.939 L339.587,403.451 L262.257,403.451 z"/></g><g><text transform="matrix(1, 0, 0, 1, 269.504, 335.695)"><tspan x="-6.5" y="3.5" fill="#0C60B2" font-family="Inconsolata" font-size="12">{</tspan></text><text transform="matrix(1, 0, 0, 1, 290.504, 351.695)"><tspan x="-15.5" y="3.5" fill="#C45127" font-family="Inconsolata" font-size="12">score</tspan></text><text transform="matrix(1, 0, 0, 1, 308.504, 351.695)"><tspan x="-3.5" y="3.5" fill="#0C60B2" font-family="Inconsolata" font-size="12">:</tspan></text><text transform="matrix(1, 0, 0, 1, 323.504, 351.695)"><tspan x="-6.5" y="3.5" fill="#C45129" font-family="Inconsolata" font-size="12">75</tspan></text><text transform="matrix(1, 0, 0, 1, 332.504, 351.695)"><tspan x="-3.5" y="3.5" fill="#0C60B2" font-family="Inconsolata" font-size="12">,</tspan></text><text transform="matrix(1, 0, 0, 1, 275.504, 367.695)"><tspan x="-12.5" y="3.5" fill="#0C60B2" font-family="Inconsolata" font-size="12">...</tspan></text><text transform="matrix(1, 0, 0, 1, 269.504, 381.695)"><tspan x="-6.5" y="3.5" fill="#0C60B2" font-family="Inconsolata" font-size="12">}</tspan></text></g></g><g><g><path fill="#FFF" d="M339.335,310.939 L416.665,310.939 L416.665,403.451 L339.335,403.451 z"/><path fill-opacity="0" stroke="#0C60B2" stroke-width=".929" d="M339.335,310.939 L416.665,310.939 L416.665,403.451 L339.335,403.451 z"/></g><g><text transform="matrix(1, 0, 0, 1, 346.582, 335.695)"><tspan x="-6.5" y="3.5" fill="#0C60B2" font-family="Inconsolata" font-size="12">{</tspan></text><text transform="matrix(1, 0, 0, 1, 367.582, 351.695)"><tspan x="-15.5" y="3.5" fill="#C45127" font-family="Inconsolata" font-size="12">score</tspan></text><text transform="matrix(1, 0, 0, 1, 385.582, 351.695)"><tspan x="-3.5" y="3.5" fill="#0C60B2" font-family="Inconsolata" font-size="12">:</tspan></text><text transform="matrix(1, 0, 0, 1, 397.582, 351.695)"><tspan x="-3.5" y="3.5" fill="#CD5A2B" font-family="Inconsolata" font-size="12">5</tspan></text><text transform="matrix(1, 0, 0, 1, 403.582, 351.695)"><tspan x="-3.5" y="3.5" fill="#0C60B2" font-family="Inconsolata" font-size="12">,</tspan></text><text transform="matrix(1, 0, 0, 1, 352.582, 367.695)"><tspan x="-12.5" y="3.5" fill="#0C60B2" font-family="Inconsolata" font-size="12">...</tspan></text><text transform="matrix(1, 0, 0, 1, 346.582, 381.695)"><tspan x="-6.5" y="3.5" fill="#0C60B2" font-family="Inconsolata" font-size="12">}</tspan></text></g></g><g><path fill-opacity="0" stroke="#96BEE1" stroke-width="1" d="M378,273 L378,301.939"/><g><path fill="#96BEE1" d="M375,301.939 L378,309.939 L381,301.939 z"/><path fill-opacity="0" stroke="#96BEE1" stroke-width="1" d="M375,301.939 L378,309.939 L381,301.939 z"/></g></g><g><path fill-opacity="0" stroke="#96BEE1" stroke-width="1" d="M72.851,199.333 L72.851,273"/><path fill-opacity="0" stroke="#96BEE1" stroke-width="1" d="M70.729,194.212 C71.901,193.04 73.8,193.04 74.972,194.212 C76.143,195.384 76.143,197.283 74.972,198.455 C73.8,199.626 71.901,199.626 70.729,198.455 C69.558,197.283 69.558,195.384 70.729,194.212"/></g><path fill-opacity="0" stroke="#96BEE1" stroke-width="1" d="M72.851,273 L378,273"/><g><g><path fill="#FFF" d="M649.446,310.939 L726.776,310.939 L726.776,403.451 L649.446,403.451 z"/><path fill-opacity="0" stroke="#0C60B2" stroke-width=".929" d="M649.446,310.939 L726.776,310.939 L726.776,403.451 L649.446,403.451 z"/></g><g><text transform="matrix(1, 0, 0, 1, 656.693, 335.695)"><tspan x="-6.5" y="3.5" fill="#0C60B2" font-family="Inconsolata" font-size="12">{</tspan></text><text transform="matrix(1, 0, 0, 1, 677.693, 351.695)"><tspan x="-15.5" y="3.5" fill="#C45127" font-family="Inconsolata" font-size="12">score</tspan></text><text transform="matrix(1, 0, 0, 1, 695.693, 351.695)"><tspan x="-3.5" y="3.5" fill="#0C60B2" font-family="Inconsolata" font-size="12">:</tspan></text><text transform="matrix(1, 0, 0, 1, 710.693, 351.695)"><tspan x="-6.5" y="3.5" fill="#CD5A2B" font-family="Inconsolata" font-size="12">30</tspan></text><text transform="matrix(1, 0, 0, 1, 719.693, 351.695)"><tspan x="-3.5" y="3.5" fill="#0C60B2" font-family="Inconsolata" font-size="12">,</tspan></text><text transform="matrix(1, 0, 0, 1, 662.693, 367.695)"><tspan x="-12.5" y="3.5" fill="#0C60B2" font-family="Inconsolata" font-size="12">...</tspan></text><text transform="matrix(1, 0, 0, 1, 656.693, 381.695)"><tspan x="-6.5" y="3.5" fill="#0C60B2" font-family="Inconsolata" font-size="12">}</tspan></text></g></g><g><g><path fill="#FFF" d="M416.917,310.939 L494.247,310.939 L494.247,403.451 L416.917,403.451 z"/><path fill-opacity="0" stroke="#0C60B2" stroke-width=".929" d="M416.917,310.939 L494.247,310.939 L494.247,403.451 L416.917,403.451 z"/></g><g><text transform="matrix(1, 0, 0, 1, 424.164, 335.695)"><tspan x="-6.5" y="3.5" fill="#0C60B2" font-family="Inconsolata" font-size="12">{</tspan></text><text transform="matrix(1, 0, 0, 1, 445.164, 351.695)"><tspan x="-15.5" y="3.5" fill="#C45127" font-family="Inconsolata" font-size="12">score</tspan></text><text transform="matrix(1, 0, 0, 1, 463.164, 351.695)"><tspan x="-3.5" y="3.5" fill="#0C60B2" font-family="Inconsolata" font-size="12">:</tspan></text><text transform="matrix(1, 0, 0, 1, 478.164, 351.695)"><tspan x="-6.5" y="3.5" fill="#CD5A2B" font-family="Inconsolata" font-size="12">40</tspan></text><text transform="matrix(1, 0, 0, 1, 487.164, 351.695)"><tspan x="-3.5" y="3.5" fill="#0C60B2" font-family="Inconsolata" font-size="12">,</tspan></text><text transform="matrix(1, 0, 0, 1, 430.164, 367.695)"><tspan x="-12.5" y="3.5" fill="#0C60B2" font-family="Inconsolata" font-size="12">...</tspan></text><text transform="matrix(1, 0, 0, 1, 424.164, 381.695)"><tspan x="-6.5" y="3.5" fill="#0C60B2" font-family="Inconsolata" font-size="12">}</tspan></text></g></g><g><g><g><path fill="#FFF" d="M494.835,310.939 L572.165,310.939 L572.165,403.451 L494.835,403.451 z"/><path fill-opacity="0" stroke="#0C60B2" stroke-width=".929" d="M494.835,310.939 L572.165,310.939 L572.165,403.451 L494.835,403.451 z"/></g><g><text transform="matrix(1, 0, 0, 1, 502.082, 335.695)"><tspan x="-6.5" y="3.5" fill="#0C60B2" font-family="Inconsolata" font-size="12">{</tspan></text><text transform="matrix(1, 0, 0, 1, 523.082, 351.695)"><tspan x="-15.5" y="3.5" fill="#C45127" font-family="Inconsolata" font-size="12">score</tspan></text><text transform="matrix(1, 0, 0, 1, 541.082, 351.695)"><tspan x="-3.5" y="3.5" fill="#0C60B2" font-family="Inconsolata" font-size="12">:</tspan></text><text transform="matrix(1, 0, 0, 1, 556.082, 351.695)"><tspan x="-6.5" y="3.5" fill="#CD5A2B" font-family="Inconsolata" font-size="12">18</tspan></text><text transform="matrix(1, 0, 0, 1, 565.082, 351.695)"><tspan x="-3.5" y="3.5" fill="#0C60B2" font-family="Inconsolata" font-size="12">,</tspan></text><text transform="matrix(1, 0, 0, 1, 508.082, 367.695)"><tspan x="-12.5" y="3.5" fill="#0C60B2" font-family="Inconsolata" font-size="12">...</tspan></text><text transform="matrix(1, 0, 0, 1, 502.082, 381.695)"><tspan x="-6.5" y="3.5" fill="#0C60B2" font-family="Inconsolata" font-size="12">}</tspan></text></g></g><g><path fill-opacity="0" stroke="#B9D3EB" stroke-width="1" d="M533.5,261.667 L533.5,301.939"/><g><path fill="#B9D3EB" d="M530.5,301.939 L533.5,309.939 L536.5,301.939 z"/><path fill-opacity="0" stroke="#B9D3EB" stroke-width="1" d="M530.5,301.939 L533.5,309.939 L536.5,301.939 z"/></g></g></g><g><path fill="#FFF" d="M571.577,310.939 L648.907,310.939 L648.907,403.451 L571.577,403.451 z"/><path fill-opacity="0" stroke="#0C60B2" stroke-width=".929" d="M571.577,310.939 L648.907,310.939 L648.907,403.451 L571.577,403.451 z"/></g><text transform="matrix(1, 0, 0, 1, 592.931, 365.695)"><tspan x="-12.5" y="3.5" fill="#0C60B2" font-family="Inconsolata" font-size="12">...</tspan></text><text transform="matrix(1, 0, 0, 1, 377.502, 436.458)"><tspan x="-26.75" y="6.5" fill="#315480" font-family="Inconsolata" font-size="21">users</tspan></text><g><path fill-opacity="0" stroke="#96BEE1" stroke-width="1" d="M161.517,199.005 L162.674,261.661"/><path fill-opacity="0" stroke="#96BEE1" stroke-width="1" d="M159.301,193.924 C160.451,192.731 162.35,192.695 163.543,193.845 C164.736,194.995 164.771,196.894 163.621,198.087 C162.472,199.28 160.572,199.315 159.379,198.165 C158.186,197.016 158.151,195.117 159.301,193.924"/></g><g><path fill-opacity="0" stroke="#96BEE1" stroke-width="1" d="M236.167,199.333 L236.167,285"/><path fill-opacity="0" stroke="#96BEE1" stroke-width="1" d="M234.045,194.212 C235.217,193.04 237.116,193.04 238.288,194.212 C239.46,195.384 239.46,197.283 238.288,198.455 C237.116,199.626 235.217,199.626 234.045,198.455 C232.874,197.283 232.874,195.384 234.045,194.212"/></g><path fill-opacity="0" stroke="#96BEE1" stroke-width="1" d="M69.973,285 L236.167,285"/><path fill-opacity="0" stroke="#96BEE1" stroke-width="1" d="M162.04,261.667 L533.5,261.667"/><text transform="matrix(1, 0, 0, 1, 681.492, 29.793)"><tspan x="-53.855" y="7" fill="#468BBE" font-family="GillSans" font-size="24">Sort order</tspan></text><g><path fill-opacity="0" stroke="#468BBE" stroke-width="1" d="M681.986,44.77 L681.986,60.418"/><g><path fill="#468BBE" d="M678.986,60.418 L681.986,68.418 L684.986,60.418 z"/><path fill-opacity="0" stroke="#468BBE" stroke-width="1" d="M678.986,60.418 L681.986,68.418 L684.986,60.418 z"/></g></g></g></svg>