<svg xmlns="http://www.w3.org/2000/svg" xmlns:xlink="http://www.w3.org/1999/xlink" width="310" height="310" x="0" y="0" version="1.1" viewBox="0 0 310 310"><g id="Layer 1"><path fill-opacity="0" stroke="#1C428F" stroke-width="2" d="M34.527,16.371 L34.527,266.371"/><path fill-opacity="0" stroke="#1C428F" stroke-width="2" d="M34.527,265.871 L284.527,265.871"/><text transform="matrix(1, 0, 0, 1, 37.48, 276.465)"><tspan x="-4.5" y="5.5" fill="#1C4494" font-family="Inconsolata" font-size="18">0</tspan></text><text transform="matrix(1, 0, 0, 1, 69.785, 276.465)"><tspan x="-4.5" y="5.5" fill="#1C4494" font-family="Inconsolata" font-size="18">1</tspan></text><text transform="matrix(1, 0, 0, 1, 105.418, 276.465)"><tspan x="-4.5" y="5.5" fill="#1C4494" font-family="Inconsolata" font-size="18">2</tspan></text><text transform="matrix(1, 0, 0, 1, 141.9, 276.465)"><tspan x="-4.5" y="5.5" fill="#1C4494" font-family="Inconsolata" font-size="18">3</tspan></text><text transform="matrix(1, 0, 0, 1, 177.834, 276.5)"><tspan x="-4.5" y="5.5" fill="#1C4494" font-family="Inconsolata" font-size="18">4</tspan></text><text transform="matrix(1, 0, 0, 1, 213.055, 276.465)"><tspan x="-4.5" y="5.5" fill="#1C4494" font-family="Inconsolata" font-size="18">5</tspan></text><text transform="matrix(1, 0, 0, 1, 248.688, 276.465)"><tspan x="-4.5" y="5.5" fill="#1C4494" font-family="Inconsolata" font-size="18">6</tspan></text><g><g><text transform="matrix(1, 0, 0, 1, 25.545, 265.387)"><tspan x="-4.5" y="5.5" fill="#1C4494" font-family="Inconsolata" font-size="18">0</tspan></text><text transform="matrix(1, 0, 0, 1, 25.545, 230.014)"><tspan x="-4.5" y="5.5" fill="#1C4494" font-family="Inconsolata" font-size="18">1</tspan></text></g><g><text transform="matrix(1, 0, 0, 1, 25.545, 193.373)"><tspan x="-4.5" y="5.5" fill="#1C4494" font-family="Inconsolata" font-size="18">2</tspan></text><text transform="matrix(1, 0, 0, 1, 25.545, 158)"><tspan x="-4.5" y="5.5" fill="#1C4494" font-family="Inconsolata" font-size="18">3</tspan></text></g></g><g><text transform="matrix(1, 0, 0, 1, 25.545, 121.07)"><tspan x="-4.5" y="5.5" fill="#1C4494" font-family="Inconsolata" font-size="18">4</tspan></text><text transform="matrix(1, 0, 0, 1, 25.545, 85.697)"><tspan x="-4.5" y="5.5" fill="#1C4494" font-family="Inconsolata" font-size="18">5</tspan></text></g><text transform="matrix(1, 0, 0, 1, 25.545, 49.953)"><tspan x="-4.5" y="5.5" fill="#1C4494" font-family="Inconsolata" font-size="18">6</tspan></text><path fill-opacity="0" stroke="#0076C0" stroke-width="2" d="M34.527,266.371 L142.027,50.371"/><path fill-opacity="0" stroke="#0076C0" stroke-width="2" d="M142.027,50.371 L250.027,230.371"/><path fill-opacity="0" stroke="#0076C0" stroke-width="2" d="M250.027,230.371 L34.527,265.871"/><path fill-opacity="0" stroke="#6CB33F" stroke-width="2" d="M104.939,194.012 L141.82,157.135"/><path fill-opacity="0" stroke="#6CB33F" stroke-width="2" d="M142.027,158.371 L177.527,193.871"/><path fill-opacity="0" stroke="#6CB33F" stroke-width="2" d="M177.527,193.871 L104.939,194.012"/><text transform="matrix(1, 0, 0, 1, 157.006, 39.703)"><tspan x="-17.5" y="4.5" fill="#0076C0" font-family="Inconsolata" font-size="14">[3,6]</tspan></text><text transform="matrix(1, 0, 0, 1, 270.08, 231.047)"><tspan x="-17.5" y="4.5" fill="#0076C0" font-family="Inconsolata" font-size="14">[6,1]</tspan></text><text transform="matrix(1, 0, 0, 1, 102.531, 201.189)"><tspan x="-17.5" y="4.5" fill="#6BB33E" font-family="Inconsolata" font-size="14">[2,2]</tspan></text><text transform="matrix(1, 0, 0, 1, 153.213, 144.332)"><tspan x="-17.5" y="4.5" fill="#6BB33E" font-family="Inconsolata" font-size="14">[3,3]</tspan></text><text transform="matrix(1, 0, 0, 1, 191.404, 201.135)"><tspan x="-17.5" y="4.5" fill="#6BB33E" font-family="Inconsolata" font-size="14">[4,2]</tspan></text></g></svg>