<svg xmlns="http://www.w3.org/2000/svg" xmlns:svg="http://www.w3.org/2000/svg" id="svg1154" width="800" height="480" x="0" y="0" version="1.1" viewBox="0 0 800 480"><metadata id="metadata1158"/><g id="Layer 1"><path id="path1037" fill-opacity="0" stroke="#3F2615" stroke-width="4" d="M3.147,190.378 L224.853,190.378 L224.853,420.948 L3.147,420.948 z"/><text id="text1041" x="116.822" y="452.535"><tspan style="font-size:24px;font-family:GillSans;fill:#412818" id="tspan1039" x="44.801" y="453.535" font-size="24">Data Center 1</tspan></text><g id="g1055"><g id="g1049"><path id="path1043" fill="#3299CC" d="M213.5,228.433 C213.5,227.268 210.594,226.323 207.004,226.323 L19.996,226.323 C16.41,226.323 13.5,227.268 13.5,228.433 L13.5,289.212 C13.5,290.378 16.41,291.323 19.996,291.323 L207.004,291.323 C210.594,291.323 213.5,290.378 213.5,289.212 L213.5,228.433"/><text id="text1047" x="112.216" y="254.997"><tspan style="font-size:36px;font-family:GillSans;fill:#fff" id="tspan1045" x="54.859" y="266.997" font-size="36">Primary</tspan></text></g><text id="text1053" x="114.352" y="282.823"><tspan style="font-size:12px;font-family:GillSans;fill:#3e2d1b" id="tspan1051" x="90.651" y="285.323" font-size="12">priority: 1</tspan></text></g><g id="g1063"><path id="path1057" fill="#6CB340" d="M213.5,331.988 C213.5,330.823 210.594,329.878 207.004,329.878 L19.996,329.878 C16.41,329.878 13.5,330.823 13.5,331.988 L13.5,392.767 C13.5,393.933 16.41,394.878 19.996,394.878 L207.004,394.878 C210.594,394.878 213.5,393.933 213.5,392.767 L213.5,331.988"/><text id="text1061" x="112.727" y="358.692"><tspan style="font-size:36px;font-family:GillSans;fill:#fffffe" id="tspan1059" x="36.64" y="370.692" font-size="36">Secondary</tspan></text></g><text id="text1067" x="114.352" y="386.378"><tspan style="font-size:12px;font-family:GillSans;fill:#3e2d1b" id="tspan1065" x="90.651" y="388.878" font-size="12">priority: 1</tspan></text><text id="text1071" x="622.674" y="446.035"><tspan style="font-size:24px;font-family:GillSans;fill:#412818" id="tspan1069" x="547.805" y="453.535" font-size="24">Data Center 2</tspan></text><g id="g1083"><path id="path1073" fill="#B2B2B2" d="M718.496,228.433 C718.496,227.268 715.59,226.323 712,226.323 L524.992,226.323 C521.406,226.323 518.496,227.268 518.496,228.433 L518.496,289.212 C518.496,290.378 521.406,291.323 524.992,291.323 L712,291.323 C715.59,291.323 718.496,290.378 718.496,289.212 L718.496,228.433"/><text id="text1077" x="617.723" y="255.137"><tspan style="font-size:36px;font-family:GillSans;fill:#fffffe" id="tspan1075" x="541.636" y="267.137" font-size="36">Secondary</tspan></text><text id="text1081" x="618.326" y="282.823"><tspan style="font-size:12px;font-family:GillSans;fill:#000" id="tspan1079" x="594.625" y="285.323" font-size="12">priority: 0</tspan></text></g><path id="path1085" fill-opacity="0" stroke="#3F2615" stroke-width="4" d="M508.143,190.673 L729.849,190.673 L729.849,421.242 L508.143,421.242 z"/><g id="g1099"><path id="path1087" fill="#5A5955" d="M26,73.012 C26,74.604 27.31,75.895 28.926,75.895 L198.074,75.895 C199.69,75.895 201,74.604 201,73.012 L201,13.779 C201,12.186 199.69,10.895 198.074,10.895 L28.926,10.895 C27.31,10.895 26,12.186 26,13.779 L26,73.012"/><text id="text1097" x="113.421" y="43.533"><tspan style="font-size:36px;font-family:GillSans;fill:#fffffe" id="tspan1089" x="64.264" y="55.533" font-size="36">Dri</tspan> <tspan style="font-size:36px;font-family:GillSans;fill:#fffffe" id="tspan1091" x="113.412" y="55.533" font-size="36">v</tspan> <tspan style="font-size:36px;font-family:GillSans;fill:#fffffe" id="tspan1093" x="128.459" y="55.533" font-size="36">e</tspan> <tspan style="font-size:36px;font-family:GillSans;fill:#fffffe" id="tspan1095" x="145.703" y="55.533" font-size="36">r</tspan></text></g><g id="g1117"><g id="g1105"><path id="path1101" fill="#5A5955" d="M531.496,72.512 C531.496,74.104 532.806,75.395 534.422,75.395 L703.57,75.395 C705.186,75.395 706.496,74.104 706.496,72.512 L706.496,13.279 C706.496,11.686 705.186,10.395 703.57,10.395 L534.422,10.395 C532.806,10.395 531.496,11.686 531.496,13.279 L531.496,72.512"/><path id="path1103" fill-opacity="0" stroke="#B2B2B2" stroke-width="1" d="M531.496,72.512 C531.496,74.104 532.806,75.395 534.422,75.395 L703.57,75.395 C705.186,75.395 706.496,74.104 706.496,72.512 L706.496,13.279 C706.496,11.686 705.186,10.395 703.57,10.395 L534.422,10.395 C532.806,10.395 531.496,11.686 531.496,13.279 L531.496,72.512"/></g><text id="text1115" x="618.496" y="43.239"><tspan style="font-size:36px;font-family:GillSans;fill:#fffffe" id="tspan1107" x="568.524" y="55.033" font-size="36">Dri</tspan> <tspan style="font-size:36px;font-family:GillSans;fill:#fffffe" id="tspan1109" x="617.673" y="55.033" font-size="36">v</tspan> <tspan style="font-size:36px;font-family:GillSans;fill:#fffffe" id="tspan1111" x="632.72" y="55.033" font-size="36">e</tspan> <tspan style="font-size:36px;font-family:GillSans;fill:#fffffe" id="tspan1113" x="649.964" y="55.033" font-size="36">r</tspan></text></g><g id="g1123"><path id="path1119" fill-opacity="0" stroke="#5A5955" stroke-width="4" d="M618.985,88.062 L619.005,210.662"/><path id="path1121" fill="#5A5955" fill-opacity="1" stroke="#5A5955" stroke-opacity="1" stroke-width="4" d="M614.205,210.663 L619.007,223.462 L623.805,210.661 z"/></g><text id="text1127" transform="matrix(1, -0, 0, 1, 66.626, 102.856)"><tspan id="tspan1125" x="-56.626" y="6.467" fill="#5A5955" font-family="GillSans" font-size="24">Read with</tspan></text><g id="g1133"><path id="path1129" fill-opacity="0" stroke="#5A5955" stroke-width="4" d="M114,87.823 L114,210.423"/><path id="path1131" fill="#5A5955" fill-opacity="1" stroke="#5A5955" stroke-opacity="1" stroke-width="4" d="M109.2,210.423 L114,223.223 L118.8,210.423 z"/></g><text id="text1139" transform="matrix(1, -0, 0, 1, 207.544, 116.062)"><tspan id="tspan1135" x="-86.735" y="-6.5" fill="#5A5955" font-family="GillSans" font-size="24">Read Preference </tspan> <tspan id="tspan1137" x="-86.735" y="21.5" fill="#5A5955" font-family="GillSans" font-size="24">(default)</tspan></text><text id="text1143" transform="matrix(1, -0, 0, 1, 566.532, 102.976)"><tspan id="tspan1141" x="-52.363" y="6.586" fill="#5A5955" font-family="GillSans" font-size="24">Read with</tspan></text><text id="text1149" transform="matrix(1, -0, 0, 1, 706.522, 115.823)"><tspan id="tspan1145" x="-83.795" y="-6.5" fill="#5A5955" font-family="GillSans" font-size="24">Read Preference </tspan> <tspan id="tspan1147" x="-83.795" y="21.5" fill="#5A5955" font-family="GillSans" font-size="24">(nearest)</tspan></text></g></svg>