<svg xmlns="http://www.w3.org/2000/svg" xmlns:xlink="http://www.w3.org/1999/xlink" width="740" height="280" x="0" y="0" version="1.1" viewBox="0 0 740 280"><g id="Layer 1"><g><path fill="#5CA831" d="M245,109.61 C245,108.445 242.094,107.5 238.504,107.5 L51.496,107.5 C47.91,107.5 45,108.445 45,109.61 L45,170.388 C45,171.554 47.91,172.5 51.496,172.5 L238.504,172.5 C242.094,172.5 245,171.554 245,170.388 L245,109.61"/><text transform="matrix(1, -0, 0, 1, 145, 140)"><tspan x="-76.087" y="12.242" fill="#FFFFFE" font-family="GillSans" font-size="36">Secondary</tspan></text></g><path fill="#2A86C0" d="M470,109.61 C470,108.445 467.094,107.5 463.504,107.5 L276.496,107.5 C272.91,107.5 270,108.445 270,109.61 L270,170.388 C270,171.554 272.91,172.5 276.496,172.5 L463.504,172.5 C467.094,172.5 470,171.554 470,170.388 L470,109.61"/><text transform="matrix(1, 0, 0, 1, 370, 140)"><tspan x="-57.357" y="12" fill="#FFF" font-family="GillSans" font-size="36">Primary</tspan></text><g><path fill="#818181" d="M694.863,109.61 C694.863,108.445 691.958,107.5 688.367,107.5 L501.359,107.5 C497.773,107.5 494.863,108.445 494.863,109.61 L494.863,170.388 C494.863,171.554 497.773,172.5 501.359,172.5 L688.367,172.5 C691.958,172.5 694.863,171.554 694.863,170.388 L694.863,109.61"/><text transform="matrix(1, -0, 0, 1, 594.863, 140)"><tspan x="-76.087" y="12" fill="#FFF" font-family="GillSans" font-size="36">Secondary</tspan></text></g><text transform="matrix(1, 0, 0, 1, 541.531, 189)"><tspan x="-23.531" y="1" fill="#000" font-family="GillSans-Light" font-size="11">priority: 0</tspan></text><text transform="matrix(1, 0, 0, 1, 549.119, 199)"><tspan x="-31.119" y="1" fill="#000" font-family="GillSans-Light" font-size="11">hidden: true</tspan></text><text transform="matrix(1, 0, 0, 1, 556.909, 179)"><tspan x="-38.909" y="1" fill="#000" font-family="GillSans-Light" font-size="11">slaveDelay: 3600</tspan></text><g><path fill="#5CA831" d="M470,12.11 C470,10.945 467.094,10 463.504,10 L276.496,10 C272.91,10 270,10.945 270,12.11 L270,72.888 C270,74.054 272.91,75 276.496,75 L463.504,75 C467.094,75 470,74.054 470,72.888 L470,12.11"/><text transform="matrix(1, -0, 0, 1, 370, 42.5)"><tspan x="-76.087" y="12" fill="#FFFFFE" font-family="GillSans" font-size="36">Secondary</tspan></text></g><g><path fill="#5CA831" d="M470,207.11 C470,205.945 467.094,205 463.504,205 L276.496,205 C272.91,205 270,205.945 270,207.11 L270,267.888 C270,269.054 272.91,270 276.496,270 L463.504,270 C467.094,270 470,269.054 470,267.888 L470,207.11"/><text transform="matrix(1, -0, 0, 1, 370, 237.5)"><tspan x="-76.087" y="12" fill="#FFFFFE" font-family="GillSans" font-size="36">Secondary</tspan></text></g></g></svg>