<svg xmlns="http://www.w3.org/2000/svg" xmlns:xlink="http://www.w3.org/1999/xlink" width="740" height="280" x="0" y="0" version="1.1" viewBox="0 0 740 280"><g id="Layer_1"><path fill="#2A86C0" d="M470,114.61 C470,113.445 467.094,112.5 463.504,112.5 L276.496,112.5 C272.91,112.5 270,113.445 270,114.61 L270,175.388 C270,176.554 272.91,177.5 276.496,177.5 L463.504,177.5 C467.094,177.5 470,176.554 470,175.388 L470,114.61"/><g><path fill="#5CA831" d="M470,17.11 C470,15.945 467.094,15 463.504,15 L276.496,15 C272.91,15 270,15.945 270,17.11 L270,77.888 C270,79.054 272.91,80 276.496,80 L463.504,80 C467.094,80 470,79.054 470,77.888 L470,17.11"/><text transform="matrix(1, 0, 0, 1, 370.5, 47.5)"><tspan x="-76.587" y="12" fill="#FFFFFE" font-family="GillSans" font-size="36">Secondary</tspan></text></g><text transform="matrix(1, 0, 0, 1, 370.5, 145)"><tspan x="-57.857" y="12" fill="#FFF" font-family="GillSans" font-size="36">Primary</tspan></text><g><path fill="#5CA831" d="M470,212.11 C470,210.945 467.094,210 463.504,210 L276.496,210 C272.91,210 270,210.945 270,212.11 L270,272.888 C270,274.054 272.91,275 276.496,275 L463.504,275 C467.094,275 470,274.054 470,272.888 L470,212.11"/><text transform="matrix(1, 0, 0, 1, 370.5, 242.5)"><tspan x="-76.587" y="12" fill="#FFFFFE" font-family="GillSans" font-size="36">Secondary</tspan></text></g><g><path fill="#818181" d="M720,114.61 C720,113.445 717.094,112.5 713.504,112.5 L526.496,112.5 C522.91,112.5 520,113.445 520,114.61 L520,175.388 C520,176.554 522.91,177.5 526.496,177.5 L713.504,177.5 C717.094,177.5 720,176.554 720,175.388 L720,114.61"/><text transform="matrix(1, 0, 0, 1, 620.5, 145)"><tspan x="-76.587" y="12" fill="#FFF" font-family="GillSans" font-size="36">Secondary</tspan></text><text transform="matrix(1, 0, 0, 1, 567.5, 170.735)"><tspan x="-24.201" y="3.5" fill="#000" font-family="GillSans" font-size="12">priority: 0</tspan></text><text transform="matrix(1, 0, 0, 1, 666.264, 170.735)"><tspan x="-29.378" y="3.5" fill="#000" font-family="GillSans" font-size="12">hidden: true</tspan></text></g><g><path fill="#5CA831" d="M220,114.61 C220,113.445 217.094,112.5 213.504,112.5 L26.496,112.5 C22.91,112.5 20,113.445 20,114.61 L20,175.388 C20,176.554 22.91,177.5 26.496,177.5 L213.504,177.5 C217.094,177.5 220,176.554 220,175.388 L220,114.61"/><text transform="matrix(1, 0, 0, 1, 120.5, 145.242)"><tspan x="-76.587" y="12" fill="#FFFFFE" font-family="GillSans" font-size="36">Secondary</tspan></text></g></g></svg>