<svg xmlns="http://www.w3.org/2000/svg" xmlns:xlink="http://www.w3.org/1999/xlink" width="582" height="300" x="0" y="0" version="1.1" viewBox="0 0 582 300"><g id="Layer_1"><path id="canvas_background" fill="#FFF" d="M-1,-1 L583,-1 L583,301 L-1,301 z"/><g><path id="svg_89" fill="#FFF" d="M10.5,54 L575.5,54 L575.5,270 L10.5,270 z"/><path id="svg_59" fill="#EAEDEA" d="M33.413,73.59 L305.413,73.59 L305.413,196.79 L169.412,227.59 L33.412,196.79 L33.413,73.59 z"/><path id="svg_3" fill="#00BF00" d="M40.5,100 L108.5,100 L108.5,119 L40.5,119 z"/><text id="svg_6" transform="matrix(1, 0, 0, 1, 74.683, 109)"><tspan x="-22.183" y="4" fill="#FFF" font-family="Helvetica" font-size="12">mongod</tspan></text><path id="svg_21" fill="#00BF00" d="M53.5,124 L121.5,124 L121.5,143 L53.5,143 z"/><text id="svg_22" transform="matrix(1, 0, 0, 1, 87.683, 133)"><tspan x="-22.183" y="4" fill="#FFF" font-family="Helvetica" font-size="12">mongod</tspan></text><path id="svg_23" fill="#00BF00" d="M40.5,148 L108.5,148 L108.5,167 L40.5,167 z"/><text id="svg_24" transform="matrix(1, 0, 0, 1, 74.683, 158)"><tspan x="-22.183" y="4" fill="#FFF" font-family="Helvetica" font-size="12">mongod</tspan></text><path id="svg_25" fill="#00BF00" d="M130.5,100 L198.5,100 L198.5,119 L130.5,119 z"/><text id="svg_26" transform="matrix(1, 0, 0, 1, 164.683, 109)"><tspan x="-22.183" y="4" fill="#FFF" font-family="Helvetica" font-size="12">mongod</tspan></text><path id="svg_27" fill="#00BF00" d="M143.5,124 L211.5,124 L211.5,143 L143.5,143 z"/><text id="svg_28" transform="matrix(1, 0, 0, 1, 177.683, 133)"><tspan x="-22.183" y="4" fill="#FFF" font-family="Helvetica" font-size="12">mongod</tspan></text><path id="svg_29" fill="#00BF00" d="M130.5,148 L198.5,148 L198.5,167 L130.5,167 z"/><text id="svg_30" transform="matrix(1, 0, 0, 1, 164.683, 158)"><tspan x="-22.183" y="4" fill="#FFF" font-family="Helvetica" font-size="12">mongod</tspan></text><path id="svg_31" fill="#00BF00" d="M219.5,100 L287.5,100 L287.5,119 L219.5,119 z"/><text id="svg_32" transform="matrix(1, 0, 0, 1, 253.683, 109)"><tspan x="-22.183" y="4" fill="#FFF" font-family="Helvetica" font-size="12">mongod</tspan></text><path id="svg_33" fill="#00BF00" d="M232.5,124 L300.5,124 L300.5,143 L232.5,143 z"/><text id="svg_34" transform="matrix(1, 0, 0, 1, 266.683, 133)"><tspan x="-22.183" y="4" fill="#FFF" font-family="Helvetica" font-size="12">mongod</tspan></text><path id="svg_35" fill="#00BF00" d="M219.5,148 L287.5,148 L287.5,167 L219.5,167 z"/><text id="svg_36" transform="matrix(1, 0, 0, 1, 253.683, 158)"><tspan x="-22.183" y="4" fill="#FFF" font-family="Helvetica" font-size="12">mongod</tspan></text><text id="svg_61" transform="matrix(1, 0, 0, 1, 76.015, 87)"><tspan x="-21.515" y="4" fill="#000" font-family="Helvetica" font-size="12">Shard 1</tspan></text><text id="svg_62" transform="matrix(1, 0, 0, 1, 166.679, 87)"><tspan x="-23.179" y="4" fill="#000" font-family="Helvetica" font-size="12">Shard ...</tspan></text><text id="svg_63" transform="matrix(1, 0, 0, 1, 257.011, 87)"><tspan x="-22.511" y="4" fill="#000" font-family="Helvetica" font-size="12">Shard N</tspan></text><text id="svg_64" transform="matrix(1, 0, 0, 1, 169.38, 195.5)"><tspan x="-50.38" y="5" fill="#000" font-family="Helvetica-Bold" font-size="15">Hardware Tier</tspan></text><path id="svg_65" fill="#EAEDEA" d="M333.413,73.59 L545.413,73.59 L545.413,196.79 L439.413,227.59 L333.413,196.79 L333.413,73.59 z"/><path id="svg_66" fill="#00BF00" d="M358.5,100 L426.5,100 L426.5,119 L358.5,119 z"/><text id="svg_67" transform="matrix(1, 0, 0, 1, 392.683, 109)"><tspan x="-22.183" y="4" fill="#FFF" font-family="Helvetica" font-size="12">mongod</tspan></text><path id="svg_68" fill="#00BF00" d="M371.5,124 L439.5,124 L439.5,143 L371.5,143 z"/><text id="svg_69" transform="matrix(1, 0, 0, 1, 405.683, 133)"><tspan x="-22.183" y="4" fill="#FFF" font-family="Helvetica" font-size="12">mongod</tspan></text><path id="svg_70" fill="#00BF00" d="M358.5,148 L426.5,148 L426.5,167 L358.5,167 z"/><text id="svg_71" transform="matrix(1, 0, 0, 1, 392.683, 158)"><tspan x="-22.183" y="4" fill="#FFF" font-family="Helvetica" font-size="12">mongod</tspan></text><path id="svg_78" fill="#00BF00" d="M447.5,100 L515.5,100 L515.5,119 L447.5,119 z"/><text id="svg_79" transform="matrix(1, 0, 0, 1, 481.683, 109)"><tspan x="-22.183" y="4" fill="#FFF" font-family="Helvetica" font-size="12">mongod</tspan></text><path id="svg_80" fill="#00BF00" d="M460.5,124 L528.5,124 L528.5,143 L460.5,143 z"/><text id="svg_81" transform="matrix(1, 0, 0, 1, 494.683, 133)"><tspan x="-22.183" y="4" fill="#FFF" font-family="Helvetica" font-size="12">mongod</tspan></text><path id="svg_82" fill="#00BF00" d="M447.5,148 L515.5,148 L515.5,167 L447.5,167 z"/><text id="svg_83" transform="matrix(1, 0, 0, 1, 481.683, 158)"><tspan x="-22.183" y="4" fill="#FFF" font-family="Helvetica" font-size="12">mongod</tspan></text><text id="svg_84" transform="matrix(1, 0, 0, 1, 394.852, 87)"><tspan x="-29.352" y="4" fill="#000" font-family="Helvetica" font-size="12">Shard N+1</tspan></text><text id="svg_86" transform="matrix(1, 0, 0, 1, 482.852, 87)"><tspan x="-29.352" y="4" fill="#000" font-family="Helvetica" font-size="12">Shard N+2</tspan></text><text id="svg_87" transform="matrix(1, 0, 0, 1, 439.88, 195.75)"><tspan x="-50.38" y="5.25" fill="#000" font-family="Helvetica-Bold" font-size="15">Hardware Tier</tspan></text><text id="svg_90" transform="matrix(1, 0, 0, 1, 291.501, 33)"><tspan x="-70.017" y="6" fill="#000" font-family="Helvetica-Bold" font-size="18">Sharded Cluster</tspan></text><text id="svg_92" transform="matrix(1, 0, 0, 1, 169.617, 244)"><tspan x="-69.117" y="5" fill="#000" font-family="Helvetica" font-size="16">Fast Hardware Tier</tspan></text><text id="svg_93" transform="matrix(1, 0, 0, 1, 438.824, 243.5)"><tspan x="-81.324" y="5.5" fill="#000" font-family="Helvetica" font-size="16">Archival Hardware Tier</tspan></text></g></g></svg>