<svg xmlns="http://www.w3.org/2000/svg" xmlns:svg="http://www.w3.org/2000/svg" xmlns:xlink="http://www.w3.org/1999/xlink" id="svg5346" width="1200" height="600" version="1.1"><metadata id="metadata5352"/><g id="g5344" transform="translate(0 0)"><path id="path5146" fill="#69b241" stroke="#000" stroke-width="2" d="M1108 440c39.76 0 72 31.34 72 70s-32.24 70-72 70H892c-39.76 0-72-31.34-72-70s32.24-70 72-70z"/><path id="path5148" fill="none" d="M880 385c0-2.76 2.24-5 5-5h230c2.76 0 5 2.24 5 5v50c0 2.76-2.24 5-5 5H885c-2.76 0-5-2.24-5-5z"/><use id="use5150" transform="matrix(1,0,0,1,880,380) translate(69.26974826388889 40.69444444444444)" xlink:href="#a"/><use id="use5152" transform="matrix(1,0,0,1,880,380) translate(148.70334201388889 40.69444444444444)" xlink:href="#b"/><path id="path5154" fill="none" d="M840 469.06c0-2.76 2.24-5 5-5h310c2.76 0 5 2.24 5 5v81.88c0 2.76-2.24 5-5 5H845c-2.76 0-5-2.24-5-5z"/><use id="use5156" transform="matrix(1,0,0,1,840,464.0625) translate(35.55555555555556 55.77777777777777)" xlink:href="#c"/><use id="use5158" transform="matrix(1,0,0,1,840,464.0625) translate(71.11111111111111 55.77777777777777)" xlink:href="#d"/><use id="use5160" transform="matrix(1,0,0,1,840,464.0625) translate(106.66666666666667 55.77777777777777)" xlink:href="#e"/><use id="use5162" transform="matrix(1,0,0,1,840,464.0625) translate(142.22222222222223 55.77777777777777)" xlink:href="#f"/><use id="use5164" transform="matrix(1,0,0,1,840,464.0625) translate(177.77777777777777 55.77777777777777)" xlink:href="#g"/><path id="path5166" fill="#69b241" stroke="#000" stroke-width="2" d="M308 440c39.76 0 72 31.34 72 70s-32.24 70-72 70H92c-39.76 0-72-31.34-72-70s32.24-70 72-70z"/><path id="path5168" fill="none" d="M80 385c0-2.76 2.24-5 5-5h230c2.76 0 5 2.24 5 5v50c0 2.76-2.24 5-5 5H85c-2.76 0-5-2.24-5-5z"/><use id="use5170" transform="matrix(1,0,0,1,80,380) translate(69.90776909722223 40.69444444444444)" xlink:href="#a"/><use id="use5172" transform="matrix(1,0,0,1,80,380) translate(149.34136284722223 40.69444444444444)" xlink:href="#h"/><path id="path5174" fill="none" d="M40 469.06c0-2.76 2.24-5 5-5h310c2.76 0 5 2.24 5 5v81.88c0 2.76-2.24 5-5 5H45c-2.76 0-5-2.24-5-5z"/><use id="use5176" transform="matrix(1,0,0,1,40,464.0625) translate(35.55555555555557 55.77777777777777)" xlink:href="#i"/><use id="use5178" transform="matrix(1,0,0,1,40,464.0625) translate(160 55.77777777777777)" xlink:href="#d"/><use id="use5180" transform="matrix(1,0,0,1,40,464.0625) translate(195.55555555555557 55.77777777777777)" xlink:href="#e"/><use id="use5182" transform="matrix(1,0,0,1,40,464.0625) translate(231.11111111111111 55.77777777777777)" xlink:href="#f"/><use id="use5184" transform="matrix(1,0,0,1,40,464.0625) translate(266.66666666666663 55.77777777777777)" xlink:href="#j"/><path id="path5186" fill="#69b241" stroke="#000" stroke-width="2" d="M708 440c39.76 0 72 31.34 72 70s-32.24 70-72 70H492c-39.76 0-72-31.34-72-70s32.24-70 72-70z"/><path id="path5188" fill="none" d="M480 385c0-2.76 2.24-5 5-5h230c2.76 0 5 2.24 5 5v50c0 2.76-2.24 5-5 5H485c-2.76 0-5-2.24-5-5z"/><use id="use5190" transform="matrix(1,0,0,1,480,380) translate(71.52560763888889 40.69444444444444)" xlink:href="#a"/><use id="use5192" transform="matrix(1,0,0,1,480,380) translate(150.95920138888889 40.69444444444444)" xlink:href="#k"/><path id="path5194" fill="none" d="M440 469.13c0-2.77 2.24-5 5-5h310c2.76 0 5 2.23 5 5V551c0 2.76-2.24 5-5 5H445c-2.76 0-5-2.24-5-5z"/><use id="use5196" transform="matrix(1,0,0,1,440,464.125) translate(80 55.77777777777777)" xlink:href="#l"/><use id="use5198" transform="matrix(1,0,0,1,440,464.125) translate(115.55555555555556 55.77777777777777)" xlink:href="#d"/><use id="use5200" transform="matrix(1,0,0,1,440,464.125) translate(151.11111111111111 55.77777777777777)" xlink:href="#e"/><use id="use5202" transform="matrix(1,0,0,1,440,464.125) translate(186.66666666666669 55.77777777777777)" xlink:href="#f"/><use id="use5204" transform="matrix(1,0,0,1,440,464.125) translate(222.22222222222223 55.77777777777777)" xlink:href="#m"/><path id="path5206" fill="none" stroke="#000" stroke-width="2" d="M285 35c0-2.76 2.24-5 5-5h170c2.76 0 5 2.24 5 5v50c0 2.76-2.24 5-5 5H290c-2.76 0-5-2.24-5-5z"/><g id="g5218"><use id="use5208" transform="matrix(1,0,0,1,285,30) translate(20.005000000000003 36.761111111111106)" xlink:href="#n"/><use id="use5210" transform="matrix(1,0,0,1,285,30) translate(51.11611111111112 36.761111111111106)" xlink:href="#o"/><use id="use5212" transform="matrix(1,0,0,1,285,30) translate(82.22722222222222 36.761111111111106)" xlink:href="#p"/><use id="use5214" transform="matrix(1,0,0,1,285,30) translate(113.33833333333334 36.761111111111106)" xlink:href="#q"/><use id="use5216" transform="matrix(1,0,0,1,285,30) translate(144.44944444444445 36.761111111111106)" xlink:href="#r"/></g><path id="path5220" fill="none" stroke="#000" stroke-width="2" d="M505 35c0-2.76 2.24-5 5-5h170c2.76 0 5 2.24 5 5v50c0 2.76-2.24 5-5 5H510c-2.76 0-5-2.24-5-5z"/><g id="g5232"><use id="use5222" transform="matrix(1,0,0,1,505,30) translate(20.005000000000003 36.761111111111106)" xlink:href="#n"/><use id="use5224" transform="matrix(1,0,0,1,505,30) translate(51.11611111111112 36.761111111111106)" xlink:href="#o"/><use id="use5226" transform="matrix(1,0,0,1,505,30) translate(82.22722222222222 36.761111111111106)" xlink:href="#p"/><use id="use5228" transform="matrix(1,0,0,1,505,30) translate(113.33833333333334 36.761111111111106)" xlink:href="#s"/><use id="use5230" transform="matrix(1,0,0,1,505,30) translate(144.44944444444445 36.761111111111106)" xlink:href="#r"/></g><path id="path5234" fill="none" stroke="#000" stroke-width="2" d="M725 35c0-2.76 2.24-5 5-5h170c2.76 0 5 2.24 5 5v50c0 2.76-2.24 5-5 5H730c-2.76 0-5-2.24-5-5z"/><g id="g5246"><use id="use5236" transform="matrix(1,0,0,1,725,30) translate(20.005000000000003 36.761111111111106)" xlink:href="#n"/><use id="use5238" transform="matrix(1,0,0,1,725,30) translate(51.11611111111112 36.761111111111106)" xlink:href="#o"/><use id="use5240" transform="matrix(1,0,0,1,725,30) translate(82.22722222222222 36.761111111111106)" xlink:href="#p"/><use id="use5242" transform="matrix(1,0,0,1,725,30) translate(113.33833333333334 36.761111111111106)" xlink:href="#q"/><use id="use5244" transform="matrix(1,0,0,1,725,30) translate(144.44944444444445 36.761111111111106)" xlink:href="#r"/></g><path id="path5248" d="m 375,90 v 95 c 0,2.76 -1.75992,6.02077 1,6 l 132.90466,-1 c 2.75992,-0.0208 1,2.24 1,5 v 160" style="fill:none;stroke:#3aa6dd;stroke-width:4"/><path id="path5250" d="m 508.15378,384.1506 -6.4229,-20.20499 -2.98547,-10.32125 22.10562,-0.52641 -6.53901,17.02192 z" style="fill:#3aa6dd;stroke:#3aa6dd;stroke-width:.69166267"/><path id="path5252" fill="none" stroke="#9b0d28" stroke-width="4" d="M595 91v94c0 2.76 2.24 5 5 5h400c2.76 0 5 2.24 5 5v160"/><path id="path5254" fill="#9b0d28" d="M597 91h-4v-1h4z"/><path id="path5256" fill="#9b0d28" stroke="#9b0d28" stroke-width="4" d="M1005 355l-4.64-14.27h9.28z"/><path id="path5258" d="m 815,90 v 95 m 0,0 c -2.76,0 -5,2.24 -5,5 0,2.76 2.24,5 5,5 l -0.70711,49.19239 c -0.0397,2.75971 -2.24,5 -5,5 h -94.15493 c -2.76,0 -4.97447,2.24012 -5,5 l -1.05634,114.22535" style="fill:none;stroke:#ff8f80;stroke-width:4"/><path id="path5260" d="m 709.78873,384.57746 -4.64,-14.27 h 9.28 z" style="fill:#ff8f80;stroke:#ff8f80;stroke-width:4"/><defs id="defs5342"><path id="t" fill="#666" d="M465-160c115 0 219-75 219-184 0-85-61-167-184-242-115-71-295-172-356-264-38-58-60-121-60-194 0-224 182-371 412-371 117 0 224 33 321 98v227c-101-97-209-145-325-145-114 0-223 58-224 162 0 42 15 81 46 118 59 73 208 148 302 205 170 102 256 231 256 388 0 225-175 378-405 378-138 0-264-42-377-127v-254c108 137 233 205 375 205"/><path id="u" fill="#666" d="M537-793c-115 4-158 59-230 134V0H125v-1397h182v598c105-135 293-188 448-93 113 70 144 170 144 368V0H717v-569c3-122-65-228-180-224"/><path id="v" fill="#666" d="M279 14C154 14 49-84 55-209c11-240 284-270 473-344 10-137-37-215-166-215-99 0-196 51-290 154v-199c71-83 172-125 305-125 171 0 301 80 323 228s4 380 7 548c0 31 11 47 32 47 22 0 56-16 103-49v111c-70 41-94 69-178 69-78 0-124-31-138-92-77 60-160 90-247 90zm-43-254c-2 75 56 129 131 129 58 0 112-24 161-71v-273c-79 31-209 74-254 121-25 26-38 57-38 94"/><path id="w" fill="#666" d="M541-764c-125-1-217 148-217 283V0H141v-920h183v211c142-236 286-310 489-125l-96 160c-63-60-122-90-176-90"/><path id="x" fill="#666" d="M90-475c0-262 193-465 453-465 61 0 128 13 200 39v-496h183V0H537C263 3 90-196 90-475zm481-307c-186-2-297 138-297 329 0 141 61 243 159 281 51 21 218 15 310 16v-583c-57-29-114-43-172-43"/><g id="a"><use id="use5267" transform="matrix(0.015190972222222222,0,0,0.015190972222222222,0,0)" xlink:href="#t"/><use id="use5269" transform="matrix(0.015190972222222222,0,0,0.015190972222222222,14.249131944444445,0)" xlink:href="#u"/><use id="use5271" transform="matrix(0.015190972222222222,0,0,0.015190972222222222,29.8046875,0)" xlink:href="#v"/><use id="use5273" transform="matrix(0.015190972222222222,0,0,0.015190972222222222,43.08159722222222,0)" xlink:href="#w"/><use id="use5275" transform="matrix(0.015190972222222222,0,0,0.015190972222222222,54.93055555555556,0)" xlink:href="#x"/></g><path id="y" fill="#666" d="M307-694c0 306 244 526 555 526 169 0 335-52 496-156v220C1119 35 700 64 453-78 260-188 105-411 100-694c-8-401 347-721 754-721 147 0 310 38 489 115v215c-163-93-323-140-479-140-306 0-557 229-557 531"/><use id="b" transform="matrix(0.015190972222222222,0,0,0.015190972222222222,0,0)" xlink:href="#y"/><path id="z" d="M244-566c-67 0-104 39-115 80l-51-40c37-63 103-101 174-101 102 0 181 78 181 175 0 90-64 153-110 196-45 42-117 104-169 195h261c11 1 12-12 24-9V0H73v-44c52-104 110-168 181-232 45-41 110-95 110-171 0-67-54-119-120-119"/><use id="c" transform="matrix(0.035555555555555556,0,0,0.035555555555555556,0,0)" xlink:href="#z"/><path id="A" d="M458-496v-71L35-344v48L461-47v-76L111-319"/><g id="d"><use id="use5283" transform="matrix(0.035555555555555556,0,0,0.035555555555555556,0,0)" xlink:href="#A"/><path id="path5285" d="M-1.78 2.67h21.33v1.78H-1.78z"/></g><path id="B" d="M379-624h70L291-319 468 0h-79L251-247 117 0H41l170-318L44-624h75l131 237"/><use id="e" transform="matrix(0.035555555555555556,0,0,0.035555555555555556,0,0)" xlink:href="#B"/><use id="f" transform="matrix(0.035555555555555556,0,0,0.035555555555555556,0,0)" xlink:href="#A"/><path id="C" d="M173-413c-33-7-69 65-69 108V0H38v-457h66v45c21-32 56-56 93-56 41 0 74 29 81 67 27-65 127-96 174-30 21 30 18 69 18 107V1h-68v-325c5-38-4-96-42-91-51 6-72 68-73 113V0h-67v-318c7-41-11-101-47-95"/><path id="D" d="M366-269c2-83-14-137-109-139-42 0-94 12-131 51l-35-46c43-44 101-64 163-64 110 0 181 69 181 184V0h-68v-50C317-9 259 11 203 11 23 8-5-195 154-249c63-21 138-20 212-20zm3 55c-54 1-120-4-167 7-57 14-81 51-81 84 0 41 35 79 96 79 60 0 104-36 120-54 39-46 31-65 32-116"/><path id="E" d="M362-457h74L288-235 456 0h-82L248-178 129 0H47l161-232L50-457h79l119 169"/><path id="F" d="M126-624c2 12-9 15-9 26v262l260-292c26 6 49 5 78 5L219-354 471 1c-49 0-89 3-89 3L166-312l-49 54V0H42v-624h84"/><path id="G" d="M259-468c75 0 160 39 181 162 4 27 6 57 3 88H118c5 137 95 170 156 170 45 0 88-18 118-51l40 39c-39 47-99 70-164 70C144 10 49-71 49-223c0-167 101-245 210-245zM121-274h251c9-74-44-139-118-139-49 0-119 31-133 139"/><path id="H" d="M60 71c12 22 12 44 61 44 61 0 93-68 110-117L46-457h89c0 12-6 19-2 30L267-91c40-122 91-235 121-366h75C406-283 326-121 275 52c-29 99-167 167-253 83"/><g id="g"><use id="use5297" transform="matrix(0.035555555555555556,0,0,0.035555555555555556,0,0)" xlink:href="#C"/><use id="use5299" transform="matrix(0.035555555555555556,0,0,0.035555555555555556,17.77777777777778,0)" xlink:href="#D"/><use id="use5301" transform="matrix(0.035555555555555556,0,0,0.035555555555555556,35.55555555555556,0)" xlink:href="#E"/><use id="use5303" transform="matrix(0.035555555555555556,0,0,0.035555555555555556,53.333333333333336,0)" xlink:href="#F"/><use id="use5305" transform="matrix(0.035555555555555556,0,0,0.035555555555555556,71.11111111111111,0)" xlink:href="#G"/><use id="use5307" transform="matrix(0.035555555555555556,0,0,0.035555555555555556,88.88888888888889,0)" xlink:href="#H"/></g><path id="I" fill="#666" d="M600-1405h141L1366 0h-205L975-414H381L205 0H0zm293 813l-225-506-209 506h434"/><use id="h" transform="matrix(0.015190972222222222,0,0,0.015190972222222222,0,0)" xlink:href="#I"/><path id="J" d="M106-457h183v399h107V0H100v-58h117v-341H106v-58zm149-199c29 0 51 23 51 51s-22 52-51 52-52-24-52-52 23-51 52-51"/><path id="K" d="M274-405c-78 10-132 62-132 142V0H68v-457h74v81c34-51 89-92 151-92 88 0 139 91 139 191V0h-71v-275c9-55-27-138-87-130"/><g id="i"><use id="use5314" transform="matrix(0.035555555555555556,0,0,0.035555555555555556,0,0)" xlink:href="#C"/><use id="use5316" transform="matrix(0.035555555555555556,0,0,0.035555555555555556,17.77777777777778,0)" xlink:href="#J"/><use id="use5318" transform="matrix(0.035555555555555556,0,0,0.035555555555555556,35.55555555555556,0)" xlink:href="#K"/><use id="use5320" transform="matrix(0.035555555555555556,0,0,0.035555555555555556,53.333333333333336,0)" xlink:href="#F"/><use id="use5322" transform="matrix(0.035555555555555556,0,0,0.035555555555555556,71.11111111111111,0)" xlink:href="#G"/><use id="use5324" transform="matrix(0.035555555555555556,0,0,0.035555555555555556,88.88888888888889,0)" xlink:href="#H"/></g><path id="L" d="M298-624v570h112V1H116v-55h115v-483l-123 36-17-39 160-84h47"/><use id="j" transform="matrix(0.035555555555555556,0,0,0.035555555555555556,0,0)" xlink:href="#L"/><path id="M" fill="#666" d="M776-739c182 31 334 160 334 358 0 166-92 267-216 328C823-18 734 0 627 0H154v-1397c212 7 494-22 636 47 116 56 199 157 199 316 0 137-71 236-213 295zm-289-60c185 3 295-63 295-219 0-134-85-201-256-201H354v420h133zm272 204c-77-32-277-25-405-26v443c125-1 352 2 420-26 102-41 175-202 92-312-26-35-62-60-107-79"/><use id="k" transform="matrix(0.015190972222222222,0,0,0.015190972222222222,0,0)" xlink:href="#M"/><use id="l" transform="matrix(0.035555555555555556,0,0,0.035555555555555556,0,0)" xlink:href="#L"/><use id="m" transform="matrix(0.035555555555555556,0,0,0.035555555555555556,0,0)" xlink:href="#z"/><path id="N" d="M163-116c0-78-36-122-110-112v-56c35-1 55 6 86-22 64-88-23-208 73-291 58-51 122-38 196-40v57c-53 2-103-8-135 13-38 24-40 73-40 93 0 24 2 46 2 70 3 68-35 130-87 148 38 13 85 50 85 155 0 81-20 142 38 187 33 26 82 15 136 17v56c-78-2-144 12-192-30-80-70-52-144-52-245"/><use id="n" transform="matrix(0.03111111111111111,0,0,0.03111111111111111,0,0)" xlink:href="#N"/><use id="o" transform="matrix(0.03111111111111111,0,0,0.03111111111111111,0,0)" xlink:href="#B"/><path id="O" d="M298-365c0 31-26 57-59 57s-60-25-60-57c0-31 27-58 60-58s59 27 59 58zm0 319c0 31-26 57-59 57s-60-25-60-57c0-31 27-58 60-58s59 27 59 58"/><use id="p" transform="matrix(0.03111111111111111,0,0,0.03111111111111111,0,0)" xlink:href="#O"/><use id="q" transform="matrix(0.03111111111111111,0,0,0.03111111111111111,0,0)" xlink:href="#L"/><path id="P" d="M352-256c-52-19-90-80-87-148 0-24 3-46 3-70 0-20-2-69-40-93-32-21-83-11-136-13v-57c74 2 140-14 196 40 65 62 49 118 47 206 0 24 2 61 26 85 30 29 52 21 87 22v56c-74-10-110 34-110 112 0 101 28 175-52 245-48 42-115 28-193 30v-56c54-2 104 9 137-17 58-45 38-106 38-187 0-105 46-142 84-155"/><use id="r" transform="matrix(0.03111111111111111,0,0,0.03111111111111111,0,0)" xlink:href="#P"/><use id="s" transform="matrix(0.03111111111111111,0,0,0.03111111111111111,0,0)" xlink:href="#z"/></defs></g></svg>