<svg xmlns="http://www.w3.org/2000/svg" xmlns:xlink="http://www.w3.org/1999/xlink" width="680" height="360" x="0" y="0" version="1.1" viewBox="0 0 680 360"><g id="Layer 1"><g><g><path fill="#2A86C0" d="M314.199,145.335 C314.199,143.991 312.253,142.901 309.847,142.901 L184.547,142.901 C182.144,142.901 180.194,143.991 180.194,145.335 L180.194,215.464 C180.194,216.81 182.144,217.901 184.547,217.901 L309.847,217.901 C312.253,217.901 314.199,216.81 314.199,215.464 L314.199,145.335"/><text transform="matrix(1, 0, 0, 1, 247.197, 180.401)"><tspan x="-34.365" y="-2.231" fill="#FFF" font-family="GillSans" font-size="24">Router</tspan></text></g><text transform="matrix(1, 0, 0, 1, 247.197, 199.654)"><tspan x="-38.228" y="6" fill="#FFF" font-family="GillSans" font-size="20">(mongos)</tspan></text></g><g><path fill="#5CA831" d="M668.368,208.32 C668.368,205.743 664.042,203.654 658.697,203.654 L380.3,203.654 C374.961,203.654 370.629,205.743 370.629,208.32 L370.629,342.729 C370.629,345.308 374.961,347.399 380.3,347.399 L658.697,347.399 C664.042,347.399 668.368,345.308 668.368,342.729 L668.368,208.32"/><path fill-opacity="0" stroke="#5CA831" stroke-width="1" d="M668.368,208.32 C668.368,205.743 664.042,203.654 658.697,203.654 L380.3,203.654 C374.961,203.654 370.629,205.743 370.629,208.32 L370.629,342.729 C370.629,345.308 374.961,347.399 380.3,347.399 L658.697,347.399 C664.042,347.399 668.368,345.308 668.368,342.729 L668.368,208.32"/></g><g><path fill="#5CA831" d="M668.368,18.856 C668.368,15.845 664.042,13.403 658.697,13.403 L380.3,13.403 C374.961,13.403 370.629,15.845 370.629,18.856 L370.629,175.945 C370.629,178.959 374.961,181.403 380.3,181.403 L658.697,181.403 C664.042,181.403 668.368,178.959 668.368,175.945 L668.368,18.856"/><path fill-opacity="0" stroke="#5CA831" stroke-width="1" d="M668.368,18.856 C668.368,15.845 664.042,13.403 658.697,13.403 L380.3,13.403 C374.961,13.403 370.629,15.845 370.629,18.856 L370.629,175.945 C370.629,178.959 374.961,181.403 380.3,181.403 L658.697,181.403 C664.042,181.403 668.368,178.959 668.368,175.945 L668.368,18.856"/></g><g><g><g><g><path fill="#FFF" d="M590.759,79.004 L638.429,79.004 L638.429,142.257 L590.759,142.257 z"/><path fill-opacity="0" stroke="#D33907" stroke-width="1" d="M590.759,79.004 L638.429,79.004 L638.429,142.257 L590.759,142.257 z"/></g><g><path fill="#FFF" d="M582.255,86.153 L631.449,86.153 L631.449,150.138 L582.255,150.138 z"/><path fill-opacity="0" stroke="#D33907" stroke-width="1" d="M582.255,86.153 L631.449,86.153 L631.449,150.138 L582.255,150.138 z"/></g></g><g><path fill="#FFF" d="M576.168,93.615 L623.837,93.615 L623.837,156.209 L576.168,156.209 z"/><path fill-opacity="0" stroke="#D33907" stroke-width="1" d="M576.168,93.615 L623.837,93.615 L623.837,156.209 L576.168,156.209 z"/></g><g><path fill="#FFF" d="M567.664,100.764 L616.857,100.764 L616.857,164.749 L567.664,164.749 z"/><path fill-opacity="0" stroke="#D33907" stroke-width="1" d="M567.664,100.764 L616.857,100.764 L616.857,164.749 L567.664,164.749 z"/></g></g><path fill-opacity="0" stroke="#D33907" stroke-width="1" d="M557.041,71.31 L647.994,71.31 L647.994,172.431 L557.041,172.431 z"/></g><text transform="matrix(1, 0, 0, 1, 612.704, 57.748)"><tspan x="-55.663" y="5.438" fill="#D33907" font-family="GillSans" font-size="21">Collection2</tspan></text><text transform="matrix(1, 0, 0, 1, 524.998, 29.491)"><tspan x="-42.434" y="5.912" fill="#FFF" font-family="GillSans" font-size="24">Shard A</tspan></text><g><g><path fill="#FFF" d="M410.004,246.378 L484.059,246.378 L484.059,288.825 L410.004,288.825 z"/><path fill-opacity="0" stroke="#0C60B2" stroke-width=".929" d="M410.004,246.378 L484.059,246.378 L484.059,288.825 L410.004,288.825 z"/></g><g><path fill="#FFF" d="M396.792,250.719 L473.216,250.719 L473.216,289.569 L396.792,289.569 z"/><path fill-opacity="0" stroke="#0C60B2" stroke-width=".929" d="M396.792,250.719 L473.216,250.719 L473.216,289.569 L396.792,289.569 z"/></g></g><g><g><path fill="#FFF" d="M410.004,296.011 L484.059,296.011 L484.059,338.457 L410.004,338.457 z"/><path fill-opacity="0" stroke="#0C60B2" stroke-width=".929" d="M410.004,296.011 L484.059,296.011 L484.059,338.457 L410.004,338.457 z"/></g><g><path fill="#FFF" d="M396.792,300.352 L473.216,300.352 L473.216,339.201 L396.792,339.201 z"/><path fill-opacity="0" stroke="#0C60B2" stroke-width=".929" d="M396.792,300.352 L473.216,300.352 L473.216,339.201 L396.792,339.201 z"/></g></g><g><g><path fill="#FFF" d="M410.004,79.959 L484.059,79.959 L484.059,122.406 L410.004,122.406 z"/><path fill-opacity="0" stroke="#0C60B2" stroke-width=".929" d="M410.004,79.959 L484.059,79.959 L484.059,122.406 L410.004,122.406 z"/></g><g><path fill="#FFF" d="M396.792,84.3 L473.216,84.3 L473.216,123.15 L396.792,123.15 z"/><path fill-opacity="0" stroke="#0C60B2" stroke-width=".929" d="M396.792,84.3 L473.216,84.3 L473.216,123.15 L396.792,123.15 z"/></g></g><g><g><path fill="#FFF" d="M410.004,129.592 L484.059,129.592 L484.059,172.038 L410.004,172.038 z"/><path fill-opacity="0" stroke="#0C60B2" stroke-width=".929" d="M410.004,129.592 L484.059,129.592 L484.059,172.038 L410.004,172.038 z"/></g><g><path fill="#FFF" d="M396.792,133.932 L473.216,133.932 L473.216,172.782 L396.792,172.782 z"/><path fill-opacity="0" stroke="#0C60B2" stroke-width=".929" d="M396.792,133.932 L473.216,133.932 L473.216,172.782 L396.792,172.782 z"/></g></g><path fill-opacity="0" stroke="#0C60B2" stroke-dasharray="2 2" stroke-width="1" d="M391.958,71.31 L488.361,71.31 C493.921,71.31 498.428,77.379 498.428,84.864 L498.428,333.844 C498.428,341.33 493.921,347.399 488.361,347.399 L391.958,347.399 C386.398,347.399 381.891,341.33 381.891,333.844 L381.891,84.864 C381.891,77.379 386.398,71.31 391.958,71.31 z"/><text transform="matrix(1, 0, 0, 1, 524.998, 219.135)"><tspan x="-48.595" y="6.367" fill="#FFF" font-family="GillSans" font-size="24">Shard B</tspan></text><text transform="matrix(1, 0, 0, 1, 437.554, 57.748)"><tspan x="-55.663" y="5.438" fill="#0C60B2" font-family="GillSans" font-size="21">Collection1</tspan></text><text transform="matrix(1, 0, 0, 1, 72.397, 200.364)"><tspan x="-60.764" y="6.561" fill="#D33907" font-family="GillSans" font-size="21">Reads/Writes</tspan></text><text transform="matrix(1, 0, 0, 1, 71.163, 166.163)"><tspan x="-59.531" y="6.5" fill="#0C60B2" font-family="GillSans" font-size="21">Reads/Writes</tspan></text><path fill-opacity="0" stroke="#4F4C4B" stroke-dasharray="4 4" stroke-width="2" d="M158.194,5 L158.194,355"/><g><path fill-opacity="0" stroke="#0C60B2" stroke-width="3" d="M133.161,167.734 L162.911,167.734"/><path fill="#0C60B2" fill-opacity="1" stroke="#0C60B2" stroke-opacity="1" stroke-width="3" d="M162.911,171.934 L174.111,167.734 L162.911,163.534 z"/></g><g><path fill-opacity="0" stroke="#D33907" stroke-width="3" d="M130.694,202.401 L162.911,202.401"/><path fill="#D33907" fill-opacity="1" stroke="#D33907" stroke-opacity="1" stroke-width="3" d="M162.911,206.601 L174.111,202.401 L162.911,198.201 z"/></g><g><path fill-opacity="0" stroke="#D33907" stroke-width="2" d="M329.999,150.759 L356.399,150.759"/><path fill="#D33907" fill-opacity="1" stroke="#D33907" stroke-opacity="1" stroke-width="2" d="M329.999,147.159 L320.399,150.759 L329.999,154.359 z"/><path fill="#D33907" fill-opacity="1" stroke="#D33907" stroke-opacity="1" stroke-width="2" d="M356.399,154.359 L365.999,150.759 L356.399,147.159 z"/></g><g><path fill-opacity="0" stroke="#0C60B2" stroke-width="2" d="M329.999,161.734 L356.399,161.734"/><path fill="#0C60B2" fill-opacity="1" stroke="#0C60B2" stroke-opacity="1" stroke-width="2" d="M329.999,158.134 L320.399,161.734 L329.999,165.334 z"/><path fill="#0C60B2" fill-opacity="1" stroke="#0C60B2" stroke-opacity="1" stroke-width="2" d="M356.399,165.334 L365.999,161.734 L356.399,158.134 z"/></g><g><path fill-opacity="0" stroke="#0C60B2" stroke-width="2" d="M327.977,209.401 L354.377,209.401"/><path fill="#0C60B2" fill-opacity="1" stroke="#0C60B2" stroke-opacity="1" stroke-width="2" d="M327.977,205.801 L318.377,209.401 L327.977,213.001 z"/><path fill="#0C60B2" fill-opacity="1" stroke="#0C60B2" stroke-opacity="1" stroke-width="2" d="M354.377,213.001 L363.977,209.401 L354.377,205.801 z"/></g><g><text transform="matrix(1, 0, 0, 1, 86.037, 93.839)"><tspan x="-55.017" y="-5.5" fill="#4F4C4B" font-family="GillSans" font-size="21">Applications/</tspan></text><text transform="matrix(1, 0, 0, 1, 98.162, 107.255)"><tspan x="-34.333" y="4.076" fill="#4F4C4B" font-family="GillSans" font-size="21">Drivers</tspan></text></g></g></svg>